<?xml version="1.0" standalone="no"?>
<!DOCTYPE svg PUBLIC "-//W3C//DTD SVG 1.1//EN" "http://www.w3.org/Graphics/SVG/1.1/DTD/svg11.dtd" >
<svg xmlns="http://www.w3.org/2000/svg">
<metadata>
Created by FontPrep 20130207 at Mon Mar 24 22:55:08 2014
 By thulioph
Copyright 1990-1993 Bitstream Inc.  All rights reserved.
</metadata>
<defs>
<font id="83e745202b9c294eb00e8ddf964ce844" horiz-adv-x='1024' >
  <font-face 
    font-family="Humanist777BT-LightB"
    font-weight="400"
    font-stretch="normal"
    units-per-em="2048"
    panose-1="2 11 4 2 3 5 4 2 2 4"
    ascent="1638"
    descent="-410"
    x-height="1020"
    cap-height="1421"
    bbox="-262 -483 2447 1970"
    underline-thickness="86"
    underline-position="-170"
    unicode-range="U+0020-F002"
  />
<missing-glyph horiz-adv-x="1229" 
d="M217 -248h795v1577h-795v-1577zM102 -362v1806h1024v-1806h-1024z" />
    <glyph glyph-name=".notdef" horiz-adv-x="1229" 
d="M217 -248h795v1577h-795v-1577zM102 -362v1806h1024v-1806h-1024z" />
    <glyph glyph-name=".null" horiz-adv-x="0" 
 />
    <glyph glyph-name="nonmarkingreturn" horiz-adv-x="573" 
 />
    <glyph glyph-name="space" unicode=" " horiz-adv-x="573" 
 />
    <glyph glyph-name="exclam" unicode="!" horiz-adv-x="801" 
d="M322 1421h157l-24 -1067h-107zM317 180h166v-180h-166v180z" />
    <glyph glyph-name="quotedbl" unicode="&#x22;" horiz-adv-x="551" 
d="M186 1434v-553h-86v553h86zM451 1434v-553h-86v553h86z" />
    <glyph glyph-name="numbersign" unicode="#" horiz-adv-x="1575" 
d="M915 1454l-174 -498h271l176 498h110l-174 -498h322l-31 -90h-323l-101 -282h348l-30 -90h-351l-174 -494h-112l176 494h-270l-179 -494h-110l174 494h-334l31 90h336l100 282h-360l28 90h365l176 498h110zM979 866h-270l-99 -282h269z" />
    <glyph glyph-name="dollar" unicode="$" horiz-adv-x="1147" 
d="M197 1087q0 133 86.5 219t246.5 113v193h95v-187q148 0 303 -47l-19 -131q-122 62 -284 68v-508q197 -97 282.5 -194.5t85.5 -234.5t-99.5 -242t-268.5 -132v-176h-95v172h-26q-151 0 -305 63l16 146q149 -90 315 -90v583q-333 157 -333 385zM340 1092q0 -142 190 -240
v457q-190 -53 -190 -217zM850 374q0 86 -54.5 153.5t-170.5 127.5v-528q104 27 164.5 94t60.5 153z" />
    <glyph glyph-name="percent" unicode="%" horiz-adv-x="1716" 
d="M399 1446q147 0 233.5 -101t86.5 -272t-86.5 -272t-233.5 -101t-234 101t-87 273t87 272t234 100zM1190 1446h110l-755 -1471h-111zM402 1346q-87 0 -141 -75t-54 -196t54 -195.5t141 -74.5t140.5 74.5t53.5 196.5t-53.5 196t-140.5 74zM1334 723q146 0 233.5 -101.5
t87.5 -273.5t-86.5 -272.5t-233.5 -100.5t-234 100.5t-87 272.5t87 273.5t233 101.5zM1338 623q-86 0 -141.5 -76t-55.5 -197t54.5 -195.5t141.5 -74.5t140 73t53 197t-53 198.5t-139 74.5z" />
    <glyph glyph-name="ampersand" unicode="&#x26;" horiz-adv-x="1366" 
d="M844 1130q0 87 -62 143t-160 56t-161.5 -57.5t-63.5 -133.5t38.5 -141t131.5 -155q277 116 277 288zM115 371q0 285 327 417q-176 189 -176 335t100 233.5t258 87.5t253.5 -82.5t95.5 -218.5q0 -232 -334 -381l362 -402q115 166 129 420h123q-12 -284 -172 -512l244 -268
h-178l-143 166q-183 -191 -435 -191q-202 0 -328 110.5t-126 285.5zM252 367q0 -114 93 -196.5t239 -82.5q200 0 340 166l-406 455q-125 -53 -195.5 -140.5t-70.5 -201.5z" />
    <glyph glyph-name="quotesingle" unicode="'" horiz-adv-x="285" 
d="M186 1434v-553h-86v553h86z" />
    <glyph glyph-name="parenleft" unicode="(" horiz-adv-x="612" 
d="M131 637.5q0 408.5 328 908.5h106q-154 -262 -225.5 -481.5t-71.5 -427.5t71.5 -426t225.5 -481h-106q-328 499 -328 907.5z" />
    <glyph glyph-name="parenright" unicode=")" horiz-adv-x="612" 
d="M479 637.5q0 -411.5 -325 -907.5h-107q155 263 226 481t71 426t-71.5 427.5t-225.5 481.5h107q325 -497 325 -908.5z" />
    <glyph glyph-name="asterisk" unicode="*" 
d="M446 1511h129l-26 -329l301 137l45 -143l-322 -68l224 -244l-123 -90l-162 289l-164 -289l-123 90l224 244l-320 68l45 143l299 -137z" />
    <glyph glyph-name="plus" unicode="+" horiz-adv-x="1706" 
d="M893 1221v-570h559v-82h-559v-569h-80v569h-559v82h559v570h80z" />
    <glyph glyph-name="comma" unicode="," horiz-adv-x="573" 
d="M242 178h157l-153 -444h-129z" />
    <glyph glyph-name="hyphen" unicode="-" horiz-adv-x="692" 
d="M96 604h498v-112h-498v112z" />
    <glyph glyph-name="period" unicode="." horiz-adv-x="573" 
d="M203 180h166v-180h-166v180z" />
    <glyph glyph-name="slash" unicode="/" horiz-adv-x="569" 
d="M502 1446h116l-614 -1636h-117z" />
    <glyph glyph-name="zero" unicode="0" horiz-adv-x="1147" 
d="M574 1446q224 0 342 -188t118 -546t-119 -547.5t-343 -189.5t-341.5 187.5t-117.5 547.5t118.5 548t342.5 188zM574 1333q-156 0 -237 -158.5t-81 -462.5t81 -461t237 -157t237.5 158.5t81.5 460.5t-81.5 461t-237.5 159z" />
    <glyph glyph-name="one" unicode="1" horiz-adv-x="1147" 
d="M676 1421v-1421h-129v1270l-223 -209l-78 86l315 274h115z" />
    <glyph glyph-name="two" unicode="2" horiz-adv-x="1147" 
d="M540 1440q174 0 279 -98.5t105 -260.5t-128 -357.5t-517 -598.5h682v-125h-840v125q390 413 525.5 611.5t135.5 319.5t-74.5 189t-195.5 68q-171 0 -317 -103l-27 138q197 92 372 92z" />
    <glyph glyph-name="three" unicode="3" horiz-adv-x="1147" 
d="M494 1432q210 0 334 -98.5t124 -262.5q0 -121 -82 -207.5t-225 -113.5q149 -22 234.5 -113t85.5 -229q0 -188 -141.5 -304t-361.5 -116t-364 57l23 143q128 -75 304 -75t285 83t109 214t-98 202.5t-275 71.5h-143v119l154 2q168 3 263 74t95 184t-89.5 181.5t-239.5 68.5
t-306 -72l-8 131q192 60 322 60z" />
    <glyph glyph-name="four" unicode="4" horiz-adv-x="1147" 
d="M870 1421v-966h213v-119h-213v-336h-127v336h-686v135l641 950h172zM743 455v827l-557 -827h557z" />
    <glyph glyph-name="five" unicode="5" horiz-adv-x="1147" 
d="M514 766q-112 0 -313 -49l12 704h731v-112h-600l-8 -450q130 26 205 26q221 0 345 -114.5t124 -324.5t-141.5 -336t-385.5 -126q-166 0 -297 51l-2 143q134 -76 304 -76t274 96t104 248t-93.5 236t-258.5 84z" />
    <glyph glyph-name="six" unicode="6" horiz-adv-x="1147" 
d="M752 1327q-227 0 -352.5 -163t-131.5 -468q51 96 145 150.5t208 54.5q201 0 317.5 -122.5t116.5 -330.5t-126 -340.5t-323 -132.5q-229 0 -349 168t-120 488q0 388 154 597.5t440 209.5q129 0 270 -41l-10 -123q-114 53 -239 53zM610 784q-138 0 -225.5 -94.5
t-87.5 -246.5t85.5 -249.5t221.5 -97.5t223.5 95t87.5 249t-83.5 249t-221.5 95z" />
    <glyph glyph-name="seven" unicode="7" horiz-adv-x="1147" 
d="M125 1421h860v-125l-559 -1296h-150l566 1303h-717v118z" />
    <glyph glyph-name="eight" unicode="8" horiz-adv-x="1147" 
d="M858 1118q0 92 -75 154.5t-199 62.5t-207.5 -66.5t-83.5 -164.5t67 -171t228 -149q270 148 270 334zM1044 367q0 -172 -132 -282t-340 -110t-339 111.5t-131 286.5q0 265 344 368q-288 127 -288 369q0 148 119 241t308 93t302.5 -90.5t113.5 -237.5q0 -112 -78 -207.5
t-227 -165.5q348 -111 348 -376zM244 371q0 -118 93 -196.5t233 -78.5t232.5 76.5t92.5 184.5t-83 187t-261 146q-307 -113 -307 -319z" />
    <glyph glyph-name="nine" unicode="9" horiz-adv-x="1147" 
d="M881 986q0 156 -84.5 248.5t-218.5 92.5t-225 -102.5t-91 -252.5t86 -241.5t224 -91.5t223.5 95.5t85.5 251.5zM557 522q-198 0 -316 121t-118 329t123.5 341t322.5 133q230 0 350.5 -168t120.5 -487q0 -388 -154 -596.5t-440 -208.5q-145 0 -270 39l10 125
q112 -54 226 -54q238 0 364 159.5t133 471.5q-50 -96 -143.5 -150.5t-208.5 -54.5z" />
    <glyph glyph-name="colon" unicode=":" horiz-adv-x="573" 
d="M203 1028h166v-180h-166v180zM203 180h166v-180h-166v180z" />
    <glyph glyph-name="semicolon" unicode=";" horiz-adv-x="573" 
d="M223 1020h166v-180h-166v180zM227 178h160l-156 -444h-129z" />
    <glyph glyph-name="less" unicode="&#x3c;" horiz-adv-x="1706" 
d="M1442 1034l-1045 -424l1045 -424v-88l-1178 482v61l1178 483v-90z" />
    <glyph glyph-name="equal" unicode="=" horiz-adv-x="1706" 
d="M1452 831v-79h-1198v79h1198zM1452 469v-82h-1198v82h1198z" />
    <glyph glyph-name="greater" unicode="&#x3e;" horiz-adv-x="1706" 
d="M1442 641v-61l-1178 -482v88l1045 424l-1045 424v90z" />
    <glyph glyph-name="question" unicode="?" horiz-adv-x="1020" 
d="M360 421q0 124 105 259q22 28 65 79q164 197 164 313t-77.5 182.5t-196.5 66.5t-268 -64v127q140 52 264 52q193 0 301 -93t108 -253t-210 -412q-37 -44 -66 -80q-68 -84 -68 -213l2 -37h-120q-3 15 -3 73zM340 180h166v-180h-166v180z" />
    <glyph glyph-name="at" unicode="@" horiz-adv-x="2048" 
d="M690 446q0 -115 58 -180t164 -65t191 72.5t116 193.5l63 254q-45 203 -233 203q-152 0 -255.5 -138t-103.5 -340zM1048 997q193 0 255 -170l61 129h80l-137 -553q-21 -76 -21 -114t30.5 -62t82.5 -24q102 0 205 75t164 208t61 282q0 273 -199.5 439.5t-531.5 166.5
t-563 -192q-310 -258 -310 -672q0 -327 221.5 -522t591.5 -195q161 0 324 50.5t299 142.5l29 -45q-292 -220 -658 -220t-610 185q-301 228 -301 616q0 327 198 572q293 356 795 356q334 0 565 -177q116 -89 182 -217.5t66 -287.5t-63 -298t-191 -241t-295 -102
q-192 0 -192 145q0 12 2 24t2 15q-49 -88 -125 -136t-166 -48q-154 0 -233.5 83t-79.5 243q0 228 134.5 386t327.5 158z" />
    <glyph glyph-name="A" unicode="A" horiz-adv-x="1319" 
d="M602 1421h162l563 -1421h-143l-150 387h-725l-149 -387h-135zM680 1303l-318 -797h625z" />
    <glyph glyph-name="B" unicode="B" horiz-adv-x="1110" 
d="M1010 387q0 -178 -133 -282.5t-365 -104.5h-322v1421h308q220 0 345.5 -93t125.5 -255q0 -122 -67 -204t-195 -115q303 -79 303 -367zM322 1305v-504h159q166 0 256 66.5t90 187.5t-85.5 185.5t-243.5 64.5h-176zM868 399q0 283 -366 283h-180v-559h151q189 0 292 72.5
t103 203.5z" />
    <glyph glyph-name="C" unicode="C" horiz-adv-x="1194" 
d="M844 1309q-277 0 -434.5 -162.5t-157.5 -440.5t157.5 -433.5t434.5 -155.5q163 0 301 57v-133q-129 -45 -326 -45q-325 0 -517.5 191t-192.5 518t200 523.5t537 196.5q185 0 307 -49v-129q-163 62 -309 62z" />
    <glyph glyph-name="D" unicode="D" horiz-adv-x="1346" 
d="M190 1421h271q384 0 583 -179t199 -520t-203.5 -531.5t-566.5 -190.5h-283v1421zM322 1305v-1182h161q293 0 455 155.5t162 441.5t-153.5 435.5t-452.5 149.5h-172z" />
    <glyph glyph-name="E" unicode="E" horiz-adv-x="1038" 
d="M190 1421h693v-112h-561v-512h530v-119h-530v-555h573v-123h-705v1421z" />
    <glyph glyph-name="F" unicode="F" horiz-adv-x="915" 
d="M190 1421h662v-112h-530v-512h507v-119h-507v-678h-132v1421z" />
    <glyph glyph-name="G" unicode="G" horiz-adv-x="1407" 
d="M836 1313q-266 0 -424 -162t-158 -438t164.5 -441.5t443.5 -165.5q148 0 262 52v491h-325v115h458v-694q-188 -76 -407 -76q-281 0 -463 135q-134 99 -205 249t-71 304t33.5 263.5t103.5 209.5q87 127 243 199.5t353 72.5t370 -69l-26 -123q-160 78 -352 78z" />
    <glyph glyph-name="H" unicode="H" horiz-adv-x="1366" 
d="M190 1421h132v-622h722v622h132v-1421h-132v680h-722v-680h-132v1421z" />
    <glyph glyph-name="I" unicode="I" horiz-adv-x="512" 
d="M190 1421h132v-1421h-132v1421z" />
    <glyph glyph-name="J" unicode="J" horiz-adv-x="668" 
d="M348 481v940h131v-962q0 -243 -80 -354t-254 -111q-67 0 -141 16v125q66 -22 117 -22q121 0 174 84.5t53 283.5z" />
    <glyph glyph-name="K" unicode="K" horiz-adv-x="1139" 
d="M190 1421h132v-628l645 628h170l-684 -667l737 -752h-178l-690 705v-705h-132v1419z" />
    <glyph glyph-name="L" unicode="L" horiz-adv-x="887" 
d="M190 1421h132v-1298h567v-123h-699v1421z" />
    <glyph glyph-name="M" unicode="M" horiz-adv-x="1819" 
d="M313 0h-123v1421h199l479 -1169q21 -48 33 -125q6 64 29 117l504 1177h194v-1421h-123v1198l-2 41q0 38 10 84q-24 -53 -34 -79t-11 -27l-514 -1217h-114l-506 1217q-5 11 -17 52t-16 54l12 -125v-1198z" />
    <glyph glyph-name="N" unicode="N" horiz-adv-x="1397" 
d="M313 1182v-1182h-123v1421h168l695 -1192q15 -23 43 -98q-13 82 -13 127v1163h123v-1421h-159l-705 1202q-25 43 -41 105q12 -98 12 -125z" />
    <glyph glyph-name="O" unicode="O" horiz-adv-x="1470" 
d="M734 1446q286 0 455 -198.5t169 -536.5t-169 -537t-455 -199t-454.5 199.5t-168.5 536.5t168.5 536t454.5 199zM735 1329q-219 0 -350 -167.5t-131 -448.5t131 -449t350 -168t350.5 168t131.5 449t-131.5 448.5t-350.5 167.5z" />
    <glyph glyph-name="P" unicode="P" horiz-adv-x="1014" 
d="M190 1421h297q235 0 358.5 -102.5t123.5 -296.5t-133 -303t-373 -109h-141v-610h-132v1421zM322 1305v-576h141q173 0 267.5 77.5t94.5 213.5t-86 210.5t-239 74.5h-178z" />
    <glyph glyph-name="Q" unicode="Q" horiz-adv-x="1470" 
d="M735 1329q-219 0 -350 -167.5t-131 -448.5t131 -449t350 -168t350.5 168t131.5 449t-131.5 448.5t-350.5 167.5zM111 710q0 338 168.5 537t454.5 199t455 -198.5t169 -536.5q0 -510 -383 -691l315 -294h-180l-272 257l-103 -8q-286 0 -455 198.5t-169 536.5z" />
    <glyph glyph-name="R" unicode="R" horiz-adv-x="1104" 
d="M190 1421h316q229 0 347 -91.5t118 -270.5q0 -133 -84 -223.5t-238 -122.5q63 -14 105 -54.5t84 -134.5l233 -524h-147l-211 494q-39 88 -95 124.5t-157 36.5h-139v-655h-132v1421zM827 1057q0 246 -335 246h-170v-529h163q161 0 251.5 75t90.5 208z" />
    <glyph glyph-name="S" unicode="S" horiz-adv-x="1020" 
d="M264 1092q0 -130 278 -289q243 -134 305 -218.5t62 -197.5q0 -177 -125.5 -287t-310.5 -110t-342 65l16 148q170 -92 311 -92q140 0 225 72t85 192q0 144 -258 292t-319.5 229.5t-61.5 188.5q0 164 117.5 255.5t331.5 91.5q126 0 270 -48l-19 -133q-120 62 -260 62
t-222.5 -59t-82.5 -162z" />
    <glyph glyph-name="T" unicode="T" horiz-adv-x="995" 
d="M16 1421h963v-123h-416v-1298h-131v1298h-416v123z" />
    <glyph glyph-name="U" unicode="U" horiz-adv-x="1389" 
d="M1186 598q0 -623 -512 -623q-246 0 -372 151t-126 445v850h131v-839q0 -488 375 -488q190 0 287.5 129.5t97.5 382.5v815h119v-823z" />
    <glyph glyph-name="V" unicode="V" horiz-adv-x="1241" 
d="M27 1421h143l455 -1276l475 1276h133l-541 -1421h-141z" />
    <glyph glyph-name="W" unicode="W" horiz-adv-x="1907" 
d="M25 1421h143l326 -1196q13 -55 22 -125q0 46 21 117l340 1204h176l336 -1204q10 -44 22 -116q6 68 16 109l342 1211h127l-411 -1421h-164l-342 1214q-12 40 -18 111q-7 -39 -12 -69.5t-7 -41.5l-348 -1214h-168z" />
    <glyph glyph-name="X" unicode="X" horiz-adv-x="1247" 
d="M70 1421h166l397 -581l397 581h152l-477 -676l520 -745h-160l-449 649l-450 -649h-148l529 743z" />
    <glyph glyph-name="Y" unicode="Y" horiz-adv-x="1139" 
d="M633 0h-131v604l-527 817h162l432 -700l445 700h147l-528 -813v-608z" />
    <glyph glyph-name="Z" unicode="Z" horiz-adv-x="1042" 
d="M78 1421h862v-131l-743 -1167h761v-123h-901v137l744 1168h-723v116z" />
    <glyph glyph-name="bracketleft" unicode="[" horiz-adv-x="612" 
d="M184 1542h301v-92h-188v-1628h188v-92h-301v1812z" />
    <glyph glyph-name="backslash" unicode="\" horiz-adv-x="569" 
d="M-49 1446h117l614 -1636h-117z" />
    <glyph glyph-name="bracketright" unicode="]" horiz-adv-x="612" 
d="M125 1542h301v-1812h-301v92h188v1628h-188v92z" />
    <glyph glyph-name="asciicircum" unicode="^" horiz-adv-x="2048" 
d="M1081 1458l541 -557h-125l-473 469l-475 -469h-125l539 557h118z" />
    <glyph glyph-name="underscore" unicode="_" 
d="M1024 -403v-80h-1024v80h1024z" />
    <glyph glyph-name="grave" unicode="`" 
d="M276 1503h152l209 -348h-92z" />
    <glyph glyph-name="a" unicode="a" horiz-adv-x="1022" 
d="M512 1042q350 0 350 -391v-651h-114v176q-115 -190 -340 -190q-147 0 -235.5 80t-88.5 213q0 163 136 253.5t384 90.5h131l2 34q0 127 -63.5 199t-175.5 72q-154 0 -293 -86v125q154 75 307 75zM592 518q-180 0 -276.5 -60t-96.5 -160t56.5 -154t148.5 -54
q142 0 226.5 90t84.5 244v94h-143z" />
    <glyph glyph-name="b" unicode="b" horiz-adv-x="1155" 
d="M651 -14q-236 0 -352 223v-209h-119v1526h129v-676q107 192 328 192q189 0 303.5 -141t114.5 -379t-113 -387t-291 -149zM618 936q-142 0 -225.5 -112t-83.5 -306t85.5 -308t223.5 -114t219 112t81 306t-79 308t-221 114z" />
    <glyph glyph-name="c" unicode="c" horiz-adv-x="909" 
d="M236 506q0 -182 98.5 -291t265.5 -109q114 0 242 56l12 -127q-119 -47 -262 -47q-223 0 -358.5 143t-135.5 377t143 377t373 143q129 0 236 -39l-10 -129q-98 53 -247 53t-253 -112.5t-104 -294.5z" />
    <glyph glyph-name="d" unicode="d" horiz-adv-x="1155" 
d="M516 1042q221 0 328 -192v676h129v-1526h-119v209q-116 -223 -352 -223q-178 0 -292 149.5t-114 386.5t115 378.5t305 141.5zM535 936q-141 0 -220 -112.5t-79 -307.5t79 -307.5t217 -112.5t225 114t87 308t-84 306t-225 112z" />
    <glyph glyph-name="e" unicode="e" horiz-adv-x="991" 
d="M534 936q-126 0 -209 -95.5t-98 -258.5h592q-11 171 -85 262.5t-200 91.5zM98 508q0 246 124 391t316 145t299 -130t107 -353v-74h-721q6 -194 101.5 -297.5t249.5 -103.5q155 0 292 74v-127q-134 -58 -286 -58q-226 0 -354 143.5t-128 389.5z" />
    <glyph glyph-name="f" unicode="f" horiz-adv-x="662" 
d="M553 1434q-84 0 -123 -56t-39 -176v-182h236v-105h-236v-915h-127v915h-213v105h213v184q0 342 287 342q43 0 104 -14v-119q-63 21 -102 21z" />
    <glyph glyph-name="g" unicode="g" horiz-adv-x="1151" 
d="M526 1042q237 0 338 -213v191h117v-911q0 -560 -461 -560q-181 0 -325 60l10 137q150 -82 312 -82t253.5 110t91.5 310v133q-117 -221 -340 -221q-187 0 -301.5 144t-114.5 382t114 379t306 141zM544 938q-140 0 -220 -111t-80 -303t80 -305t218 -113t224 113t86 305
t-84 303t-224 111z" />
    <glyph glyph-name="h" unicode="h" horiz-adv-x="1143" 
d="M647 1042q165 0 251.5 -107.5t86.5 -311.5v-623h-129v592q0 172 -59.5 253t-193.5 81t-214 -104.5t-80 -291.5v-530h-129v1526h129v-682q108 198 338 198z" />
    <glyph glyph-name="i" unicode="i" horiz-adv-x="465" 
d="M158 1497h147v-166h-147v166zM168 1020h129v-1020h-129v1020z" />
    <glyph glyph-name="j" unicode="j" horiz-adv-x="465" 
d="M158 1497h147v-166h-147v166zM27 -336q79 0 110 56t31 219v1081h129v-1088q0 -205 -58.5 -291.5t-193.5 -86.5q-52 0 -104 14l12 110q49 -14 74 -14z" />
    <glyph glyph-name="k" unicode="k" horiz-adv-x="954" 
d="M180 1526h129v-905l453 399h160l-496 -432l559 -588h-170l-506 535v-535h-129v1526z" />
    <glyph glyph-name="l" unicode="l" horiz-adv-x="465" 
d="M168 1526h129v-1526h-129v1526z" />
    <glyph glyph-name="m" unicode="m" horiz-adv-x="1726" 
d="M625 1040q220 0 295 -225q53 108 140 166.5t193 58.5q156 0 236 -105.5t80 -311.5v-623h-129v592q0 171 -52 250.5t-174 79.5t-199 -104t-77 -288v-530h-127v592q0 170 -51.5 250t-173.5 80t-199.5 -104t-77.5 -288v-530h-129v1020h119v-193q52 104 136 158.5t190 54.5z
" />
    <glyph glyph-name="n" unicode="n" horiz-adv-x="1143" 
d="M647 1042q165 0 251.5 -107.5t86.5 -311.5v-623h-129v592q0 172 -59.5 253t-193.5 81t-214 -104.5t-80 -291.5v-530h-129v1020h119v-193q111 215 348 215z" />
    <glyph glyph-name="o" unicode="o" horiz-adv-x="1143" 
d="M572 1042q216 0 344 -143.5t128 -388.5t-128 -390t-344 -145t-345 145.5t-129 389.5t129 388t345 144zM573 934q-152 0 -244.5 -116t-92.5 -306t93 -306t245 -116t243.5 115t91.5 307t-92 307t-244 115z" />
    <glyph glyph-name="p" unicode="p" horiz-adv-x="1155" 
d="M922 517q0 195 -79 305t-219 110t-227.5 -113t-87.5 -307t83.5 -307t225.5 -113t223 115t81 310zM626 -12q-205 0 -317 186v-602h-129v1448h119v-201q58 108 149 165.5t203 57.5q187 0 298.5 -140t111.5 -382t-115 -387t-320 -145z" />
    <glyph glyph-name="q" unicode="q" horiz-adv-x="1155" 
d="M504 1042q227 0 350 -223v201h119v-1448h-129v602q-110 -186 -315 -186t-320 145t-115 387t111.5 382t298.5 140zM528 932q-140 0 -218.5 -110t-78.5 -305t81.5 -310t223.5 -115t225 113t83 307t-88 307t-228 113z" />
    <glyph glyph-name="r" unicode="r" horiz-adv-x="682" 
d="M309 541v-541h-129v1020h119v-215q38 109 114 169t177 60q25 0 65 -6v-131q-44 10 -71 10q-129 0 -202 -97t-73 -269z" />
    <glyph glyph-name="s" unicode="s" horiz-adv-x="799" 
d="M231 780q0 -95 227 -196q155 -73 214 -140.5t59 -162.5q0 -134 -100.5 -213.5t-262.5 -79.5t-276 49v121q130 -64 250 -64t187 49.5t67 120.5t-40 115.5t-196 118.5t-209 135t-53 159t92 169t237 71t255 -35v-120q-116 51 -225 51t-167.5 -41t-58.5 -107z" />
    <glyph glyph-name="t" unicode="t" horiz-adv-x="688" 
d="M258 297v618h-209v105h209v258l129 45v-303h238v-105h-238v-596q0 -124 33 -172.5t96 -48.5t121 22v-115q-61 -19 -131 -19q-135 0 -191.5 70t-56.5 241z" />
    <glyph glyph-name="u" unicode="u" horiz-adv-x="1143" 
d="M158 406v614h127v-584q0 -172 59.5 -253t195.5 -81t213.5 111.5t77.5 321.5v485h130v-1020h-119v201q-111 -215 -348 -215q-165 0 -250.5 106.5t-85.5 313.5z" />
    <glyph glyph-name="v" unicode="v" horiz-adv-x="891" 
d="M33 1020h135l289 -907l299 907h123l-353 -1020h-153z" />
    <glyph glyph-name="w" unicode="w" horiz-adv-x="1575" 
d="M33 1020h143l240 -828q8 -29 20 -89q13 79 19 85l260 832h164l258 -821q3 -10 11 -52t9 -44q9 75 14 91l267 826h127l-342 -1020h-146l-274 856q-10 37 -15 79q-9 -69 -14 -83l-268 -852h-148z" />
    <glyph glyph-name="x" unicode="x" horiz-adv-x="862" 
d="M55 1020h160l242 -381l250 381h143l-326 -469l359 -551h-156l-281 444l-280 -444h-143l356 541z" />
    <glyph glyph-name="y" unicode="y" horiz-adv-x="883" 
d="M178 -444q-50 0 -104 12l10 115q2 -1 35 -6t49 -5q73 0 122 61t103 226l-368 1061h137l295 -885l297 885h129l-408 -1172q-55 -157 -124 -224.5t-173 -67.5z" />
    <glyph glyph-name="z" unicode="z" horiz-adv-x="934" 
d="M102 1020h732v-117l-613 -794h613v-109h-760v113l610 796h-582v111z" />
    <glyph glyph-name="braceleft" unicode="{" 
d="M225 573q139 0 196.5 64.5t57.5 222.5v240q0 227 68.5 302t257.5 75h43v-88h-37q-135 0 -182 -51.5t-47 -213.5v-241q0 -175 -43 -248t-152 -105q109 -32 152 -104t43 -248v-241q0 -162 46.5 -212.5t180.5 -50.5h39v-88h-43q-189 0 -257.5 74.5t-68.5 300.5v240
q0 158 -58 222t-200 64l-45 -2v90q20 -2 49 -2z" />
    <glyph glyph-name="bar" unicode="|" 
d="M557 1565v-2048h-90v2048h90z" />
    <glyph glyph-name="braceright" unicode="}" 
d="M545 201v-240q0 -226 -68.5 -300.5t-257.5 -74.5h-43v88h39q134 0 180.5 50.5t46.5 212.5v241q0 174 43.5 247t153.5 105q-110 32 -153.5 105t-43.5 248v241q0 162 -47 213.5t-182 51.5h-37v88h43q189 0 257.5 -75t68.5 -302v-240q0 -158 58 -222.5t200 -64.5l45 2v-90
l-45 2q-142 0 -200 -64t-58 -222z" />
    <glyph glyph-name="asciitilde" unicode="~" horiz-adv-x="1706" 
d="M565 641q-161 0 -387 -160v92q207 146 387 146q100 0 271 -61q12 -6 20 -8t26 -9q168 -61 261 -61q160 0 387 159v-92q-211 -147 -387 -147q-99 0 -266 61q-16 6 -25 9t-30 11q-167 60 -257 60z" />
    <glyph glyph-name="nonbreakingspace" unicode="&#xa0;" horiz-adv-x="1147" 
 />
    <glyph glyph-name="exclamdown" unicode="&#xa1;" horiz-adv-x="801" 
d="M317 1421h166v-180h-166v180zM346 1067h107l24 -1067h-158z" />
    <glyph glyph-name="cent" unicode="&#xa2;" horiz-adv-x="1147" 
d="M674 115q138 0 262 57l10 -127q-208 -81 -426 -25l-88 -280h-86l100 311q-256 145 -256 471q0 237 147 378.5t394 141.5h33l82 250h84l-84 -262q58 -11 98 -31l-10 -129q-58 33 -125 45l-250 -776q68 -24 115 -24zM709 924q-174 0 -277.5 -110.5t-103.5 -293.5
q0 -232 157 -346l242 750h-18z" />
    <glyph glyph-name="sterling" unicode="&#xa3;" horiz-adv-x="1147" 
d="M827 1333q-162 0 -235.5 -110.5t-73.5 -358.5v-45h340v-102h-340v-598h498v-119h-836v119h209v598h-184v102h184v99q0 528 436 528q103 0 226 -43l-21 -125q-104 55 -203 55z" />
    <glyph glyph-name="currency" unicode="&#xa4;" horiz-adv-x="1241" 
d="M620 1298q145 0 265 -94l205 207l59 -59l-207 -205q92 -119 92 -263q0 -145 -92 -261l207 -205l-59 -60l-205 207q-119 -92 -264 -92t-263 92l-206 -207l-58 60l207 205q-92 117 -92 261t92 263l-207 205l58 59l206 -207q117 94 262 94zM954 886q0 138 -96.5 234.5
t-234.5 96.5t-235 -97t-97 -234t96.5 -234t234.5 -97t235 96.5t97 234.5z" />
    <glyph glyph-name="yen" unicode="&#xa5;" horiz-adv-x="1147" 
d="M1073 899v-86h-305l-135 -205h440v-86h-440v-522h-131v522h-439v86h439l-137 205h-302v86h248l-336 522h162l432 -700l445 700h147l-340 -522h252z" />
    <glyph glyph-name="brokenbar" unicode="&#xa6;" 
d="M557 1432v-758h-90v758h90zM557 408v-758h-90v758h90z" />
    <glyph glyph-name="section" unicode="&#xa7;" 
d="M565 1341q-217 0 -217 -176q0 -58 35.5 -104t120.5 -94l203 -119q227 -132 227 -311.5t-197 -282.5q107 -93 107 -227t-95.5 -209.5t-247.5 -75.5t-315 63l31 105q137 -60 259 -60t182.5 46t60.5 129q0 105 -175 216l-216 138q-197 127 -197 280q0 194 197 295
q-109 84 -109 211q0 126 88.5 203.5t235.5 77.5q121 0 241 -43q34 -12 39 -14l-30 -109q-118 61 -228 61zM397 887q-147 -60 -147 -187t151 -221l269 -168q133 89 133 203q0 68 -38 121t-128 106z" />
    <glyph glyph-name="dieresis" unicode="&#xa8;" 
d="M281 1395h141v-164h-141v164zM602 1395h141v-164h-141v164z" />
    <glyph glyph-name="copyright" unicode="&#xa9;" horiz-adv-x="1706" 
d="M852 -10q-299 0 -514 215t-215 515t212 516t518 216t518 -212t212 -518t-211 -513q-107 -106 -241.5 -162.5t-278.5 -56.5zM195 721q0 -269 194.5 -463.5t463.5 -194.5t463 192q195 192 195 466q0 273 -192 466t-466 193t-466 -195t-192 -464zM854 1090q-126 0 -196 -98
t-70 -270t71.5 -270t194.5 -98q91 0 156 52.5t84 140.5h102q-11 -123 -108 -201t-255 -78t-260 123t-102 331t107 331t282 123q132 0 222.5 -72t103.5 -186h-105q-20 81 -79.5 126.5t-147.5 45.5z" />
    <glyph glyph-name="ordfeminine" unicode="&#xaa;" horiz-adv-x="766" 
d="M385 1438q262 0 262 -273v-456h-86v122q-88 -133 -256 -133q-109 0 -175.5 56t-66.5 160t102.5 167.5t287.5 63.5h98l2 24q0 89 -47.5 139t-147.5 50t-204 -60v86q114 54 231 54zM444 1071q-135 0 -207.5 -42t-72.5 -111t42.5 -107.5t110.5 -38.5q108 0 171 63t63 171v65
h-107z" />
    <glyph glyph-name="guillemotleft" unicode="&#xab;" horiz-adv-x="944" 
d="M362 948h121l-274 -418l274 -417h-121l-280 417zM752 948h120l-274 -418l274 -417h-120l-281 417z" />
    <glyph glyph-name="logicalnot" unicode="&#xac;" horiz-adv-x="1706" 
d="M1452 856v-502h-78v420h-1120v82h1198z" />
    <glyph glyph-name="sfthyphen" unicode="&#xad;" horiz-adv-x="692" 
d="M96 604h498v-112h-498v112z" />
    <glyph glyph-name="registered" unicode="&#xae;" horiz-adv-x="1706" 
d="M852 -10q-299 0 -514 215t-215 515t212 516t518 216t518 -212t212 -518t-211 -513q-107 -106 -241.5 -162.5t-278.5 -56.5zM195 721q0 -269 194.5 -463.5t463.5 -194.5t463 192q195 192 195 466q0 273 -192 466t-466 193t-466 -195t-192 -464zM874 1155
q180 0 264.5 -56.5t84.5 -176.5q0 -89 -55.5 -149t-147.5 -71l190 -393h-131l-182 377h-213v-377h-115v846h305zM852 1077h-168v-313h168q145 0 199.5 36t54.5 120t-61.5 120.5t-192.5 36.5z" />
    <glyph glyph-name="macron" unicode="&#xaf;" 
d="M256 1370h512v-117h-512v117z" />
    <glyph glyph-name="degree" unicode="&#xb0;" horiz-adv-x="674" 
d="M337 1450q113 0 193 -80t80 -194t-80 -193.5t-194 -79.5t-193.5 79.5t-79.5 193.5t80.5 194t193.5 80zM551 1175q0 88 -63 151t-151 63t-150 -62t-62 -151t62.5 -151t150.5 -62t150.5 62t62.5 150z" />
    <glyph glyph-name="plusminus" unicode="&#xb1;" horiz-adv-x="1706" 
d="M893 1161v-354h559v-80h-559v-352h-80v352h-559v80h559v354h80zM1452 141v-82h-1198v82h1198z" />
    <glyph glyph-name="twosuperior" unicode="&#xb2;" horiz-adv-x="758" 
d="M356 1434q116 0 185 -59t69 -157t-85.5 -215.5t-340.5 -357.5h451v-76h-555v76q253 242 344.5 363.5t91.5 194.5t-49 114t-144 41t-194 -62l-18 82q129 56 245 56z" />
    <glyph glyph-name="threesuperior" unicode="&#xb3;" horiz-adv-x="758" 
d="M326 1427q140 0 221.5 -58t81.5 -144t-54.5 -138t-148.5 -67q99 -14 155 -68.5t56 -138.5q0 -113 -93.5 -182.5t-236.5 -69.5t-241 35l14 86q86 -45 201 -45q116 0 188 50.5t72 128.5t-64.5 120.5t-181.5 42.5h-94v72l101 2q110 1 173.5 44t63.5 111t-60 109t-158 41
t-202 -43l-6 78q132 34 213 34z" />
    <glyph glyph-name="acute" unicode="&#xb4;" 
d="M596 1503h152l-269 -348h-92z" />
    <glyph glyph-name="mu" unicode="&#xb5;" horiz-adv-x="1094" 
d="M186 332q0 -258 240 -258q120 0 213 109t137 313l125 567h121l-166 -786q-25 -112 -25 -136q0 -63 68 -63q17 0 39 2l-18 -96q-39 -13 -76 -13q-133 0 -133 127q0 18 4 45q-43 -83 -124 -127.5t-183 -44.5t-174.5 45.5t-104.5 126.5l-119 -567h-121l316 1487h121
l-123 -590q-17 -81 -17 -141z" />
    <glyph glyph-name="paragraph" unicode="&#xb6;" 
d="M932 1415h-129v-1415h-70v1415h-192v-1415h-70v782q-175 8 -278 102.5t-103 248.5t108.5 250t286.5 96h447v-64z" />
    <glyph glyph-name="glyph121" unicode="&#xb7;" horiz-adv-x="573" 
d="M286 803q40 0 66.5 -26.5t26.5 -65.5t-27 -66t-65 -27t-65 28t-27 66t25.5 64.5t65.5 26.5z" />
    <glyph glyph-name="cedilla" unicode="&#xb8;" 
d="M637 -285q-1 103 -119 103q-52 0 -71 -2l-1 184h66v-111h20q103 0 160.5 -44t57.5 -124q0 -180 -228 -180q-106 0 -252 41v76q146 -35 238 -35q129 0 129 92z" />
    <glyph glyph-name="onesuperior" unicode="&#xb9;" horiz-adv-x="758" 
d="M446 1421v-852h-84v762l-147 -125l-51 51l207 164h75z" />
    <glyph glyph-name="ordmasculine" unicode="&#xba;" horiz-adv-x="858" 
d="M428 1438q162 0 259 -101t97 -272t-96.5 -272t-258.5 -101t-258.5 102t-96.5 272t96 271t258 101zM430 1362q-114 0 -184 -81t-70 -213t70 -214t184 -82t183 80.5t69 215.5t-69 214.5t-183 79.5z" />
    <glyph glyph-name="guillemotright" unicode="&#xbb;" horiz-adv-x="944" 
d="M72 948h121l280 -418l-280 -417h-121l274 417zM461 948h121l280 -418l-280 -417h-121l272 417z" />
    <glyph glyph-name="onequarter" unicode="&#xbc;" horiz-adv-x="1788" 
d="M424 1423v-796h-80v710l-141 -116l-49 49l198 153h72zM1219 1446h108l-756 -1471h-110zM1614 797v-543h133v-66h-133v-188h-80v188h-432v76l403 533h109zM1534 254v465l-352 -465h352z" />
    <glyph glyph-name="onehalf" unicode="&#xbd;" horiz-adv-x="1788" 
d="M424 1423v-796h-80v710l-141 -116l-49 49l198 153h72zM1219 1446h108l-756 -1471h-110zM1408 807q106 0 172.5 -56t66.5 -146t-80 -199t-326 -336h428v-70h-528v70q245 230 331.5 341.5t86.5 179.5t-47.5 106t-139.5 38t-184 -57l-17 76q131 53 237 53z" />
    <glyph glyph-name="threequarters" unicode="&#xbe;" horiz-adv-x="1788" 
d="M332 1427q112 0 190 -54.5t78 -134.5t-52 -128t-142 -63q94 -13 148 -64.5t54 -128.5q0 -104 -89.5 -168.5t-226.5 -64.5t-231 30l15 82q84 -43 193 -43t178 47t69 120t-62 113t-173 40h-91v67h96q107 2 167.5 41.5t60.5 103.5t-56.5 102t-152.5 38t-192 -41l-4 74
q111 32 223 32zM1219 1446h108l-756 -1471h-110zM1614 797v-543h133v-66h-133v-188h-80v188h-432v76l403 533h109zM1534 254v465l-352 -465h352z" />
    <glyph glyph-name="questiondown" unicode="&#xbf;" horiz-adv-x="1020" 
d="M492 1421h165v-180h-165v180zM637 998q0 -120 -105 -255q-22 -29 -67 -83q-162 -195 -162 -309t78 -182.5t191 -68.5t274 66v-127q-145 -53 -264 -53q-190 0 -301 93t-111 254t213 414q35 42 64 77q69 83 69 214l-2 35h121q2 -19 2 -75z" />
    <glyph glyph-name="Agrave" unicode="&#xc0;" horiz-adv-x="1319" 
d="M602 1421h162l563 -1421h-143l-150 387h-725l-149 -387h-135zM680 1303l-318 -797h625zM436 1906h152l209 -348h-92z" />
    <glyph glyph-name="Aacute" unicode="&#xc1;" horiz-adv-x="1319" 
d="M602 1421h162l563 -1421h-143l-150 387h-725l-149 -387h-135zM680 1303l-318 -797h625zM756 1906h152l-269 -348h-92z" />
    <glyph glyph-name="Acircumflex" unicode="&#xc2;" horiz-adv-x="1319" 
d="M602 1421h162l563 -1421h-143l-150 387h-725l-149 -387h-135zM680 1303l-318 -797h625zM596 1906h152l200 -348h-92l-184 262l-184 -262h-92z" />
    <glyph glyph-name="Atilde" unicode="&#xc3;" horiz-adv-x="1319" 
d="M602 1421h162l563 -1421h-143l-150 387h-725l-149 -387h-135zM680 1303l-318 -797h625zM555 1687q-61 0 -92 -72h-80q45 183 193 183q35 0 55 -9l96 -30q32 -10 56 -10q66 0 96 71h82q-52 -180 -191 -180q-27 0 -65 10l-96 29q-26 8 -54 8z" />
    <glyph glyph-name="Adieresis" unicode="&#xc4;" horiz-adv-x="1319" 
d="M602 1421h162l563 -1421h-143l-150 387h-725l-149 -387h-135zM680 1303l-318 -797h625zM441 1798h141v-164h-141v164zM762 1798h141v-164h-141v164z" />
    <glyph glyph-name="Aring" unicode="&#xc5;" horiz-adv-x="1319" 
d="M676 1970q102 0 172 -70t70 -171t-70 -170.5t-172 -69.5t-172 69.5t-70 170.5t70 171t172 70zM676 1880q-62 0 -106 -43t-44 -107t43.5 -107.5t106.5 -43.5t106 43.5t43 106.5t-43.5 107t-105.5 44zM602 1421h162l563 -1421h-143l-150 387h-725l-149 -387h-135zM680 1303
l-318 -797h625z" />
    <glyph glyph-name="AE" unicode="&#xc6;" horiz-adv-x="1782" 
d="M1626 1421v-116h-559v-508h528v-119h-528v-555h575v-123h-708v393h-590l-235 -393h-150l881 1421h786zM934 512v793h-31l-487 -793h518z" />
    <glyph glyph-name="Ccedilla" unicode="&#xc7;" horiz-adv-x="1194" 
d="M895 -285q-1 103 -119 103q-52 0 -71 -2l-1 184h24q-262 24 -426 187q-192 191 -193 518q0 327 200 523t537 197q185 0 307 -49v-129q-163 62 -309 62q-276 -1 -434 -163t-158 -440t158 -434q158 -155 434 -155q163 0 301 57v-133q-129 -45 -326 -45q-25 0 -49 1v-108h20
q102 0 160 -44t58 -124q0 -180 -228 -180q-106 0 -252 41v76q146 -35 238 -35q129 0 129 92z" />
    <glyph glyph-name="Egrave" unicode="&#xc8;" horiz-adv-x="1038" 
d="M190 1421h693v-112h-561v-512h530v-119h-530v-555h573v-123h-705v1421zM284 1906h152l209 -348h-92z" />
    <glyph glyph-name="Eacute" unicode="&#xc9;" horiz-adv-x="1038" 
d="M190 1421h693v-112h-561v-512h530v-119h-530v-555h573v-123h-705v1421zM604 1906h152l-269 -348h-92z" />
    <glyph glyph-name="Ecircumflex" unicode="&#xca;" horiz-adv-x="1038" 
d="M190 1421h693v-112h-561v-512h530v-119h-530v-555h573v-123h-705v1421zM444 1906h152l200 -348h-92l-184 262l-184 -262h-92z" />
    <glyph glyph-name="Edieresis" unicode="&#xcb;" horiz-adv-x="1038" 
d="M190 1421h693v-112h-561v-512h530v-119h-530v-555h573v-123h-705v1421zM289 1798h141v-164h-141v164zM610 1798h141v-164h-141v164z" />
    <glyph glyph-name="Igrave" unicode="&#xcc;" horiz-adv-x="512" 
d="M190 1421h132v-1421h-132v1421zM20 1906h152l209 -348h-92z" />
    <glyph glyph-name="Iacute" unicode="&#xcd;" horiz-adv-x="512" 
d="M190 1421h132v-1421h-132v1421zM340 1906h152l-269 -348h-92z" />
    <glyph glyph-name="Icircumflex" unicode="&#xce;" horiz-adv-x="512" 
d="M190 1421h132v-1421h-132v1421zM180 1906h152l200 -348h-92l-184 262l-184 -262h-92z" />
    <glyph glyph-name="Idieresis" unicode="&#xcf;" horiz-adv-x="512" 
d="M190 1421h132v-1421h-132v1421zM25 1798h141v-164h-141v164zM346 1798h141v-164h-141v164z" />
    <glyph glyph-name="Eth" unicode="&#xd0;" horiz-adv-x="1374" 
d="M217 1421h272q384 0 583.5 -179t199.5 -520t-204 -531.5t-566 -190.5h-285v686h-188v105h188v630zM348 1305v-514h354v-105h-354v-563h164q292 0 454 155.5t162 441.5t-154 435.5t-454 149.5h-172z" />
    <glyph glyph-name="Ntilde" unicode="&#xd1;" horiz-adv-x="1397" 
d="M313 1182v-1182h-123v1421h168l695 -1192q15 -23 43 -98q-13 82 -13 127v1163h123v-1421h-159l-705 1202q-25 43 -41 105q12 -98 12 -125zM581 1687q-61 0 -92 -72h-80q45 183 193 183q35 0 55 -9l96 -30q32 -10 56 -10q66 0 96 71h82q-52 -180 -191 -180q-27 0 -65 10
l-96 29q-26 8 -54 8z" />
    <glyph glyph-name="Ograve" unicode="&#xd2;" horiz-adv-x="1470" 
d="M734 1446q286 0 455 -198t169 -537q0 -338 -169 -537t-455 -199q-286 -1 -454 199q-169 200 -169 537t169 536q168 199 454 199zM735 1329q-219 1 -350 -167t-131 -449t131 -449t350 -168t351 168t131 449q1 281 -131 449t-351 167zM499 1906h152l209 -348h-92z" />
    <glyph glyph-name="Oacute" unicode="&#xd3;" horiz-adv-x="1470" 
d="M734 1446q286 0 455 -198t169 -537q0 -338 -169 -537t-455 -199q-286 -1 -454 199q-169 200 -169 537t169 536q168 199 454 199zM735 1329q-219 1 -350 -167t-131 -449t131 -449t350 -168t351 168t131 449q1 281 -131 449t-351 167zM819 1906h152l-269 -348h-92z" />
    <glyph glyph-name="Ocircumflex" unicode="&#xd4;" horiz-adv-x="1470" 
d="M734 1446q286 0 455 -198t169 -537q0 -338 -169 -537t-455 -199q-286 -1 -454 199q-169 200 -169 537t169 536q168 199 454 199zM735 1329q-219 1 -350 -167t-131 -449t131 -449t350 -168t351 168t131 449q1 281 -131 449t-351 167zM659 1906h152l200 -348h-92l-184 262
l-184 -262h-92z" />
    <glyph glyph-name="Otilde" unicode="&#xd5;" horiz-adv-x="1470" 
d="M734 1446q286 0 455 -198t169 -537q0 -338 -169 -537t-455 -199q-286 -1 -454 199q-169 200 -169 537t169 536q168 199 454 199zM735 1329q-219 1 -350 -167t-131 -449t131 -449t350 -168t351 168t131 449q1 281 -131 449t-351 167zM833 1640q-27 0 -65 10l-96 29
q-26 8 -54 8q-61 0 -92 -72h-80q45 183 193 183q35 0 55 -9l96 -30q32 -10 56 -10q66 0 96 71h82q-52 -180 -191 -180z" />
    <glyph glyph-name="Odieresis" unicode="&#xd6;" horiz-adv-x="1470" 
d="M734 1446q286 0 455 -198t169 -537q0 -338 -169 -537t-455 -199q-286 -1 -454 199q-169 200 -169 537t169 536q168 199 454 199zM735 1329q-219 1 -350 -167t-131 -449t131 -449t350 -168t351 168t131 449q1 281 -131 449t-351 167zM504 1798h141v-164h-141v164z
M825 1798h141v-164h-141v164z" />
    <glyph glyph-name="multiply" unicode="&#xd7;" horiz-adv-x="1706" 
d="M854 668l487 487l58 -57l-488 -488l488 -487l-58 -57l-487 487l-487 -487l-58 57l488 487l-488 488l58 57z" />
    <glyph glyph-name="Oslash" unicode="&#xd8;" horiz-adv-x="1470" 
d="M1358 711q0 -339 -168.5 -537.5t-443.5 -198.5t-435 170l-176 -202l-76 67l185 217q-133 193 -133 484q0 337 169 536t455 199q252 0 426 -170l172 199l76 -64l-182 -213q131 -196 131 -487zM252 729q0 -219 88 -395l733 842q-125 153 -339 153t-348 -165.5t-134 -434.5z
M735 96q219 0 350.5 168t131.5 449q0 226 -84 374l-732 -839q55 -72 143 -112t191 -40z" />
    <glyph glyph-name="Ugrave" unicode="&#xd9;" horiz-adv-x="1389" 
d="M1186 598q0 -623 -512 -623q-246 0 -372 151t-126 445v850h131v-839q0 -488 375 -488q190 0 288 130t97 382v815h119v-823zM444 1906h152l209 -348h-92z" />
    <glyph glyph-name="Uacute" unicode="&#xda;" horiz-adv-x="1389" 
d="M1186 598q0 -623 -512 -623q-246 0 -372 151t-126 445v850h131v-839q0 -488 375 -488q190 0 288 130t97 382v815h119v-823zM764 1906h152l-269 -348h-92z" />
    <glyph glyph-name="Ucircumflex" unicode="&#xdb;" horiz-adv-x="1389" 
d="M1186 598q0 -623 -512 -623q-246 0 -372 151t-126 445v850h131v-839q0 -488 375 -488q190 0 288 130t97 382v815h119v-823zM604 1906h152l200 -348h-92l-184 262l-184 -262h-92z" />
    <glyph glyph-name="Udieresis" unicode="&#xdc;" horiz-adv-x="1389" 
d="M1186 598q0 -623 -512 -623q-246 0 -372 151t-126 445v850h131v-839q0 -488 375 -488q190 0 288 130t97 382v815h119v-823zM449 1798h141v-164h-141v164zM770 1798h141v-164h-141v164z" />
    <glyph glyph-name="Yacute" unicode="&#xdd;" horiz-adv-x="1139" 
d="M633 0h-131v604l-527 817h162l432 -700l445 700h147l-528 -813v-608zM653 1906h152l-269 -348h-92z" />
    <glyph glyph-name="Thorn" unicode="&#xde;" horiz-adv-x="1014" 
d="M190 1421h132v-217h165q235 0 358.5 -103t123.5 -297t-133 -303.5t-373 -109.5h-141v-391h-132v1421zM322 1085v-575h141q173 0 267.5 77t94.5 213t-86 210.5t-239 74.5h-178z" />
    <glyph glyph-name="germandbls" unicode="&#xdf;" horiz-adv-x="1151" 
d="M1038 422q0 -192 -118.5 -316t-301.5 -124q-94 0 -192 24v131q76 -41 168 -41q138 0 221.5 92.5t83.5 244.5t-95 232t-274 80h-38v119h10q146 0 235.5 85t89.5 215t-70 201t-194 71q-150 0 -223 -142q-45 -84 -45 -336v-958h-127v1028q0 516 407 516q174 0 278.5 -101
t104.5 -253q0 -296 -270 -363q350 -52 350 -405z" />
    <glyph glyph-name="agrave" unicode="&#xe0;" horiz-adv-x="1022" 
d="M512 1042q350 0 350 -391v-651h-114v176q-115 -190 -340 -190q-148 0 -236 80t-88 213q0 163 136 253t384 91h131l2 34q1 127 -63 199t-176 72q-154 0 -293 -86v125q154 75 307 75zM592 518q-180 0 -276 -60t-97 -160q1 -100 57 -154t148 -54q142 0 226 90t85 244v94
h-143zM276 1503h152l209 -348h-92z" />
    <glyph glyph-name="aacute" unicode="&#xe1;" horiz-adv-x="1022" 
d="M512 1042q350 0 350 -391v-651h-114v176q-115 -190 -340 -190q-148 0 -236 80t-88 213q0 163 136 253t384 91h131l2 34q1 127 -63 199t-176 72q-154 0 -293 -86v125q154 75 307 75zM592 518q-180 0 -276 -60t-97 -160q1 -100 57 -154t148 -54q142 0 226 90t85 244v94
h-143zM596 1503h152l-269 -348h-92z" />
    <glyph glyph-name="acircumflex" unicode="&#xe2;" horiz-adv-x="1022" 
d="M512 1042q350 0 350 -391v-651h-114v176q-115 -190 -340 -190q-148 0 -236 80t-88 213q0 163 136 253t384 91h131l2 34q1 127 -63 199t-176 72q-154 0 -293 -86v125q154 75 307 75zM592 518q-180 0 -276 -60t-97 -160q1 -100 57 -154t148 -54q142 0 226 90t85 244v94
h-143zM436 1503h152l200 -348h-92l-184 262l-184 -262h-92z" />
    <glyph glyph-name="atilde" unicode="&#xe3;" horiz-adv-x="1022" 
d="M512 1042q350 0 350 -391v-651h-114v176q-115 -190 -340 -190q-148 0 -236 80t-88 213q0 163 136 253t384 91h131l2 34q1 127 -63 199t-176 72q-154 0 -293 -86v125q154 75 307 75zM592 518q-180 0 -276 -60t-97 -160q1 -100 57 -154t148 -54q142 0 226 90t85 244v94
h-143zM610 1237q-27 0 -65 10l-96 29q-26 8 -54 8q-61 0 -92 -72h-80q45 183 193 183q35 0 55 -9l96 -30q32 -10 56 -10q66 0 96 71h82q-52 -180 -191 -180z" />
    <glyph glyph-name="adieresis" unicode="&#xe4;" horiz-adv-x="1022" 
d="M512 1042q350 0 350 -391v-651h-114v176q-115 -190 -340 -190q-148 0 -236 80t-88 213q0 163 136 253t384 91h131l2 34q1 127 -63 199t-176 72q-154 0 -293 -86v125q154 75 307 75zM592 518q-180 0 -276 -60t-97 -160q1 -100 57 -154t148 -54q142 0 226 90t85 244v94
h-143zM281 1395h141v-164h-141v164zM602 1395h141v-164h-141v164z" />
    <glyph glyph-name="aring" unicode="&#xe5;" horiz-adv-x="1022" 
d="M512 1591q101 0 171.5 -70t70.5 -171t-70 -170.5t-172 -69.5t-171 69t-69 171t69.5 171.5t170.5 69.5zM512 1499q-64 0 -107 -42.5t-43 -106.5t43.5 -107t106.5 -43t106.5 43.5t43.5 106.5t-43 106t-107 43zM512 1042q350 0 350 -391v-651h-114v176q-115 -190 -340 -190
q-147 0 -235.5 80t-88.5 213q0 163 136 253.5t384 90.5h131l2 34q0 127 -63.5 199t-175.5 72q-154 0 -293 -86v125q154 75 307 75zM592 518q-180 0 -276.5 -60t-96.5 -160t56.5 -154t148.5 -54q142 0 226.5 90t84.5 244v94h-143z" />
    <glyph glyph-name="ae" unicode="&#xe6;" horiz-adv-x="1620" 
d="M1178 1042q181 0 289 -129.5t108 -351.5v-43h-723v-12q0 -201 95.5 -308.5t257.5 -107.5t290 70v-127q-134 -58 -289 -58q-287 0 -415 236q-143 -225 -383 -225q-147 0 -235.5 80t-88.5 213q0 163 136 253.5t384 90.5h131l2 34q0 127 -63.5 199t-175.5 72
q-154 0 -293 -86v125q152 75 307 75q235 0 315 -176q127 176 351 176zM735 518h-143q-180 0 -276.5 -60t-96.5 -160t56.5 -154t148.5 -54q142 0 226.5 90t84.5 244v94zM1165 946q-124 0 -208.5 -89.5t-98.5 -233.5h590q-11 156 -85 239.5t-198 83.5z" />
    <glyph glyph-name="ccedilla" unicode="&#xe7;" horiz-adv-x="909" 
d="M670 -285q0 103 -118 103q-52 0 -72 -2l-1 182q-145 28 -245 133q-136 143 -136 377t143 377t373 143q129 0 236 -39l-10 -129q-98 53 -247 53t-253 -112q-104 -113 -104 -295t98 -291t266 -109q114 0 242 56l12 -127q-119 -47 -262 -47q-24 0 -47 2v-101h20
q103 0 161 -44t57 -124q0 -180 -228 -180q-106 0 -252 41v76q146 -35 238 -35q129 0 129 92z" />
    <glyph glyph-name="egrave" unicode="&#xe8;" horiz-adv-x="991" 
d="M534 936q-126 0 -209 -96t-98 -258h592q-11 170 -85 262t-200 92zM98 508q0 246 124 391t316 145t298 -130q108 -130 108 -353v-74h-721q6 -193 101 -297q96 -104 250 -104q155 0 292 74v-127q-134 -58 -286 -58q-226 0 -354 143q-128 144 -128 390zM296 1503h152
l209 -348h-92z" />
    <glyph glyph-name="eacute" unicode="&#xe9;" horiz-adv-x="991" 
d="M534 936q-126 0 -209 -96t-98 -258h592q-11 170 -85 262t-200 92zM98 508q0 246 124 391t316 145t298 -130q108 -130 108 -353v-74h-721q6 -193 101 -297q96 -104 250 -104q155 0 292 74v-127q-134 -58 -286 -58q-226 0 -354 143q-128 144 -128 390zM616 1503h152
l-269 -348h-92z" />
    <glyph glyph-name="ecircumflex" unicode="&#xea;" horiz-adv-x="991" 
d="M534 936q-126 0 -209 -96t-98 -258h592q-11 170 -85 262t-200 92zM98 508q0 246 124 391t316 145t298 -130q108 -130 108 -353v-74h-721q6 -193 101 -297q96 -104 250 -104q155 0 292 74v-127q-134 -58 -286 -58q-226 0 -354 143q-128 144 -128 390zM456 1503h152
l200 -348h-92l-184 262l-184 -262h-92z" />
    <glyph glyph-name="edieresis" unicode="&#xeb;" horiz-adv-x="991" 
d="M534 936q-126 0 -209 -96t-98 -258h592q-11 170 -85 262t-200 92zM98 508q0 246 124 391t316 145t298 -130q108 -130 108 -353v-74h-721q6 -193 101 -297q96 -104 250 -104q155 0 292 74v-127q-134 -58 -286 -58q-226 0 -354 143q-128 144 -128 390zM301 1395h141v-164
h-141v164zM622 1395h141v-164h-141v164z" />
    <glyph glyph-name="igrave" unicode="&#xec;" horiz-adv-x="465" 
d="M168 1020h129v-1020h-129v1020zM-3 1503h152l209 -348h-92z" />
    <glyph glyph-name="iacute" unicode="&#xed;" horiz-adv-x="465" 
d="M168 1020h129v-1020h-129v1020zM317 1503h152l-269 -348h-92z" />
    <glyph glyph-name="icircumflex" unicode="&#xee;" horiz-adv-x="465" 
d="M168 1020h129v-1020h-129v1020zM157 1503h152l200 -348h-92l-184 262l-184 -262h-92z" />
    <glyph glyph-name="idieresis" unicode="&#xef;" horiz-adv-x="465" 
d="M168 1020h129v-1020h-129v1020zM2 1395h141v-164h-141v164zM323 1395h141v-164h-141v164z" />
    <glyph glyph-name="eth" unicode="&#xf0;" horiz-adv-x="1143" 
d="M1044 494q0 -233 -130 -376t-344 -143t-343 145.5t-129 389.5t128.5 388t344.5 144q98 0 174 -34q-63 111 -161 239l-234 -127l-43 76l219 117q-66 91 -200 219h161q71 -78 146 -166l237 127l43 -74l-225 -123q356 -448 356 -802zM573 934q-152 0 -244.5 -116t-92.5 -306
t93 -306t245 -116t243.5 115t91.5 307t-92 307t-244 115z" />
    <glyph glyph-name="ntilde" unicode="&#xf1;" horiz-adv-x="1143" 
d="M647 1042q165 0 251 -108t87 -311v-623h-129v592q0 172 -60 253t-193 81q-134 0 -214 -104t-80 -292v-530h-129v1020h119v-193q111 215 348 215zM690 1237q-27 0 -65 10l-96 29q-26 8 -54 8q-61 0 -92 -72h-80q45 183 193 183q35 0 55 -9l96 -30q32 -10 56 -10
q66 0 96 71h82q-52 -180 -191 -180z" />
    <glyph glyph-name="ograve" unicode="&#xf2;" horiz-adv-x="1143" 
d="M572 1042q216 0 344 -144t128 -388q0 -245 -128 -390t-344 -145t-345 145q-129 146 -129 390t128 388q130 144 346 144zM573 934q-153 0 -245 -116t-92 -306t93 -306t245 -116t243 115q92 115 92 307t-92 308q-92 114 -244 114zM335 1503h152l209 -348h-92z" />
    <glyph glyph-name="oacute" unicode="&#xf3;" horiz-adv-x="1143" 
d="M572 1042q216 0 344 -144t128 -388q0 -245 -128 -390t-344 -145t-345 145q-129 146 -129 390t128 388q130 144 346 144zM573 934q-153 0 -245 -116t-92 -306t93 -306t245 -116t243 115q92 115 92 307t-92 308q-92 114 -244 114zM655 1503h152l-269 -348h-92z" />
    <glyph glyph-name="ocircumflex" unicode="&#xf4;" horiz-adv-x="1143" 
d="M572 1042q216 0 344 -144t128 -388q0 -245 -128 -390t-344 -145t-345 145q-129 146 -129 390t128 388q130 144 346 144zM573 934q-153 0 -245 -116t-92 -306t93 -306t245 -116t243 115q92 115 92 307t-92 308q-92 114 -244 114zM495 1503h152l200 -348h-92l-184 262
l-184 -262h-92z" />
    <glyph glyph-name="otilde" unicode="&#xf5;" horiz-adv-x="1143" 
d="M572 1042q216 0 344 -144t128 -388q0 -245 -128 -390t-344 -145t-345 145q-129 146 -129 390t128 388q130 144 346 144zM573 934q-153 0 -245 -116t-92 -306t93 -306t245 -116t243 115q92 115 92 307t-92 308q-92 114 -244 114zM669 1237q-27 0 -65 10l-96 29
q-26 8 -54 8q-61 0 -92 -72h-80q45 183 193 183q35 0 55 -9l96 -30q32 -10 56 -10q66 0 96 71h82q-52 -180 -191 -180z" />
    <glyph glyph-name="odieresis" unicode="&#xf6;" horiz-adv-x="1143" 
d="M572 1042q216 0 344 -144t128 -388q0 -245 -128 -390t-344 -145t-345 145q-129 146 -129 390t128 388q130 144 346 144zM573 934q-153 0 -245 -116t-92 -306t93 -306t245 -116t243 115q92 115 92 307t-92 308q-92 114 -244 114zM340 1395h141v-164h-141v164zM661 1395
h141v-164h-141v164z" />
    <glyph glyph-name="divide" unicode="&#xf7;" horiz-adv-x="1706" 
d="M854 1055q41 0 69.5 -28.5t28.5 -69.5t-28.5 -71t-69.5 -30t-69.5 29.5t-28.5 70.5t28.5 70t69.5 29zM1452 651v-82h-1198v82h1198zM854 365q40 0 69 -29.5t29 -70.5t-28.5 -70t-69.5 -29t-69.5 28.5t-28.5 69.5t29 71t69 30z" />
    <glyph glyph-name="oslash" unicode="&#xf8;" horiz-adv-x="1143" 
d="M1044 498q0 -234 -128.5 -378.5t-328.5 -144.5t-319 107l-143 -170l-74 63l150 177q-103 141 -103 371q0 231 128.5 375t344.5 144q180 0 306 -104l143 168l74 -62l-152 -178q102 -134 102 -368zM562 934q-142 0 -234 -115.5t-92 -306.5q0 -140 57 -252l502 584
q-91 90 -233 90zM817 205q92 115 92 285t-55 274l-500 -584q82 -90 226 -90q145 0 237 115z" />
    <glyph glyph-name="ugrave" unicode="&#xf9;" horiz-adv-x="1143" 
d="M158 406v614h127v-584q-1 -172 59 -253t196 -81t214 112t77 321v485h130v-1020h-119v201q-111 -215 -348 -215q-164 0 -250 106t-86 314zM335 1503h152l209 -348h-92z" />
    <glyph glyph-name="uacute" unicode="&#xfa;" horiz-adv-x="1143" 
d="M158 406v614h127v-584q-1 -172 59 -253t196 -81t214 112t77 321v485h130v-1020h-119v201q-111 -215 -348 -215q-164 0 -250 106t-86 314zM655 1503h152l-269 -348h-92z" />
    <glyph glyph-name="ucircumflex" unicode="&#xfb;" horiz-adv-x="1143" 
d="M158 406v614h127v-584q-1 -172 59 -253t196 -81t214 112t77 321v485h130v-1020h-119v201q-111 -215 -348 -215q-164 0 -250 106t-86 314zM495 1503h152l200 -348h-92l-184 262l-184 -262h-92z" />
    <glyph glyph-name="udieresis" unicode="&#xfc;" horiz-adv-x="1143" 
d="M158 406v614h127v-584q-1 -172 59 -253t196 -81t214 112t77 321v485h130v-1020h-119v201q-111 -215 -348 -215q-164 0 -250 106t-86 314zM340 1395h141v-164h-141v164zM661 1395h141v-164h-141v164z" />
    <glyph glyph-name="yacute" unicode="&#xfd;" horiz-adv-x="883" 
d="M178 -444q-50 0 -104 12l10 115q2 -1 35 -6t49 -5q73 0 122 61t103 226l-368 1061h137l295 -885l297 885h129l-408 -1172q-55 -156 -124 -224t-173 -68zM526 1503h152l-269 -348h-92z" />
    <glyph glyph-name="thorn" unicode="&#xfe;" horiz-adv-x="1155" 
d="M626 -12q-205 0 -317 186v-602h-129v1954h129v-688q120 204 342 204q187 0 298.5 -140t111.5 -382t-115 -387t-320 -145zM922 517q0 195 -79 305t-219 110t-227.5 -113t-87.5 -307t83.5 -307t225.5 -113t223 115t81 310z" />
    <glyph glyph-name="ydieresis" unicode="&#xff;" horiz-adv-x="883" 
d="M178 -444q-50 0 -104 12l10 115q2 -1 35 -6t49 -5q73 0 122 61t103 226l-368 1061h137l295 -885l297 885h129l-408 -1172q-55 -156 -124 -224t-173 -68zM211 1395h141v-164h-141v164zM532 1395h141v-164h-141v164z" />
    <glyph glyph-name="Cacute" unicode="&#x106;" horiz-adv-x="1194" 
d="M844 1309q-276 -1 -434 -163t-158 -440t158 -434q158 -155 434 -155q163 0 301 57v-133q-129 -45 -326 -45q-325 0 -517 191t-193 518q0 327 200 523t537 197q185 0 307 -49v-129q-163 62 -309 62zM868 1906h152l-269 -348h-92z" />
    <glyph glyph-name="cacute" unicode="&#x107;" horiz-adv-x="909" 
d="M236 506q0 -182 98 -291t266 -109q114 0 242 56l12 -127q-119 -47 -262 -47q-222 0 -358 143t-136 377t143 377t373 143q129 0 236 -39l-10 -129q-98 53 -247 53t-253 -112q-104 -113 -104 -295zM641 1503h152l-269 -348h-92z" />
    <glyph glyph-name="Ccaron" unicode="&#x10c;" horiz-adv-x="1194" 
d="M844 1309q-276 -1 -434 -163t-158 -440t158 -434q158 -155 434 -155q163 0 301 57v-133q-129 -45 -326 -45q-325 0 -517 191t-193 518q0 327 200 523t537 197q185 0 307 -49v-129q-163 62 -309 62zM508 1906h92l184 -262l184 262h92l-200 -348h-152z" />
    <glyph glyph-name="ccaron" unicode="&#x10d;" horiz-adv-x="909" 
d="M236 506q0 -182 98 -291t266 -109q114 0 242 56l12 -127q-119 -47 -262 -47q-222 0 -358 143t-136 377t143 377t373 143q129 0 236 -39l-10 -129q-98 53 -247 53t-253 -112q-104 -113 -104 -295zM281 1503h92l184 -262l184 262h92l-200 -348h-152z" />
    <glyph glyph-name="dcroat" unicode="&#x111;" horiz-adv-x="1184" 
d="M96 522q0 236 115 378t305 142q105 0 190 -49.5t138 -142.5v383h-320v94h320v199h129v-199h182v-94h-182v-1233h-119v209q-116 -223 -352 -223q-177 0 -291.5 150t-114.5 386zM536 936q-140 0 -220 -112.5t-80 -307.5t79 -307.5t217 -112.5t225 114.5t87 307.5t-84 305.5
t-224 112.5z" />
    <glyph glyph-name="Gbreve" unicode="&#x11e;" horiz-adv-x="1407" 
d="M836 1313q-266 0 -424 -162t-158 -438q0 -275 164 -441t444 -166q148 0 262 52v491h-325v115h458v-694q-188 -76 -407 -76q-281 0 -463 135q-134 99 -205 249t-71 304q-1 154 33 264t104 209q87 127 243 199t353 73q197 0 370 -69l-26 -123q-160 78 -352 78zM706 1716
q94 0 140 35t52 112l81 -2q-9 -136 -75 -199t-198 -63q-134 0 -200 64t-75 200h79q7 -75 54 -111q48 -36 142 -36z" />
    <glyph glyph-name="gbreve" unicode="&#x11f;" horiz-adv-x="1151" 
d="M526 1042q237 0 338 -213v191h117v-911q0 -560 -461 -560q-181 0 -325 60l10 137q150 -82 312 -82q161 0 253 110t92 310v133q-117 -221 -340 -221q-188 0 -302 144t-114 382t114 379t306 141zM544 938q-140 0 -220 -111t-80 -303t80 -306q80 -112 218 -112t224 113
t86 305t-84 302q-84 112 -224 112zM576 1313q94 0 140 35t52 112l81 -2q-9 -136 -75 -199t-198 -63q-134 0 -200 64t-75 200h79q7 -76 54 -112q48 -36 142 -35z" />
    <glyph glyph-name="Idotaccent" unicode="&#x130;" horiz-adv-x="512" 
d="M190 1421h132v-1421h-132v1421zM180 1804h152v-174h-152v174z" />
    <glyph glyph-name="dotlessi" unicode="&#x131;" horiz-adv-x="465" 
d="M168 1020h129v-1020h-129v1020z" />
    <glyph glyph-name="Lslash" unicode="&#x141;" horiz-adv-x="915" 
d="M217 1421h131v-567l287 199v-127l-287 -199v-604h570v-123h-701v666l-188 -131v127l188 131v628z" />
    <glyph glyph-name="lslash" unicode="&#x142;" horiz-adv-x="541" 
d="M207 1526h127v-660l168 117v-111l-168 -118v-754h-127v694l-168 -116v110l168 119v719z" />
    <glyph glyph-name="OE" unicode="&#x152;" horiz-adv-x="1821" 
d="M1665 1421v-112h-561v-512h530v-119h-530v-555h573v-123h-702l-264 -8q-283 0 -441.5 191t-158.5 527t159.5 529t438.5 193l266 -11h690zM770 1317q-254 0 -385 -153.5t-131 -446.5t126.5 -450.5t358.5 -157.5q92 0 234 10v1190q-106 8 -203 8z" />
    <glyph glyph-name="oe" unicode="&#x153;" horiz-adv-x="1802" 
d="M1757 561v-74h-721q6 -193 101 -295t253 -102t287 70v-127q-134 -58 -286 -58q-297 0 -414 236q-136 -236 -406 -236q-215 0 -344 145.5t-129 389.5t128.5 388t344.5 144q138 0 242 -59t162 -170q131 229 385 229q182 0 289.5 -129.5t107.5 -351.5zM1348 934
q-124 0 -209 -97.5t-99 -254.5h592q-10 170 -85 261t-199 91zM236 513q0 -190 93 -306.5t245 -116.5t243.5 115t91.5 307t-92.5 307t-244.5 115t-244 -115.5t-92 -305.5z" />
    <glyph glyph-name="Scedilla" unicode="&#x15e;" horiz-adv-x="1020" 
d="M635 -285q-1 103 -119 103q-52 0 -71 -2l-1 174q-162 2 -313 65l16 148q170 -92 311 -92q140 0 225 72t85 192q0 144 -258 292t-319 229q-62 82 -62 189q-1 163 117 255t332 92q126 0 270 -48l-19 -133q-120 62 -260 62q-141 0 -223 -59t-82 -162q0 -130 278 -289
q243 -134 305 -219q62 -84 62 -197q0 -177 -117 -279t-282 -116v-103h20q102 0 160 -44t58 -124q0 -180 -228 -180q-106 0 -252 41v76q146 -35 238 -35q129 0 129 92z" />
    <glyph glyph-name="scedilla" unicode="&#x15f;" horiz-adv-x="799" 
d="M524 -285q0 103 -118 103q-51 0 -72 -2l-1 172q-138 4 -241 49v121q130 -64 250 -64t186 50q68 50 68 120q0 72 -40 116t-196 118t-209 136q-53 60 -53 158t92 170q92 70 237 70t255 -35v-120q-116 51 -225 51t-167 -41t-59 -107q0 -95 227 -196q155 -72 214 -140
t59 -163q0 -134 -95 -209t-237 -83v-100h20q103 0 161 -44t57 -124q0 -180 -228 -180q-106 0 -252 41v76q146 -35 238 -35q129 0 129 92z" />
    <glyph glyph-name="Scaron" unicode="&#x160;" horiz-adv-x="1020" 
d="M264 1092q0 -130 278 -289q243 -134 305 -219q62 -84 62 -197q1 -177 -125 -287t-311 -110t-342 65l16 148q170 -92 311 -92q140 0 225 72t85 192q0 144 -258 292t-319 229q-62 82 -62 189q-1 163 117 255t332 92q126 0 270 -48l-19 -133q-120 62 -260 62
q-141 0 -223 -59t-82 -162zM234 1906h92l184 -262l184 262h92l-200 -348h-152z" />
    <glyph glyph-name="scaron" unicode="&#x161;" horiz-adv-x="799" 
d="M231 780q0 -95 227 -196q155 -72 214 -140t59 -163q-1 -133 -101 -213t-262 -80t-276 49v121q130 -64 250 -64t186 50q68 50 68 120q0 72 -40 116t-196 118t-209 136q-53 60 -53 158t92 170q92 70 237 70t255 -35v-120q-116 51 -225 51t-167 -41t-59 -107zM123 1503h92
l184 -262l184 262h92l-200 -348h-152z" />
    <glyph glyph-name="Ydieresis" unicode="&#x178;" horiz-adv-x="1139" 
d="M633 0h-131v604l-527 817h162l432 -700l445 700h147l-528 -813v-608zM338 1798h141v-164h-141v164zM659 1798h141v-164h-141v164z" />
    <glyph glyph-name="Zcaron" unicode="&#x17d;" horiz-adv-x="1042" 
d="M78 1421h862v-131l-743 -1167h761v-123h-901v137l744 1168h-723v116zM246 1906h92l184 -262l184 262h92l-200 -348h-152z" />
    <glyph glyph-name="zcaron" unicode="&#x17e;" horiz-adv-x="934" 
d="M102 1020h732v-117l-613 -794h613v-109h-760v113l610 796h-582v111zM191 1503h92l184 -262l184 262h92l-200 -348h-152z" />
    <glyph glyph-name="florin" unicode="&#x192;" horiz-adv-x="1147" 
d="M910 1372q-135 0 -189 -278l-43 -213h231v-105h-254l-145 -729q-51 -250 -140 -363.5t-233 -113.5q-44 0 -112 16l33 123q75 -16 104 -16q78 0 125.5 71.5t85.5 253.5l153 758h-231v105h252l41 204q80 392 334 392q62 0 145 -31l-31 -109q-63 35 -126 35z" />
    <glyph glyph-name="circumflex" unicode="&#x2c6;" 
d="M436 1503h152l200 -348h-92l-184 262l-184 -262h-92z" />
    <glyph glyph-name="caron" unicode="&#x2c7;" 
d="M236 1503h92l184 -262l184 262h92l-200 -348h-152z" />
    <glyph glyph-name="breve" unicode="&#x2d8;" 
d="M512 1313q94 0 140 35t53 112l81 -2q-9 -136 -74.5 -199t-199.5 -63t-199.5 64t-74.5 200h79q7 -76 54 -111.5t141 -35.5z" />
    <glyph glyph-name="dotaccent" unicode="&#x2d9;" 
d="M436 1401h152v-174h-152v174z" />
    <glyph glyph-name="ring" unicode="&#x2da;" 
d="M512 1616q102 0 172 -69.5t70 -170.5t-70.5 -171t-171.5 -70t-170.5 69.5t-69.5 171.5t69 171t171 69zM512 1526q-64 0 -107 -43t-43 -107t43.5 -107.5t106.5 -43.5t106.5 44t43.5 107t-43 106.5t-107 43.5z" />
    <glyph glyph-name="ogonek" unicode="&#x2db;" 
d="M426 -240q0 -43 25 -62.5t84 -19.5h75v-104h-73q-211 0 -211 156q0 132 184 270h59q-143 -125 -143 -240z" />
    <glyph glyph-name="tilde" unicode="&#x2dc;" 
d="M610 1237q-27 0 -65 10l-96 29q-26 8 -54 8q-61 0 -92 -72h-80q45 183 193 183q35 0 55 -9l96 -30q32 -10 56 -10q66 0 96 71h82q-52 -180 -191 -180z" />
    <glyph glyph-name="hungarumlaut" unicode="&#x2dd;" 
d="M485 1503h133l-208 -348h-74zM739 1503h133l-227 -348h-74z" />
    <glyph glyph-name="Omega" unicode="&#x3a9;" horiz-adv-x="1585" 
d="M1456 786q0 -405 -360 -665h356v-121h-573v102q438 273 438 684q0 269 -146.5 438t-377.5 169t-378 -169t-147 -438q0 -411 439 -684v-102h-572v121h354q-360 260 -360 665q0 317 188.5 522t474.5 205t475 -205t189 -522z" />
    <glyph glyph-name="pi" unicode="&#x3c0;" horiz-adv-x="1155" 
d="M772 205q0 -107 92 -107q68 0 109 10l-25 -108q-52 -16 -96 -16q-92 0 -145.5 54t-53.5 147t56 352l88 421h-381l-203 -958h-121l201 958h-39q-55 0 -85.5 -32t-41.5 -101h-121q25 135 85 186.5t206 51.5h829l-24 -105h-182l-119 -565q-29 -129 -29 -188z" />
    <glyph glyph-name="endash" unicode="&#x2013;" 
d="M0 592h1024v-86h-1024v86z" />
    <glyph glyph-name="emdash" unicode="&#x2014;" horiz-adv-x="2048" 
d="M0 592h2048v-86h-2048v86z" />
    <glyph glyph-name="quoteleft" unicode="&#x2018;" horiz-adv-x="573" 
d="M303 1421h129l-125 -442h-157z" />
    <glyph glyph-name="quoteright" unicode="&#x2019;" horiz-adv-x="573" 
d="M272 1421h160l-156 -442h-126z" />
    <glyph glyph-name="quotesinglbase" unicode="&#x201a;" horiz-adv-x="573" 
d="M242 178h157l-153 -444h-129z" />
    <glyph glyph-name="quotedblleft" unicode="&#x201c;" horiz-adv-x="948" 
d="M303 1421h129l-125 -442h-157zM678 1421h129l-125 -442h-158z" />
    <glyph glyph-name="quotedblright" unicode="&#x201d;" horiz-adv-x="948" 
d="M272 1421h160l-156 -442h-126zM647 1421h160l-156 -442h-127z" />
    <glyph glyph-name="quotedblbase" unicode="&#x201e;" horiz-adv-x="948" 
d="M242 178h157l-153 -444h-129zM614 178h160l-153 -444h-129z" />
    <glyph glyph-name="dagger" unicode="&#x2020;" 
d="M449 1446h120v-428h373v-107h-373v-1153h-120v1153h-367v107h367v428z" />
    <glyph glyph-name="daggerdbl" unicode="&#x2021;" 
d="M446 1446h121v-428h387v-107h-387v-616h387v-107h-387v-430h-121v430h-376v107h376v616h-376v107h376v428z" />
    <glyph glyph-name="bullet" unicode="&#x2022;" horiz-adv-x="1208" 
d="M307 762q0 123 87.5 209t209.5 86t208.5 -86.5t86.5 -208.5t-87.5 -209.5t-209.5 -87.5t-208.5 87t-86.5 210z" />
    <glyph glyph-name="ellipsis" unicode="&#x2026;" horiz-adv-x="2048" 
d="M258 180h166v-180h-166v180zM940 180h166v-180h-166v180zM1624 180h166v-180h-166v180z" />
    <glyph glyph-name="perthousand" unicode="&#x2030;" horiz-adv-x="2509" 
d="M399 1446q147 0 233.5 -101t86.5 -272t-86.5 -272t-233.5 -101t-234 101t-87 273t87 272t234 100zM1190 1446h110l-755 -1471h-111zM402 1346q-87 0 -141 -75t-54 -196t54 -195.5t141 -74.5t140.5 74.5t53.5 196.5t-53.5 196t-140.5 74zM1334 723q146 0 233.5 -101.5
t87.5 -273.5t-86.5 -272.5t-233.5 -100.5t-234 100.5t-87 272.5t87 273.5t233 101.5zM2126 723q146 0 233.5 -102t87.5 -273t-87 -272t-234 -101t-234.5 100.5t-87.5 272.5t88 273.5t234 101.5zM1338 623q-86 0 -141.5 -76t-55.5 -197t54.5 -195.5t141.5 -74.5t140 73
t53 197t-53 198.5t-139 74.5zM2128 623q-87 0 -141 -75.5t-54 -197.5t54 -196t141 -74t140.5 74t53.5 197t-53.5 197.5t-140.5 74.5z" />
    <glyph glyph-name="guilsinglleft" unicode="&#x2039;" horiz-adv-x="555" 
d="M362 948h121l-274 -418l274 -417h-121l-280 417z" />
    <glyph glyph-name="guilsinglright" unicode="&#x203a;" horiz-adv-x="555" 
d="M72 948h121l280 -418l-280 -417h-121l274 417z" />
    <glyph glyph-name="franc" unicode="&#x20a3;" horiz-adv-x="1597" 
d="M190 1421h662v-112h-530v-512h507v-119h-507v-678h-132v1421zM1499 907q-129 0 -202 -97t-73 -269v-541h-129v1020h119v-215q38 109 114 169t177 60q25 0 65 -6v-131q-44 10 -71 10z" />
    <glyph glyph-name="trademark" unicode="&#x2122;" horiz-adv-x="1706" 
d="M694 1454v-51h-174v-479h-67v479h-179v51h420zM1364 1454v-530h-59v479l-181 -479h-49l-190 479v-479h-60v530h101l174 -440l162 440h102z" />
    <glyph glyph-name="partialdiff" unicode="&#x2202;" 
d="M713 459q0 256 -185 256q-117 0 -190.5 -125t-73.5 -330q0 -117 47.5 -179.5t137.5 -62.5q114 0 189 125.5t75 315.5zM772 883q0 354 -154 354q-45 0 -99.5 -73.5t-108.5 -73.5q-29 0 -48.5 18.5t-19.5 46.5q0 59 61 102t148 43q160 0 254 -147t94 -401
q0 -335 -131.5 -557t-323.5 -222q-139 0 -224 105t-85 279t107 297.5t258 123.5q191 0 250 -200q22 138 22 305z" />
    <glyph glyph-name="Delta" unicode="&#x2206;" horiz-adv-x="1335" 
d="M754 1473l592 -1473h-1358l594 1473h172zM1155 121l-487 1233l-490 -1233h977z" />
    <glyph glyph-name="product" unicode="&#x220f;" horiz-adv-x="1491" 
d="M164 1473h1163v-1866h-135v1743h-893v-1743h-135v1866z" />
    <glyph glyph-name="summation" unicode="&#x2211;" horiz-adv-x="1290" 
d="M45 1473h1208v-123h-1038l721 -787l-760 -835h1077v-121h-1243v127l752 829l-717 787v123z" />
    <glyph glyph-name="minus" unicode="&#x2212;" horiz-adv-x="1706" 
d="M1452 651v-82h-1198v82h1198z" />
    <glyph glyph-name="fraction" unicode="&#x2215;" horiz-adv-x="342" 
d="M496 1446h108l-756 -1471h-110z" />
    <glyph glyph-name="periodcentered" unicode="&#x2219;" horiz-adv-x="573" 
d="M286 803q40 0 66.5 -26.5t26.5 -65.5t-27 -66t-65 -27t-65 28t-27 66t25.5 64.5t65.5 26.5z" />
    <glyph glyph-name="radical" unicode="&#x221a;" horiz-adv-x="1264" 
d="M1264 1626v-61h-129l-596 -1606h-31l-330 907l-110 -39l-15 50l230 79l278 -759l531 1429h172z" />
    <glyph glyph-name="infinity" unicode="&#x221e;" horiz-adv-x="1706" 
d="M1159 987q130 0 219.5 -106t89.5 -268t-80 -263.5t-210 -101.5q-94 0 -165.5 60.5t-142.5 201.5q-71 -139 -148.5 -203.5t-172.5 -64.5q-130 0 -220.5 106t-90.5 268t80 263.5t210 101.5q98 0 172.5 -64.5t135.5 -203.5q130 274 323 274zM532 874q-108 0 -176.5 -77
t-68.5 -197t63.5 -197t155.5 -77t162 76t151 268q-104 204 -287 204zM1421 628q0 120 -63.5 197.5t-155.5 77.5t-162 -77.5t-151 -268.5q107 -205 287 -205q107 0 176 78t69 198z" />
    <glyph glyph-name="integral" unicode="&#x222b;" horiz-adv-x="948" 
d="M401 565q0 511 86.5 746t268.5 235q65 0 106 -35t41 -85t-27.5 -76.5t-74.5 -26.5q-77 0 -101.5 64.5t-33.5 64.5q-67 0 -93 -159t-26 -677t-85.5 -752.5t-268.5 -234.5q-64 0 -106 34.5t-42 83.5t28.5 78.5t68.5 29.5q101 0 111 -65.5t30 -65.5q66 0 92 165t26 676z" />
    <glyph glyph-name="approxequal" unicode="&#x2248;" horiz-adv-x="1706" 
d="M1143 664q-106 0 -295.5 69.5t-277.5 69.5t-176 -35.5t-216 -124.5v92q209 148 387 148q106 0 295.5 -71t276.5 -71t174.5 36t218.5 126v-94q-209 -145 -387 -145zM570 479q-88 0 -176 -35.5t-216 -124.5v93q209 145 387 145q106 0 295.5 -69.5t277.5 -69.5t176 35.5
t216 124.5v-93q-211 -147 -387 -147q-106 0 -295.5 70.5t-277.5 70.5z" />
    <glyph glyph-name="notequal" unicode="&#x2260;" horiz-adv-x="1706" 
d="M1452 831v-79h-440l-219 -283h659v-82h-711l-254 -324l-61 48l215 276h-387v82h436l221 283h-657v79h709l254 326l63 -49l-217 -277h389z" />
    <glyph glyph-name="lessequal" unicode="&#x2264;" horiz-adv-x="1706" 
d="M1442 1083l-1043 -350l1043 -352v-88l-1178 405v70l1178 403v-88zM1442 129v-80h-1178v80h1178z" />
    <glyph glyph-name="greaterequal" unicode="&#x2265;" horiz-adv-x="1706" 
d="M1442 768v-70l-1178 -405v88l1043 352l-1043 350v88zM1442 129v-80h-1178v80h1178z" />
    <glyph glyph-name="lozenge" unicode="&#x25ca;" horiz-adv-x="1012" 
d="M506 1653l500 -1061l-500 -1069l-500 1069zM506 1409l-385 -817l385 -825l385 825z" />
    <glyph glyph-name="apple" unicode="&#xf000;" horiz-adv-x="1618" 
d="M1272 741q0 -113 60 -200t173 -138q-114 -247 -205 -342.5t-204 -95.5q-50 0 -131.5 33t-124.5 33t-129.5 -33t-138.5 -33t-116 44t-148 158t-139.5 269.5t-55.5 300.5q0 219 125 356.5t323 137.5q68 0 154.5 -34t122.5 -34t123 35t175 35q194 0 337 -164
q-201 -128 -201 -328zM834 1253q0 124 95 229.5t236 131.5q2 -20 2 -62q0 -131 -103.5 -234.5t-203.5 -103.5h-8l-16 2q-2 12 -2 37z" />
    <glyph glyph-name="fi" unicode="&#xf001;" horiz-adv-x="1126" 
d="M553 1434q-84 0 -123 -56t-39 -176v-182h236v-105h-236v-915h-127v915h-213v105h213v184q0 342 287 342q43 0 104 -14v-119q-63 21 -102 21zM819 1497h148v-166h-148v166zM829 1020h129v-1020h-129v1020z" />
    <glyph glyph-name="fl" unicode="&#xf002;" horiz-adv-x="1126" 
d="M553 1434q-84 0 -123 -56t-39 -176v-182h236v-105h-236v-915h-127v915h-213v105h213v184q0 342 287 342q43 0 104 -14v-119q-63 21 -102 21zM829 1526h129v-1526h-129v1526z" />
    </font>
</defs>
</svg>
