<?xml version="1.0" standalone="no"?>
<!DOCTYPE svg PUBLIC "-//W3C//DTD SVG 1.1//EN" "http://www.w3.org/Graphics/SVG/1.1/DTD/svg11.dtd" >
<svg xmlns="http://www.w3.org/2000/svg">
<metadata>
Created by FontPrep 20130207 at Tue Apr  8 22:49:21 2014
 By thulioph
(c) 2011 Bernd Montag
</metadata>
<defs>
<font id="f5c47e3612f7943e844179f5bdfca157" horiz-adv-x='1024' >
  <font-face 
    font-family="SansationRegular"
    font-weight="400"
    font-stretch="normal"
    units-per-em="2048"
    panose-1="2 0 0 0 0 0 0 0 0 0"
    ascent="1638"
    descent="-410"
    x-height="1050"
    cap-height="1430"
    bbox="-160 -434 2442 1854"
    underline-thickness="150"
    underline-position="-89"
    unicode-range="U+0020-FB02"
  />
<missing-glyph horiz-adv-x="1124" 
d="M82 32h960v1216h-960v-1216zM50 0v1280h1024v-1280h-1024z" />
    <glyph glyph-name="ffi" unicode="ffi" horiz-adv-x="1778" 
d="M1608 1050v-1050h-185v910h-451v-910h-185v910h-452v-910h-185v1111q0 381 382 381q89 0 174 -40v-150q-79 40 -175 40q-196 0 -196 -213v-79h452v51q0 401 442 401q139 0 294 -60v-150q-149 60 -295 60q-256 0 -256 -233v-69h636z" />
    <glyph glyph-name="ffl" unicode="ffl" horiz-adv-x="1821" 
d="M787 910h-452v-910h-185v1111q0 381 382 381q89 0 174 -40v-150q-79 40 -175 40q-196 0 -196 -213v-79h452v51q0 401 492 401q179 0 382 -72v-1430h-185v1333q-110 19 -198 19q-306 0 -306 -243v-59h315v-140h-315v-910h-185v910z" />
    <glyph glyph-name="ff" unicode="ff" horiz-adv-x="1268" 
d="M787 910h-452v-910h-185v1101q0 381 382 381q89 0 174 -40v-150q-79 40 -175 40q-196 0 -196 -213v-69h452v61q0 381 412 381q119 0 214 -40v-150q-89 40 -215 40q-226 0 -226 -223v-69h315v-140h-315v-910h-185v910z" />
    <glyph glyph-name="fj" unicode="fj" horiz-adv-x="1131" 
d="M776 910h-441v-910h-185v1101q0 401 442 401q139 0 294 -60v-150q-149 60 -295 60q-256 0 -256 -233v-69h626v-970q0 -318 -155 -478l-155 105q125 135 125 373v830z" />
    <glyph glyph-name="ffj" unicode="ffj" horiz-adv-x="1778" 
d="M787 1050v51q0 401 442 401q139 0 294 -60v-150q-149 60 -295 60q-256 0 -256 -233v-69h636v-970q0 -318 -155 -478l-155 105q125 135 125 373v830h-451v-910h-185v910h-452v-910h-185v1111q0 381 382 381q89 0 174 -40v-150q-79 40 -175 40q-196 0 -196 -213v-79h452z
" />
    <glyph glyph-name="fb" unicode="fb" horiz-adv-x="1877" 
d="M641 1352q-306 0 -306 -243v-59h315v-150h-315v-900h-185v1101q0 401 492 401q179 0 382 -72v-430q119 50 255 50q498 0 498 -504q0 -546 -523 -546q-226 0 -415 43v1290q-110 19 -198 19zM1245 154q350 0 350 399q0 337 -317 337q-144 0 -254 -54v-653q91 -29 221 -29z
" />
    <glyph glyph-name="ffb" unicode="ffb" horiz-adv-x="2514" 
d="M787 910h-452v-910h-185v1111q0 381 382 381q89 0 174 -40v-150q-79 40 -175 40q-196 0 -196 -213v-79h452v51q0 401 492 401q179 0 382 -72v-430q119 50 255 50q498 0 498 -504q0 -546 -523 -546q-226 0 -415 43v1290q-110 19 -198 19q-306 0 -306 -243v-59h315v-140
h-315v-910h-185v910zM1882 154q350 0 350 399q0 337 -317 337q-144 0 -254 -54v-653q91 -29 221 -29z" />
    <glyph glyph-name="fh" unicode="fh" horiz-adv-x="1894" 
d="M641 1352q-306 0 -306 -243v-59h315v-150h-315v-900h-185v1101q0 401 492 401q179 0 382 -72v-494q134 114 327 114q393 0 393 -391v-659h-185v662q0 234 -233 234q-159 0 -302 -133v-763h-185v1333q-110 19 -198 19z" />
    <glyph glyph-name="ffh" unicode="ffh" horiz-adv-x="2531" 
d="M787 910h-452v-910h-185v1111q0 381 382 381q89 0 174 -40v-150q-79 40 -175 40q-196 0 -196 -213v-79h452v51q0 401 492 401q179 0 382 -72v-494q134 114 327 114q393 0 393 -391v-659h-185v662q0 234 -233 234q-159 0 -302 -133v-763h-185v1333q-110 19 -198 19
q-306 0 -306 -243v-59h315v-140h-315v-910h-185v910z" />
    <glyph glyph-name="fk" unicode="fk" horiz-adv-x="1870" 
d="M641 1352q-306 0 -306 -243v-59h315v-150h-315v-900h-185v1101q0 401 492 401q179 0 382 -72v-462q153 82 353 82q392 0 392 -303q0 -220 -300 -304l336 -443h-234l-334 445v83q347 31 347 220q0 152 -220 152q-173 0 -340 -94v-806h-185v1333q-110 19 -198 19z" />
    <glyph glyph-name="ffk" unicode="ffk" horiz-adv-x="2507" 
d="M787 910h-452v-910h-185v1111q0 381 382 381q89 0 174 -40v-150q-79 40 -175 40q-196 0 -196 -213v-79h452v51q0 401 492 401q179 0 382 -72v-462q153 82 353 82q392 0 392 -303q0 -220 -300 -304l336 -443h-234l-334 445v83q347 31 347 220q0 152 -220 152
q-173 0 -340 -94v-806h-185v1333q-110 19 -198 19q-306 0 -306 -243v-59h315v-140h-315v-910h-185v910z" />
    <glyph glyph-name="fi" unicode="fi" horiz-adv-x="1131" 
d="M335 910v-910h-185v1101q0 401 442 401q139 0 294 -60v-150q-149 60 -295 60q-256 0 -256 -233v-69h626v-1050h-185v910h-441z" />
    <glyph glyph-name="fl" unicode="fl" horiz-adv-x="1184" 
d="M641 1352q-306 0 -306 -243v-59h315v-150h-315v-900h-185v1101q0 401 492 401q179 0 382 -72v-1430h-185v1333q-110 19 -198 19z" />
    <glyph glyph-name=".notdef" horiz-adv-x="1124" 
d="M82 32h960v1216h-960v-1216zM50 0v1280h1024v-1280h-1024z" />
    <glyph glyph-name=".null" horiz-adv-x="0" 
 />
    <glyph glyph-name="nonmarkingreturn" horiz-adv-x="390" 
 />
    <glyph glyph-name="space" unicode=" " horiz-adv-x="500" 
 />
    <glyph glyph-name="exclam" unicode="!" horiz-adv-x="485" 
d="M335 185v-185h-185v185h185zM335 1430v-1060h-185v1060h185z" />
    <glyph glyph-name="quotedbl" unicode="&#x22;" horiz-adv-x="755" 
d="M285 1430l-30 -435h-125l-30 435h185zM655 1430l-30 -435h-125l-30 435h185z" />
    <glyph glyph-name="numbersign" unicode="#" horiz-adv-x="1893" 
d="M403 -5l89 349h-392l30 154h402l89 378h-401l30 154h412l100 395h180l-100 -395h378l102 400h180l-101 -400h392l-30 -154h-402l-89 -378h401l-30 -154h-412l-90 -349h-180l90 349h-378l-90 -349h-180zM803 876l-90 -378h377l90 378h-377z" />
    <glyph glyph-name="dollar" unicode="$" horiz-adv-x="1050" 
d="M469 1430h175v-194q134 -10 266 -46v-160q-185 60 -373 60q-262 0 -262 -150q0 -140 165 -140h150q360 0 360 -310q0 -251 -306 -292v-198h-175v191q-166 5 -329 49v160q185 -60 374 -60q251 0 251 150q0 140 -175 140h-150q-340 0 -340 310q0 276 369 298v192z" />
    <glyph glyph-name="percent" unicode="%" horiz-adv-x="1422" 
d="M770 250q0 260 276 259q276 1 276 -259t-276 -260t-276 260zM1046 104q146 0 146 146t-146 145q-146 1 -146 -145t146 -146zM100 1180q0 260 276 260t276 -260t-276 -259q-276 -1 -276 259zM376 1035q146 -1 146 145t-146 146t-146 -146t146 -145zM305 0h-205l1017 1430
h205z" />
    <glyph glyph-name="ampersand" unicode="&#x26;" horiz-adv-x="1275" 
d="M542 650q-257 0 -257 -250t301 -250q342 0 342 342v158h-386zM100 1045q0 385 510 385q185 0 360 -50v-150q-175 50 -347 50q-338 0 -338 -230q0 -250 255 -250h388v142h63l102 -142h182v-150h-162v-160q0 -493 -518 -493q-495 0 -495 397q0 247 193 333
q-193 85 -193 318z" />
    <glyph glyph-name="quotesingle" unicode="'" horiz-adv-x="385" 
d="M285 1430l-30 -435h-125l-30 435h185z" />
    <glyph glyph-name="parenleft" unicode="(" horiz-adv-x="585" 
d="M285 525q0 -453 200 -905h-185q-200 452 -200 905t200 905h185q-200 -452 -200 -905z" />
    <glyph glyph-name="parenright" unicode=")" horiz-adv-x="585" 
d="M485 525q0 -453 -200 -905h-185q200 452 200 905t-200 905h185q200 -452 200 -905z" />
    <glyph glyph-name="asterisk" unicode="*" horiz-adv-x="810" 
d="M328 1430h156l-30 -232l209 101l48 -147l-228 -43l159 -170l-123 -92l-113 205l-113 -204l-124 89l161 171l-230 42l48 150l211 -103z" />
    <glyph glyph-name="plus" unicode="+" horiz-adv-x="950" 
d="M400 600v300h150v-300h300v-150h-300v-300h-150v300h-300v150h300z" />
    <glyph glyph-name="comma" unicode="," horiz-adv-x="385" 
d="M360 185l-150 -435h-185l150 435h185z" />
    <glyph glyph-name="hyphen" unicode="-" horiz-adv-x="700" 
d="M600 600v-150h-500v150h500z" />
    <glyph glyph-name="hyphen" unicode="&#x2010;" horiz-adv-x="700" 
d="M600 600v-150h-500v150h500z" />
    <glyph glyph-name="period" unicode="." horiz-adv-x="385" 
d="M285 185v-185h-185v185h185z" />
    <glyph glyph-name="slash" unicode="/" horiz-adv-x="980" 
d="M230 0h-205l725 1430h205z" />
    <glyph glyph-name="zero" unicode="0" horiz-adv-x="1445" 
d="M728 -10q-618 0 -618 725t618 725q607 0 607 -725t-607 -725zM728 140q412 0 412 575t-412 575q-423 0 -423 -575t423 -575z" />
    <glyph glyph-name="one" unicode="1" horiz-adv-x="645" 
d="M250 0v1251h-150v89l335 100v-1440h-185z" />
    <glyph glyph-name="two" unicode="2" horiz-adv-x="1145" 
d="M60 0v150q795 547 795 870q0 270 -340 270q-220 0 -415 -110v160q195 100 415 100q525 0 525 -420q0 -370 -715 -870h715v-150h-980z" />
    <glyph glyph-name="three" unicode="3" horiz-adv-x="1150" 
d="M500 1440q515 0 515 -390q0 -236 -188 -325q188 -85 188 -325q0 -410 -515 -410q-200 0 -400 60v160q200 -70 400 -70q330 0 330 260q0 250 -252 250h-328v150h325q255 0 255 250q0 240 -330 240q-200 0 -400 -70v160q200 60 400 60z" />
    <glyph glyph-name="four" unicode="4" horiz-adv-x="1220" 
d="M997 0h-185v340h-752v150l575 940h194l-576 -940h559v508h185v-508l148 -76v-74h-148v-340z" />
    <glyph glyph-name="five" unicode="5" horiz-adv-x="1175" 
d="M1019 1430v-150h-706l-24 -442q117 22 246 22q540 0 540 -410q0 -460 -560 -460q-190 0 -390 60v160q200 -70 400 -70q365 0 365 310q0 260 -355 260q-225 0 -410 -40l30 760h864z" />
    <glyph glyph-name="six" unicode="6" horiz-adv-x="1260" 
d="M636 140q353 0 353 330q0 300 -342 300q-214 0 -344 -48q-28 -60 -28 -166q0 -416 361 -416zM627 -10q-527 0 -527 558t658 925l96 -127q-362 -176 -514 -479q131 53 316 53q514 0 514 -450q0 -480 -543 -480z" />
    <glyph glyph-name="seven" unicode="7" horiz-adv-x="1090" 
d="M65 1430h950v-150l-602 -1280h-201l622 1280h-769v150z" />
    <glyph glyph-name="eight" unicode="8" horiz-adv-x="1240" 
d="M955 418q0 252 -335 252t-335 -252q0 -278 335 -278t335 278zM915 1058q0 232 -295 232t-295 -232q0 -238 295 -238t295 238zM100 424q0 223 212 321q-172 105 -172 333q0 366 480 366t480 -366q0 -228 -177 -333q217 -98 217 -321q0 -434 -520 -434t-520 434z" />
    <glyph glyph-name="nine" unicode="9" horiz-adv-x="1260" 
d="M634 1283q-353 0 -353 -330q0 -300 342 -300q214 0 344 48q28 60 28 166q0 416 -361 416zM643 1433q527 0 527 -558t-658 -925l-96 127q362 176 514 479q-131 -63 -316 -63q-514 0 -514 460q0 480 543 480z" />
    <glyph glyph-name="colon" unicode=":" horiz-adv-x="435" 
d="M335 185v-185h-185v185h185zM335 1050v-185h-185v185h185z" />
    <glyph glyph-name="semicolon" unicode=";" horiz-adv-x="535" 
d="M435 185l-150 -435h-185l150 435h185zM435 1050v-185h-185v185h185z" />
    <glyph glyph-name="less" unicode="&#x3c;" horiz-adv-x="1100" 
d="M100 450v150l900 400v-150l-743 -329l743 -321v-150z" />
    <glyph glyph-name="equal" unicode="=" horiz-adv-x="950" 
d="M850 750v-150h-750v150h750zM850 450v-150h-750v150h750z" />
    <glyph glyph-name="greater" unicode="&#x3e;" horiz-adv-x="1100" 
d="M100 50v150l743 321l-743 329v150l900 -400v-150z" />
    <glyph glyph-name="question" unicode="?" horiz-adv-x="1115" 
d="M500 1430q515 0 515 -390t-497 -390h-83v-280h-185v430h265q315 0 315 240t-330 240q-190 0 -400 -50v150q210 50 400 50zM435 185v-185h-185v185h185z" />
    <glyph glyph-name="at" unicode="@" horiz-adv-x="2150" 
d="M1051 490q-241 0 -241 -170t191 -170t324 102v218q-110 20 -274 20zM625 317q0 323 426 323q157 0 274 -20v109q0 171 -283 171q-162 0 -332 -50v150q170 50 332 50q468 0 468 -336v-626q0 -88 100 -88q205 0 205 540q0 750 -726 750q-754 0 -754 -750q0 -770 685 -770
v-150q-870 0 -870 920q0 900 925 900t925 -900q0 -690 -427 -690q-241 0 -241 244q-147 -94 -332 -94q-375 0 -375 317z" />
    <glyph glyph-name="A" unicode="A" horiz-adv-x="1472" 
d="M217 0h-192l607 1430h205l610 -1430h-205l-185 450h-473l51 150h360l-267 648z" />
    <glyph glyph-name="B" unicode="B" horiz-adv-x="1330" 
d="M748 150q256 0 256 260q0 253 -343 253h-80v121q410 55 410 296q0 200 -228 200h-408v-1130h393zM170 0v1430h610q408 0 408 -333q0 -244 -266 -349q284 -53 284 -325q0 -423 -447 -423h-589z" />
    <glyph glyph-name="C" unicode="C" horiz-adv-x="1385" 
d="M850 -10q-750 0 -750 745q0 705 750 705q215 0 400 -60v-160q-185 70 -380 70q-585 0 -585 -555q0 -595 585 -595q195 0 380 70v-160q-185 -60 -400 -60z" />
    <glyph glyph-name="D" unicode="D" horiz-adv-x="1500" 
d="M170 0v1430h520q710 0 710 -676q0 -754 -710 -754h-520zM690 150q525 0 525 604q0 526 -525 526h-335v-1130h335z" />
    <glyph glyph-name="E" unicode="E" horiz-adv-x="1230" 
d="M1105 1430v-150h-750v-480h715v-150h-715v-500h765v-150h-950v1430h935z" />
    <glyph glyph-name="F" unicode="F" horiz-adv-x="1155" 
d="M1105 1430v-150h-750v-480h715v-150h-715v-650h-185v1430h935z" />
    <glyph glyph-name="G" unicode="G" horiz-adv-x="1385" 
d="M877 -10q-777 0 -777 745q0 705 750 705q215 0 400 -60v-160q-185 70 -380 70q-585 0 -585 -555q0 -595 576 -595q92 0 204 24v486h185v-594q-173 -66 -373 -66z" />
    <glyph glyph-name="H" unicode="H" horiz-adv-x="1555" 
d="M170 0v1430h185v-630h845v630h185v-1430h-185v650h-845v-650h-185z" />
    <glyph glyph-name="I" unicode="I" horiz-adv-x="585" 
d="M385 1430v-1430h-185v1430h185z" />
    <glyph glyph-name="J" unicode="J" horiz-adv-x="690" 
d="M510 1430v-1018q0 -412 -485 -412v150q300 0 300 262v1018h185z" />
    <glyph glyph-name="K" unicode="K" horiz-adv-x="1400" 
d="M1361 1430l-644 -675l658 -755h-257l-583 688v112l592 630h234zM355 1430v-1430h-185v1430h185z" />
    <glyph glyph-name="L" unicode="L" horiz-adv-x="1153" 
d="M355 1430v-1280h748v-150h-933v1430h185z" />
    <glyph glyph-name="M" unicode="M" horiz-adv-x="1840" 
d="M170 0v1430h235l525 -1193l515 1193h225v-1430h-165v1173l-508 -1173h-146l-516 1173v-1173h-165z" />
    <glyph glyph-name="N" unicode="N" horiz-adv-x="1575" 
d="M170 0v1430h185l875 -1152v1152h175v-1430h-185l-875 1162v-1162h-175z" />
    <glyph glyph-name="O" unicode="O" horiz-adv-x="1665" 
d="M838 -10q-718 0 -718 725t718 725q707 0 707 -725t-707 -725zM838 140q512 0 512 575t-512 575q-523 0 -523 -575t523 -575z" />
    <glyph glyph-name="P" unicode="P" horiz-adv-x="1263" 
d="M170 0v1430h580q438 0 438 -383q0 -417 -599 -509l-38 156q440 65 440 345q0 238 -258 238h-378v-1277h-185z" />
    <glyph glyph-name="Q" unicode="Q" horiz-adv-x="1665" 
d="M120 715q0 725 718 725q707 0 707 -727q0 -598 -485 -706l232 -270l-144 -108l-310 361q-718 0 -718 725zM838 140q512 0 512 575t-512 575q-523 0 -523 -575t523 -575z" />
    <glyph glyph-name="R" unicode="R" horiz-adv-x="1305" 
d="M170 0v1430h610q408 0 408 -343q0 -279 -399 -413l491 -674h-244l-455 643v121q410 65 410 315q0 198 -228 198h-408v-1277h-185z" />
    <glyph glyph-name="S" unicode="S" horiz-adv-x="1290" 
d="M636 140q369 0 369 270q0 230 -272 230h-184q-449 0 -449 390q0 410 575 410q250 0 465 -60v-170q-215 80 -465 80q-390 0 -390 -260q0 -230 264 -230h184q457 0 457 -390q0 -420 -554 -420q-261 0 -486 60v170q225 -80 486 -80z" />
    <glyph glyph-name="T" unicode="T" horiz-adv-x="1185" 
d="M1135 1430v-150h-450v-1280h-185v1280h-450v150h1085z" />
    <glyph glyph-name="U" unicode="U" horiz-adv-x="1510" 
d="M160 552v878h185v-878q0 -412 410 -412t410 412v878h185v-878q0 -562 -595 -562t-595 562z" />
    <glyph glyph-name="V" unicode="V" horiz-adv-x="1472" 
d="M1447 1430l-607 -1430h-205l-610 1430h195l524 -1238l511 1238h192z" />
    <glyph glyph-name="W" unicode="W" horiz-adv-x="1900" 
d="M50 1430h179l201 -1244l404 1244h185l433 -1244l227 1244h171l-269 -1430h-252l-404 1198l-391 -1198h-249z" />
    <glyph glyph-name="X" unicode="X" horiz-adv-x="1410" 
d="M588 715l-563 715h225l450 -572l450 572h225l-562 -715l562 -715h-225l-450 572l-450 -572h-225z" />
    <glyph glyph-name="Y" unicode="Y" horiz-adv-x="1300" 
d="M729 0h-185v500l-519 930h205l412 -747l418 747h215l-546 -930v-500z" />
    <glyph glyph-name="Z" unicode="Z" horiz-adv-x="1330" 
d="M1205 1430v-150l-857 -1130h837v-150h-1060v150l884 1130h-864v150h1060z" />
    <glyph glyph-name="bracketleft" unicode="[" horiz-adv-x="650" 
d="M600 1430v-150h-265v-1510h265v-150h-450v1810h450z" />
    <glyph glyph-name="backslash" unicode="\" horiz-adv-x="980" 
d="M25 1430h205l725 -1430h-205z" />
    <glyph glyph-name="bracketright" unicode="]" horiz-adv-x="650" 
d="M500 1430v-1810h-450v150h265v1510h-265v150h450z" />
    <glyph glyph-name="asciicircum" unicode="^" horiz-adv-x="1050" 
d="M450 1430h150l400 -730h-150l-329 603l-321 -603h-150z" />
    <glyph glyph-name="underscore" unicode="_" horiz-adv-x="1050" 
d="M1025 0v-150h-1000v150h1000z" />
    <glyph glyph-name="grave" unicode="`" horiz-adv-x="603" 
d="M503 1191h-164l-239 239h239z" />
    <glyph glyph-name="a" unicode="a" horiz-adv-x="1135" 
d="M526 490q-241 0 -241 -170t191 -170t324 102v218q-137 20 -274 20zM100 317q0 323 426 323q137 0 274 -20v99q0 181 -283 181q-162 0 -332 -50v150q170 50 332 50q468 0 468 -326v-724h-104l-64 104q-157 -104 -342 -104q-375 0 -375 317z" />
    <glyph glyph-name="b" unicode="b" horiz-adv-x="1188" 
d="M150 1430h185v-430q119 50 255 50q498 0 498 -504q0 -546 -523 -546q-226 0 -415 43v1387zM556 154q350 0 350 399q0 337 -317 337q-144 0 -254 -54v-653q91 -29 221 -29z" />
    <glyph glyph-name="c" unicode="c" horiz-adv-x="1025" 
d="M660 0q-560 0 -560 545q0 505 560 505q150 0 280 -30v-150q-130 30 -290 30q-365 0 -365 -355q0 -395 365 -395q160 0 290 30v-150q-130 -30 -280 -30z" />
    <glyph glyph-name="d" unicode="d" horiz-adv-x="1190" 
d="M569 0q-469 0 -469 546q0 504 498 504q136 0 257 -50v430h185v-1367q-191 -63 -471 -63zM599 890q-317 0 -317 -337q0 -399 317 -399q144 0 256 39v643q-112 54 -256 54z" />
    <glyph glyph-name="e" unicode="e" horiz-adv-x="1130" 
d="M575 902q-272 0 -290 -276h568q-6 276 -278 276zM583 1050q448 0 448 -443q0 -63 -9 -135h-737q0 -322 376 -322q179 0 318 40v-150q-139 -40 -338 -40q-541 0 -541 537q0 513 483 513z" />
    <glyph glyph-name="f" unicode="f" horiz-adv-x="661" 
d="M150 0v1101q0 381 432 381q119 0 224 -40v-150q-99 40 -225 40q-246 0 -246 -223v-59h325v-150h-325v-900h-185z" />
    <glyph glyph-name="g" unicode="g" horiz-adv-x="1187" 
d="M1037 0q0 -380 -483 -380q-194 0 -344 50v150q153 -50 346 -50q296 0 296 230v50q-118 -50 -254 -50q-498 0 -498 525t525 525q213 0 412 -43v-1007zM617 896q-335 0 -335 -368t317 -368q144 0 253 54v658q-95 24 -235 24z" />
    <glyph glyph-name="h" unicode="h" 
d="M150 0v1430h185v-494q134 114 327 114q393 0 393 -391v-659h-185v662q0 234 -233 234q-159 0 -302 -133v-763h-185z" />
    <glyph glyph-name="i" unicode="i" horiz-adv-x="525" 
d="M355 1430v-175h-185v175h185zM355 1050v-1050h-185v1050h185z" />
    <glyph glyph-name="j" unicode="j" horiz-adv-x="525" 
d="M355 1430v-175h-185v175h185zM355 1050v-970q0 -318 -155 -478l-155 105q125 135 125 373v970h185z" />
    <glyph glyph-name="k" unicode="k" horiz-adv-x="1181" 
d="M150 0v1430h185v-462q153 82 353 82q392 0 392 -303q0 -220 -300 -304l336 -443h-234l-334 445v83q347 31 347 220q0 152 -220 152q-173 0 -340 -94v-806h-185z" />
    <glyph glyph-name="l" unicode="l" horiz-adv-x="505" 
d="M345 1430v-1430h-185v1430h185z" />
    <glyph glyph-name="m" unicode="m" horiz-adv-x="1805" 
d="M150 0v1050h125l31 -132q151 132 329 132q228 0 311 -144q171 144 347 144q362 0 362 -399v-651h-185v661q0 235 -198 235q-148 0 -277 -136v-760h-185v658q0 238 -196 238q-156 0 -279 -136v-760h-185z" />
    <glyph glyph-name="n" unicode="n" 
d="M150 0v1050h125l33 -134q161 134 354 134q393 0 393 -391v-659h-185v662q0 234 -233 234q-159 0 -302 -133v-763h-185z" />
    <glyph glyph-name="o" unicode="o" horiz-adv-x="1200" 
d="M600 1050q500 0 500 -524t-499 -525q-499 1 -500 525t499 524zM600 150q315 0 315 375t-315 375t-315 -375t315 -375z" />
    <glyph glyph-name="p" unicode="p" horiz-adv-x="1187" 
d="M582 1050q505 0 505 -499q0 -551 -508 -551q-126 0 -244 50v-430h-185v1387q209 43 432 43zM578 160q327 0 327 393q0 343 -325 343q-140 0 -245 -24v-658q109 -54 243 -54z" />
    <glyph glyph-name="q" unicode="q" horiz-adv-x="1187" 
d="M1037 -380h-185v430q-118 -50 -254 -50q-498 0 -498 525t525 525q213 0 412 -43v-1387zM617 896q-335 0 -335 -368t317 -368q144 0 253 54v658q-95 24 -235 24z" />
    <glyph glyph-name="r" unicode="r" horiz-adv-x="675" 
d="M150 0v1050h125l33 -134q138 134 332 134v-154q-188 0 -305 -133v-763h-185z" />
    <glyph glyph-name="s" unicode="s" horiz-adv-x="1050" 
d="M514 150q251 0 251 150q0 140 -175 140h-150q-340 0 -340 310q0 300 437 300q188 0 373 -50v-160q-185 60 -373 60q-262 0 -262 -150q0 -140 165 -140h150q360 0 360 -310q0 -300 -436 -300q-189 0 -374 50v160q185 -60 374 -60z" />
    <glyph glyph-name="t" unicode="t" horiz-adv-x="675" 
d="M150 1220h116l40 -170h284v-150h-255v-603q0 -147 127 -147h128v-150h-176q-264 0 -264 283v937z" />
    <glyph glyph-name="u" unicode="u" 
d="M1055 1050v-1050h-127l-32 134q-191 -134 -384 -134q-362 0 -362 391v659h185v-662q0 -234 232 -234q159 0 303 133v763h185z" />
    <glyph glyph-name="v" unicode="v" horiz-adv-x="1000" 
d="M0 1050h200l301 -823l299 823h200l-427 -1050h-172z" />
    <glyph glyph-name="w" unicode="w" horiz-adv-x="1539" 
d="M35 1050h187l186 -823l273 823h167l292 -823l168 823h196l-274 -1050h-169l-301 785l-286 -785h-173z" />
    <glyph glyph-name="x" unicode="x" horiz-adv-x="1050" 
d="M418 525l-393 525h215l285 -381l285 381h215l-392 -525l392 -525h-215l-285 381l-285 -381h-215z" />
    <glyph glyph-name="y" unicode="y" horiz-adv-x="1050" 
d="M25 1050h201l297 -820l307 820h196l-436 -1081q-116 -286 -348 -357l-71 131q176 77 256 251z" />
    <glyph glyph-name="z" unicode="z" horiz-adv-x="1040" 
d="M120 1050h820v-150l-627 -760h607v-140h-820v140l635 760h-615v150z" />
    <glyph glyph-name="braceleft" unicode="{" horiz-adv-x="675" 
d="M495 952q0 -352 -210 -427q210 -75 210 -427q0 -302 130 -478h-185q-130 176 -130 478q0 352 -210 352v150q210 0 210 352q0 302 130 478h185q-130 -176 -130 -478z" />
    <glyph glyph-name="bar" unicode="|" horiz-adv-x="485" 
d="M335 1430v-1810h-185v1810h185z" />
    <glyph glyph-name="braceright" unicode="}" horiz-adv-x="675" 
d="M365 952q0 -352 210 -352v-150q-210 0 -210 -352q0 -302 -130 -478h-185q130 176 130 478q0 352 210 427q-210 75 -210 427q0 302 -130 478h185q130 -176 130 -478z" />
    <glyph glyph-name="asciitilde" unicode="~" horiz-adv-x="950" 
d="M253 641q95 -1 212 -41t217 -40t168 60v-150q-58 -60 -153 -60t-212 40t-217 41q-100 0 -168 -61v150q58 61 153 61z" />
    <glyph glyph-name="nonbreakingspace" unicode="&#xa0;" horiz-adv-x="498" 
 />
    <glyph glyph-name="exclamdown" unicode="&#xa1;" horiz-adv-x="485" 
d="M150 865v185h185v-185h-185zM150 -380v1060h185v-1060h-185z" />
    <glyph glyph-name="cent" unicode="&#xa2;" horiz-adv-x="1050" 
d="M570 1430h175v-192q108 -6 205 -28v-150q-130 30 -260 30q-405 0 -405 -355q0 -395 405 -395q130 0 260 30v-150q-97 -22 -205 -28v-192h-175v195q-470 45 -470 540q0 459 470 501v194z" />
    <glyph glyph-name="sterling" unicode="&#xa3;" horiz-adv-x="1217" 
d="M286 413q0 117 -77 291t-77 323q0 413 558 413q270 0 427 -100v-180q-158 130 -434 130q-354 0 -354 -261q0 -144 45 -229h376v-150h-324q49 -134 49 -252t-64 -220q22 4 82 4q61 0 171 -30t170 -30q145 0 283 98v-170q-120 -84 -284 -84q-94 0 -212 30t-253 30t-268 -56
v152q186 75 186 291z" />
    <glyph glyph-name="currency" unicode="&#xa4;" horiz-adv-x="1139" 
d="M567 773q-245 0 -245 -245t245 -245t245 245t-245 245zM571 935q129 0 230 -68l128 121l110 -112l-118 -120q58 -82 58 -226t-68 -237l128 -120l-110 -112l-128 123q-109 -60 -233 -60t-243 60l-116 -123l-109 112l116 120q-57 103 -57 236t57 227l-116 120l109 112
l125 -121q108 68 237 68z" />
    <glyph glyph-name="yen" unicode="&#xa5;" horiz-adv-x="1250" 
d="M1080 730v-150h-376v-111h376v-150h-376v-319h-185v319h-349v150h349v111h-349v150h287l-407 700h205l362 -627l368 627h215l-433 -700h313z" />
    <glyph glyph-name="brokenbar" unicode="&#xa6;" horiz-adv-x="485" 
d="M334 1430v-730h-184v730h184zM335 350v-730h-185v730h185z" />
    <glyph glyph-name="section" unicode="&#xa7;" horiz-adv-x="1050" 
d="M470 568h110q195 0 195 136q0 157 -195 157h-110q-195 0 -195 -144q0 -149 195 -149zM514 140q251 0 251 150q0 130 -195 130h-110q-360 0 -360 300q0 138 122 196q-122 80 -122 224q0 300 457 300q168 0 343 -50v-160q-175 60 -343 60q-292 0 -292 -150q0 -130 195 -130
h110q380 0 380 -297q0 -130 -120 -202q120 -64 120 -221q0 -300 -436 -300q-189 0 -364 50v160q175 -60 364 -60z" />
    <glyph glyph-name="dieresis" unicode="&#xa8;" horiz-adv-x="755" 
d="M285 1430v-170h-185v170h185zM655 1430v-170h-185v170h185z" />
    <glyph glyph-name="copyright" unicode="&#xa9;" horiz-adv-x="1785" 
d="M893 285q-416 0 -416 443q0 416 416 416q165 0 290 -51v-98q-125 58 -276 58q-325 0 -325 -325q0 -352 325 -352q151 0 276 58v-98q-125 -51 -290 -51zM150 723q0 717 742 717t743 -717q-1 -733 -743 -733t-742 733zM878 80q652 0 652 639q0 631 -638 631t-637 -631
q0 -639 623 -639z" />
    <glyph glyph-name="ordfeminine" unicode="&#xaa;" horiz-adv-x="642" 
d="M313 1156q-121 0 -121 -88t101 -88t157 42v124q-55 10 -137 10zM298 906q-198 0 -198 162t213 162q79 0 137 -10v50q0 86 -142 86q-80 0 -166 -26v76q86 24 166 24q234 0 234 -168v-356h-46l-38 36q-68 -36 -160 -36z" />
    <glyph glyph-name="guillemotleft" unicode="&#xab;" horiz-adv-x="1009" 
d="M100 525l258 375h202l-258 -375l258 -375h-202zM499 525l258 375h202l-258 -375l258 -375h-202z" />
    <glyph glyph-name="logicalnot" unicode="&#xac;" horiz-adv-x="1085" 
d="M100 1050h885v-400h-150v250h-735v150z" />
    <glyph glyph-name="minus" unicode="&#xad;" horiz-adv-x="950" 
d="M850 600v-150h-750v150h750z" />
    <glyph glyph-name="minus" unicode="&#x2212;" horiz-adv-x="950" 
d="M850 600v-150h-750v150h750z" />
    <glyph glyph-name="registered" unicode="&#xae;" horiz-adv-x="1163" 
d="M582 1450q432 0 431 -427q1 -415 -425 -415t-438 415q0 427 432 427zM582 664q358 0 358 365t-358 365t-359 -365q1 -365 359 -365zM404 756v536h229q153 0 153 -128q0 -105 -150 -155l184 -253h-91l-171 241v45q154 25 154 119q0 74 -86 74h-153v-479h-69z" />
    <glyph glyph-name="macron" unicode="&#xaf;" horiz-adv-x="700" 
d="M600 1430v-150h-500v150h500z" />
    <glyph glyph-name="macron" unicode="&#x2c9;" horiz-adv-x="700" 
d="M600 1430v-150h-500v150h500z" />
    <glyph glyph-name="degree" unicode="&#xb0;" horiz-adv-x="752" 
d="M100 1170q0 260 276 260t276 -260t-276 -259q-276 -1 -276 259zM376 1025q146 -1 146 145t-146 146t-146 -146t146 -145z" />
    <glyph glyph-name="plusminus" unicode="&#xb1;" horiz-adv-x="950" 
d="M850 150v-150h-750v150h750zM400 750v300h150v-300h300v-150h-300v-300h-150v300h-300v150h300z" />
    <glyph glyph-name="twosuperior" unicode="&#xb2;" horiz-adv-x="590" 
d="M50 710v135q337 213 337 365q0 85 -110 85t-207 -55v140q97 50 207 50q263 0 263 -220q0 -175 -287 -365h287v-135h-490z" />
    <glyph glyph-name="threesuperior" unicode="&#xb3;" horiz-adv-x="578" 
d="M250 1430q278 0 278 -214q0 -98 -94 -143q94 -43 94 -143q0 -224 -278 -224q-100 0 -200 30v140q100 -36 200 -36q126 0 126 90q0 76 -86 76h-164v134h162q88 0 88 78t-126 78q-100 0 -200 -36v140q100 30 200 30z" />
    <glyph glyph-name="acute" unicode="&#xb4;" horiz-adv-x="603" 
d="M264 1430h239l-239 -239h-164z" />
    <glyph glyph-name="mu" unicode="&#xb5;" 
d="M1055 1050v-1050h-127l-32 134q-191 -134 -364 -134q-130 0 -197 80v-460h-185v1430h185v-612q0 -284 232 -284q159 0 303 133v763h185z" />
    <glyph glyph-name="mu" unicode="&#x3bc;" 
d="M1055 1050v-1050h-127l-32 134q-191 -134 -364 -134q-130 0 -197 80v-460h-185v1430h185v-612q0 -284 232 -284q159 0 303 133v763h185z" />
    <glyph glyph-name="paragraph" unicode="&#xb6;" horiz-adv-x="953" 
d="M443 -434v972q-443 0 -443 446t443 446h510v-90h-150v-1774h-100v1774h-160v-1774h-100z" />
    <glyph glyph-name="periodcentered" unicode="&#xb7;" horiz-adv-x="450" 
d="M100 525q0 125 125 125t125 -125t-125 -125t-125 125z" />
    <glyph glyph-name="periodcentered" unicode="&#x2219;" horiz-adv-x="450" 
d="M100 525q0 125 125 125t125 -125t-125 -125t-125 125z" />
    <glyph glyph-name="cedilla" unicode="&#xb8;" horiz-adv-x="457" 
d="M216 -314q108 0 108 64t-83 65h-183l131 260h135l-81 -152q214 -1 214 -173t-241 -172q-108 0 -216 50v108q108 -50 216 -50z" />
    <glyph glyph-name="onesuperior" unicode="&#xb9;" horiz-adv-x="328" 
d="M126 710v551h-76v75l228 90v-716h-152z" />
    <glyph glyph-name="ordmasculine" unicode="&#xba;" horiz-adv-x="700" 
d="M350 1430q250 0 250 -262t-249 -262t-251 262q0 262 250 262zM350 980q158 0 158 188t-158 188t-157 -188q-1 -188 157 -188z" />
    <glyph glyph-name="guillemotright" unicode="&#xbb;" horiz-adv-x="1009" 
d="M651 150h-202l258 375l-258 375h202l258 -375zM252 150h-202l258 375l-258 375h202l258 -375z" />
    <glyph glyph-name="onequarter" unicode="&#xbc;" horiz-adv-x="1449" 
d="M1072 720q277 0 277 -214q0 -98 -94 -143q94 -43 94 -143q0 -224 -277 -224q-100 0 -200 30v140q100 -36 200 -36q124 0 124 90q0 76 -86 76h-164v134h163q87 0 87 78t-112 78t-212 -36v140q100 30 200 30zM198 710v551h-74v75l227 90v-716h-153zM285 0h-185l885 1430
h185z" />
    <glyph glyph-name="onehalf" unicode="&#xbd;" horiz-adv-x="1442" 
d="M852 0v135q338 213 338 365q0 85 -110 85t-208 -55v140q98 50 208 50q262 0 262 -220q0 -175 -288 -365h288v-135h-490zM198 710v551h-74v75l227 90v-716h-153zM285 0h-185l885 1430h185z" />
    <glyph glyph-name="threequarters" unicode="&#xbe;" horiz-adv-x="1490" 
d="M300 1430q277 0 277 -214q0 -98 -94 -143q94 -43 94 -143q0 -224 -277 -224q-100 0 -200 30v140q100 -36 200 -36q124 0 124 90q0 76 -86 76h-164v134h163q87 0 87 78t-112 78t-212 -36v140q100 30 200 30zM1316 0h-152v150h-342v134l218 430h162l-213 -430h175v264h152
v-264l74 -38v-96h-74v-150zM376 0h-185l885 1430h185z" />
    <glyph glyph-name="questiondown" unicode="&#xbf;" horiz-adv-x="1115" 
d="M615 -380q-515 0 -515 390t497 390h83v280h185v-430h-265q-315 0 -315 -240t330 -240q190 0 400 50v-150q-210 -50 -400 -50zM680 865v185h185v-185h-185z" />
    <glyph glyph-name="Agrave" unicode="&#xc0;" horiz-adv-x="1472" 
d="M217 0h-192l607 1430h205l610 -1430h-205l-185 450h-473l51 150h360l-267 648zM870 1571h-164l-239 239h239z" />
    <glyph glyph-name="Aacute" unicode="&#xc1;" horiz-adv-x="1472" 
d="M217 0h-192l607 1430h205l610 -1430h-205l-185 450h-473l51 150h360l-267 648zM766 1810h239l-239 -239h-164z" />
    <glyph glyph-name="Acircumflex" unicode="&#xc2;" horiz-adv-x="1472" 
d="M217 0h-192l607 1430h205l610 -1430h-205l-185 450h-473l51 150h360l-267 648zM661 1810h150l175 -260h-150l-100 160l-100 -160h-150z" />
    <glyph glyph-name="Atilde" unicode="&#xc3;" horiz-adv-x="1472" 
d="M217 0h-192l607 1430h205l610 -1430h-205l-185 450h-473l51 150h360l-267 648zM607 1810q61 0 119 -26t124 -26t136 46v-150q-60 -46 -121 -46t-119 26t-124 26t-136 -46v150q60 46 121 46z" />
    <glyph glyph-name="Adieresis" unicode="&#xc4;" horiz-adv-x="1472" 
d="M217 0h-192l607 1430h205l610 -1430h-205l-185 450h-473l51 150h360l-267 648zM644 1810v-170h-185v170h185zM1014 1810v-170h-185v170h185z" />
    <glyph glyph-name="Aring" unicode="&#xc5;" horiz-adv-x="1472" 
d="M510 1625q0 210 226 210t226 -210q0 -156 -125 -196l610 -1429h-205l-185 450h-473l51 150h360l-267 648l-511 -1248h-192l607 1430h3q-125 40 -125 195zM736 1490q136 0 136 136t-136 135q-136 1 -136 -135t136 -136z" />
    <glyph glyph-name="AE" unicode="&#xc6;" horiz-adv-x="1925" 
d="M1780 1430v-150h-888l210 -480h643v-150h-574l226 -500h403v-150h-548l-524 1238l-266 -638h350l58 -150h-459l-194 -450h-192l607 1430h1148z" />
    <glyph glyph-name="Ccedilla" unicode="&#xc7;" horiz-adv-x="1385" 
d="M100 735q0 705 750 705q215 0 400 -60v-160q-185 70 -380 70q-585 0 -585 -555q0 -595 585 -595q195 0 380 70v-160q-185 -60 -400 -60h-16l-36 -67q214 -1 214 -173t-241 -172q-108 0 -216 50v108q108 -50 216 -50t108 64t-83 65h-183l92 183q-605 68 -605 737z" />
    <glyph glyph-name="Egrave" unicode="&#xc8;" horiz-adv-x="1230" 
d="M1105 1430v-150h-750v-480h715v-150h-715v-500h765v-150h-950v1430h935zM779 1571h-164l-239 239h239z" />
    <glyph glyph-name="Eacute" unicode="&#xc9;" horiz-adv-x="1230" 
d="M1105 1430v-150h-750v-480h715v-150h-715v-500h765v-150h-950v1430h935zM675 1810h239l-239 -239h-164z" />
    <glyph glyph-name="Ecircumflex" unicode="&#xca;" horiz-adv-x="1230" 
d="M1105 1430v-150h-750v-480h715v-150h-715v-500h765v-150h-950v1430h935zM570 1810h150l175 -260h-150l-100 160l-100 -160h-150z" />
    <glyph glyph-name="Edieresis" unicode="&#xcb;" horiz-adv-x="1230" 
d="M1105 1430v-150h-750v-480h715v-150h-715v-500h765v-150h-950v1430h935zM553 1810v-170h-185v170h185zM923 1810v-170h-185v170h185z" />
    <glyph glyph-name="Igrave" unicode="&#xcc;" horiz-adv-x="585" 
d="M385 1430v-1430h-185v1430h185zM427 1571h-164l-239 239h239z" />
    <glyph glyph-name="Iacute" unicode="&#xcd;" horiz-adv-x="585" 
d="M385 1430v-1430h-185v1430h185zM322 1810h239l-239 -239h-164z" />
    <glyph glyph-name="Icircumflex" unicode="&#xce;" horiz-adv-x="585" 
d="M386 1430v-1430h-185v1430h185zM218 1810h150l175 -260h-150l-100 160l-100 -160h-150z" />
    <glyph glyph-name="Idieresis" unicode="&#xcf;" horiz-adv-x="585" 
d="M385 1430v-1430h-185v1430h185zM200 1810v-170h-185v170h185zM570 1810v-170h-185v170h185z" />
    <glyph glyph-name="Eth" unicode="&#xd0;" horiz-adv-x="1500" 
d="M355 800h365v-150h-365v-500h335q525 0 525 604q0 526 -525 526h-335v-480zM170 800v630h520q710 0 710 -676q0 -754 -710 -754h-520v650h-200v150h200z" />
    <glyph glyph-name="Ntilde" unicode="&#xd1;" horiz-adv-x="1575" 
d="M170 0v1430h185l875 -1152v1152h175v-1430h-185l-875 1162v-1162h-175zM659 1810q61 0 119 -26t124 -26t136 46v-150q-60 -46 -121 -46t-119 26t-124 26t-136 -46v150q60 46 121 46z" />
    <glyph glyph-name="Ograve" unicode="&#xd2;" horiz-adv-x="1665" 
d="M838 -10q-718 0 -718 725t718 725q707 0 707 -725t-707 -725zM838 140q512 0 512 575t-512 575q-523 0 -523 -575t523 -575zM967 1571h-164l-239 239h239z" />
    <glyph glyph-name="Oacute" unicode="&#xd3;" horiz-adv-x="1665" 
d="M838 -10q-718 0 -718 725t718 725q707 0 707 -725t-707 -725zM838 140q512 0 512 575t-512 575q-523 0 -523 -575t523 -575zM862 1810h239l-239 -239h-164z" />
    <glyph glyph-name="Ocircumflex" unicode="&#xd4;" horiz-adv-x="1665" 
d="M838 -10q-718 0 -718 725t718 725q707 0 707 -725t-707 -725zM838 140q512 0 512 575t-512 575q-523 0 -523 -575t523 -575zM758 1810h150l175 -260h-150l-100 160l-100 -160h-150z" />
    <glyph glyph-name="Otilde" unicode="&#xd5;" horiz-adv-x="1665" 
d="M838 -10q-718 0 -718 725t718 725q707 0 707 -725t-707 -725zM838 140q512 0 512 575t-512 575q-523 0 -523 -575t523 -575zM704 1810q61 0 119 -26q57 -26 123 -26t137 46v-150q-60 -46 -121 -46t-119 26q-57 26 -123 26t-137 -46v150q60 46 121 46z" />
    <glyph glyph-name="Odieresis" unicode="&#xd6;" horiz-adv-x="1665" 
d="M838 -10q-718 0 -718 725t718 725q707 0 707 -725t-707 -725zM838 140q512 0 512 575t-512 575q-523 0 -523 -575t523 -575zM740 1810v-170h-185v170h185zM1110 1810v-170h-185v170h185z" />
    <glyph glyph-name="multiply" unicode="&#xd7;" horiz-adv-x="950" 
d="M312 525l-212 212l106 106l212 -212l212 212l106 -106l-212 -212l212 -212l-106 -106l-212 212l-212 -212l-106 106z" />
    <glyph glyph-name="Oslash" unicode="&#xd8;" horiz-adv-x="1625" 
d="M1525 713q0 -723 -707 -723q-240 0 -399 81l-54 -71h-197l122 161q-190 180 -190 552q0 727 718 727q228 0 383 -76l50 66h198l-118 -155q194 -182 194 -562zM818 140q512 0 512 579q0 266 -111 408l-697 -920q118 -67 296 -67zM818 1290q-523 0 -523 -571
q0 -264 109 -408l695 918q-113 61 -281 61z" />
    <glyph glyph-name="Ugrave" unicode="&#xd9;" horiz-adv-x="1510" 
d="M160 552v878h185v-878q0 -412 410 -412t410 412v878h185v-878q0 -562 -595 -562t-595 562zM889 1571h-164l-239 239h239z" />
    <glyph glyph-name="Uacute" unicode="&#xda;" horiz-adv-x="1510" 
d="M160 552v878h185v-878q0 -412 410 -412t410 412v878h185v-878q0 -562 -595 -562t-595 562zM785 1810h239l-239 -239h-164z" />
    <glyph glyph-name="Ucircumflex" unicode="&#xdb;" horiz-adv-x="1510" 
d="M160 552v878h185v-878q0 -412 410 -412t410 412v878h185v-878q0 -562 -595 -562t-595 562zM680 1810h150l175 -260h-150l-100 160l-100 -160h-150z" />
    <glyph glyph-name="Udieresis" unicode="&#xdc;" horiz-adv-x="1510" 
d="M160 552v878h185v-878q0 -412 410 -412t410 412v878h185v-878q0 -562 -595 -562t-595 562zM663 1810v-170h-185v170h185zM1033 1810v-170h-185v170h185z" />
    <glyph glyph-name="Yacute" unicode="&#xdd;" horiz-adv-x="1300" 
d="M729 0h-185v500l-519 930h205l412 -747l418 747h215l-546 -930v-500zM680 1810h239l-239 -239h-164z" />
    <glyph glyph-name="Thorn" unicode="&#xde;" horiz-adv-x="1243" 
d="M150 0v1430h185v-308h425q408 0 408 -343q0 -387 -569 -479l-38 156q410 65 410 315q0 198 -228 198h-408v-969h-185z" />
    <glyph glyph-name="germandbls" unicode="&#xdf;" horiz-adv-x="1191" 
d="M150 0v959q0 468 464 468q430 0 430 -377v-85q-304 -93 -304 -238q0 -91 93 -127l93 -35q185 -72 185 -263q0 -302 -394 -302h-182v150h184q197 0 197 152q0 91 -88 129l-98 43q-165 72 -165 240q0 218 288 336q0 227 -246 227q-272 0 -272 -321v-956h-185z" />
    <glyph glyph-name="agrave" unicode="&#xe0;" horiz-adv-x="1135" 
d="M526 490q-241 0 -241 -170t191 -170t324 102v218q-137 20 -274 20zM100 317q0 323 426 323q137 0 274 -20v99q0 181 -283 181q-162 0 -332 -50v150q170 50 332 50q468 0 468 -326v-724h-104l-64 104q-157 -104 -342 -104q-375 0 -375 317zM697 1191h-164l-239 239h239z
" />
    <glyph glyph-name="aacute" unicode="&#xe1;" horiz-adv-x="1135" 
d="M526 490q-241 0 -241 -170t191 -170t324 102v218q-137 20 -274 20zM100 317q0 323 426 323q137 0 274 -20v99q0 181 -283 181q-162 0 -332 -50v150q170 50 332 50q468 0 468 -326v-724h-104l-64 104q-157 -104 -342 -104q-375 0 -375 317zM572 1430h239l-239 -239h-164z
" />
    <glyph glyph-name="acircumflex" unicode="&#xe2;" horiz-adv-x="1135" 
d="M526 490q-241 0 -241 -170t191 -170t324 102v218q-137 20 -274 20zM100 317q0 323 426 323q137 0 274 -20v99q0 181 -283 181q-162 0 -332 -50v150q170 50 332 50q468 0 468 -326v-724h-104l-64 104q-157 -104 -342 -104q-375 0 -375 317zM498 1430h150l175 -260h-150
l-100 160l-100 -160h-150z" />
    <glyph glyph-name="atilde" unicode="&#xe3;" horiz-adv-x="1135" 
d="M526 490q-241 0 -241 -170t191 -170t324 102v218q-137 20 -274 20zM100 317q0 323 426 323q137 0 274 -20v99q0 181 -283 181q-162 0 -332 -50v150q170 50 332 50q468 0 468 -326v-724h-104l-64 104q-157 -104 -342 -104q-375 0 -375 317zM414 1430q61 0 119 -26
q57 -26 123 -26t137 46v-150q-60 -46 -121 -46t-119 26q-57 26 -123 26t-137 -46v150q60 46 121 46z" />
    <glyph glyph-name="adieresis" unicode="&#xe4;" horiz-adv-x="1135" 
d="M526 490q-241 0 -241 -170t191 -170t324 102v218q-137 20 -274 20zM100 317q0 323 426 323q137 0 274 -20v99q0 181 -283 181q-162 0 -332 -50v150q170 50 332 50q468 0 468 -326v-724h-104l-64 104q-157 -104 -342 -104q-375 0 -375 317zM470 1430v-170h-185v170h185z
M840 1430v-170h-185v170h185z" />
    <glyph glyph-name="aring" unicode="&#xe5;" horiz-adv-x="1135" 
d="M526 490q-241 0 -241 -170t191 -170t324 102v218q-137 20 -274 20zM100 317q0 323 426 323q137 0 274 -20v99q0 181 -283 181q-162 0 -332 -50v150q170 50 332 50q468 0 468 -326v-724h-104l-64 104q-157 -104 -342 -104q-375 0 -375 317zM337 1362q0 210 226 209
q226 1 226 -209t-226 -210t-226 210zM563 1226q136 0 136 136t-136 135q-136 1 -136 -135t136 -136z" />
    <glyph glyph-name="ae" unicode="&#xe6;" horiz-adv-x="1833" 
d="M475 0q-375 0 -375 317q0 323 426 323q137 0 274 -20v99q0 181 -283 181q-162 0 -332 -50v150q170 50 332 50q296 0 405 -130q121 130 364 130q448 0 448 -443q0 -63 -9 -135h-737q0 -322 376 -322q169 0 318 40v-150q-139 -40 -338 -40q-280 0 -421 148
q-223 -148 -448 -148zM1278 902q-272 0 -290 -276h568q-6 276 -278 276zM526 490q-241 0 -241 -170t191 -170t324 102v218q-137 20 -274 20z" />
    <glyph glyph-name="ccedilla" unicode="&#xe7;" horiz-adv-x="1025" 
d="M100 545q0 505 570 505q150 0 280 -30v-150q-130 30 -260 30q-405 0 -405 -355q0 -395 405 -395q130 0 260 30v-150q-130 -30 -280 -30h-12l-41 -77q214 -1 214 -173t-241 -172q-108 0 -216 50v108q108 -50 216 -50t108 64t-83 65h-183l98 194q-430 63 -430 536z" />
    <glyph glyph-name="egrave" unicode="&#xe8;" horiz-adv-x="1130" 
d="M575 902q-272 0 -290 -276h568q-6 276 -278 276zM583 1050q448 0 448 -443q0 -63 -9 -135h-737q0 -322 376 -322q179 0 318 40v-150q-139 -40 -338 -40q-541 0 -541 537q0 513 483 513zM700 1191h-164l-239 239h239z" />
    <glyph glyph-name="eacute" unicode="&#xe9;" horiz-adv-x="1130" 
d="M575 902q-272 0 -290 -276h568q-6 276 -278 276zM583 1050q448 0 448 -443q0 -63 -9 -135h-737q0 -322 376 -322q179 0 318 40v-150q-139 -40 -338 -40q-541 0 -541 537q0 513 483 513zM595 1430h239l-239 -239h-164z" />
    <glyph glyph-name="ecircumflex" unicode="&#xea;" horiz-adv-x="1130" 
d="M575 902q-272 0 -290 -276h568q-6 276 -278 276zM583 1050q448 0 448 -443q0 -63 -9 -135h-737q0 -322 376 -322q179 0 318 40v-150q-139 -40 -338 -40q-541 0 -541 537q0 513 483 513zM500 1430h150l175 -260h-150l-100 160l-100 -160h-150z" />
    <glyph glyph-name="edieresis" unicode="&#xeb;" horiz-adv-x="1130" 
d="M575 902q-272 0 -290 -276h568q-6 276 -278 276zM583 1050q448 0 448 -443q0 -63 -9 -135h-737q0 -322 376 -322q179 0 318 40v-150q-139 -40 -338 -40q-541 0 -541 537q0 513 483 513zM483 1430v-170h-185v170h185zM853 1430v-170h-185v170h185z" />
    <glyph glyph-name="igrave" unicode="&#xec;" horiz-adv-x="525" 
d="M355 1050v-1050h-185v1050h185zM397 1191h-164l-239 239h239z" />
    <glyph glyph-name="iacute" unicode="&#xed;" horiz-adv-x="525" 
d="M355 1050v-1050h-185v1050h185zM292 1430h239l-239 -239h-164z" />
    <glyph glyph-name="icircumflex" unicode="&#xee;" horiz-adv-x="525" 
d="M356 1050v-1050h-185v1050h185zM188 1430h150l175 -260h-150l-100 160l-100 -160h-150z" />
    <glyph glyph-name="idieresis" unicode="&#xef;" horiz-adv-x="525" 
d="M355 1050v-1050h-185v1050h185zM170 1430v-170h-185v170h185zM540 1430v-170h-185v170h185z" />
    <glyph glyph-name="eth" unicode="&#xf0;" horiz-adv-x="1190" 
d="M1090 580q0 -590 -495 -590t-495 550q0 510 464 510q177 0 296 -90q-49 141 -147 220l-283 -119v119l161 68q-90 32 -205 32h-206v150h208q241 0 399 -100l240 100v-119l-143 -60q206 -211 206 -671zM905 576q0 126 -18 244q-80 90 -294 90q-312 0 -312 -370
q0 -400 312 -400t312 436z" />
    <glyph glyph-name="ntilde" unicode="&#xf1;" 
d="M150 0v1050h125l33 -134q161 134 354 134q393 0 393 -391v-659h-185v662q0 234 -233 234q-159 0 -302 -133v-763h-185zM474 1430q61 0 119 -26q57 -26 123 -26t137 46v-150q-60 -46 -121 -46t-119 26q-57 26 -123 26t-137 -46v150q60 46 121 46z" />
    <glyph glyph-name="ograve" unicode="&#xf2;" horiz-adv-x="1200" 
d="M600 1050q500 0 500 -524t-499 -525q-499 1 -500 525t499 524zM600 150q315 0 315 375t-315 375t-315 -375t315 -375zM734 1191h-164l-239 239h239z" />
    <glyph glyph-name="oacute" unicode="&#xf3;" horiz-adv-x="1200" 
d="M600 1050q500 0 500 -524t-499 -525q-499 1 -500 525t499 524zM600 150q315 0 315 375t-315 375t-315 -375t315 -375zM630 1430h239l-239 -239h-164z" />
    <glyph glyph-name="ocircumflex" unicode="&#xf4;" horiz-adv-x="1200" 
d="M600 1050q500 0 500 -524t-499 -525q-499 1 -500 525t499 524zM600 150q315 0 315 375t-315 375t-315 -375t315 -375zM525 1430h150l175 -260h-150l-100 160l-100 -160h-150z" />
    <glyph glyph-name="otilde" unicode="&#xf5;" horiz-adv-x="1200" 
d="M600 1050q500 0 500 -524t-499 -525q-499 1 -500 525t499 524zM600 150q315 0 315 375t-315 375t-315 -375t315 -375zM471 1430q61 0 119 -26t124 -26t136 46v-150q-60 -46 -121 -46t-119 26t-124 26t-136 -46v150q60 46 121 46z" />
    <glyph glyph-name="odieresis" unicode="&#xf6;" horiz-adv-x="1200" 
d="M600 1050q500 0 500 -524t-499 -525q-499 1 -500 525t499 524zM600 150q315 0 315 375t-315 375t-315 -375t315 -375zM508 1430v-170h-185v170h185zM878 1430v-170h-185v170h185z" />
    <glyph glyph-name="divide" unicode="&#xf7;" horiz-adv-x="985" 
d="M585 900v-150h-185v150h185zM585 300v-150h-185v150h185zM885 600v-150h-785v150h785z" />
    <glyph glyph-name="oslash" unicode="&#xf8;" horiz-adv-x="1200" 
d="M1100 525q0 -524 -500 -524q-148 0 -252 46l-36 -47h-197l105 138q-119 131 -120 387q0 525 500 525q163 0 273 -56l42 56h198l-118 -154q105 -131 105 -371zM600 150q315 0 315 379q0 128 -38 212l-428 -562q63 -29 151 -29zM600 900q-315 0 -315 -371q0 -150 49 -241
l437 573q-69 39 -171 39z" />
    <glyph glyph-name="ugrave" unicode="&#xf9;" 
d="M1055 1050v-1050h-127l-32 134q-191 -134 -384 -134q-362 0 -362 391v659h185v-662q0 -234 232 -234q159 0 303 133v763h185zM737 1191h-164l-239 239h239z" />
    <glyph glyph-name="uacute" unicode="&#xfa;" 
d="M1055 1050v-1050h-127l-32 134q-191 -134 -384 -134q-362 0 -362 391v659h185v-662q0 -234 232 -234q159 0 303 133v763h185zM632 1430h239l-239 -239h-164z" />
    <glyph glyph-name="ucircumflex" unicode="&#xfb;" 
d="M1055 1050v-1050h-127l-32 134q-191 -134 -384 -134q-362 0 -362 391v659h185v-662q0 -234 232 -234q159 0 303 133v763h185zM528 1430h150l175 -260h-150l-100 160l-100 -160h-150z" />
    <glyph glyph-name="udieresis" unicode="&#xfc;" 
d="M1055 1050v-1050h-127l-32 134q-191 -134 -384 -134q-362 0 -362 391v659h185v-662q0 -234 232 -234q159 0 303 133v763h185zM510 1430v-170h-185v170h185zM880 1430v-170h-185v170h185z" />
    <glyph glyph-name="yacute" unicode="&#xfd;" horiz-adv-x="1050" 
d="M25 1050h201l297 -820l307 820h196l-436 -1081q-116 -286 -348 -357l-71 131q176 77 256 251zM555 1430h239l-239 -239h-164z" />
    <glyph glyph-name="thorn" unicode="&#xfe;" horiz-adv-x="1187" 
d="M150 1430h185v-399q96 19 247 19q505 0 505 -499q0 -551 -508 -551q-126 0 -244 50v-430h-185v1810zM578 160q327 0 327 393q0 343 -325 343q-140 0 -245 -24v-658q109 -54 243 -54z" />
    <glyph glyph-name="ydieresis" unicode="&#xff;" horiz-adv-x="1050" 
d="M25 1050h201l297 -820l307 820h196l-436 -1081q-116 -286 -348 -357l-71 131q176 77 256 251zM433 1430v-170h-185v170h185zM803 1430v-170h-185v170h185z" />
    <glyph glyph-name="Amacron" unicode="&#x100;" horiz-adv-x="1472" 
d="M217 0h-192l607 1430h205l610 -1430h-205l-185 450h-473l51 150h360l-267 648zM986 1810v-150h-500v150h500z" />
    <glyph glyph-name="amacron" unicode="&#x101;" horiz-adv-x="1135" 
d="M526 490q-241 0 -241 -170t191 -170t324 102v218q-137 20 -274 20zM100 317q0 323 426 323q137 0 274 -20v99q0 181 -283 181q-162 0 -332 -50v150q170 50 332 50q468 0 468 -326v-724h-104l-64 104q-157 -104 -342 -104q-375 0 -375 317zM793 1430v-150h-500v150h500z
" />
    <glyph glyph-name="Abreve" unicode="&#x102;" horiz-adv-x="1472" 
d="M217 0h-192l607 1430h205l610 -1430h-205l-185 450h-473l51 150h360l-267 648zM471 1810h135q0 -150 130 -150t130 150h135q0 -260 -265 -260t-265 260z" />
    <glyph glyph-name="abreve" unicode="&#x103;" horiz-adv-x="1135" 
d="M526 490q-241 0 -241 -170t191 -170t324 102v218q-137 20 -274 20zM100 317q0 323 426 323q137 0 274 -20v99q0 181 -283 181q-162 0 -332 -50v150q170 50 332 50q468 0 468 -326v-724h-104l-64 104q-157 -104 -342 -104q-375 0 -375 317zM298 1430h135q0 -150 130 -150
t130 150h135q0 -260 -265 -260t-265 260z" />
    <glyph glyph-name="Aogonek" unicode="&#x104;" horiz-adv-x="1472" 
d="M1245 -228q0 -68 85 -68t137 20v-130q-61 -20 -149 -20q-231 0 -231 173q0 131 155 253l-185 450h-473l51 150h360l-267 648l-511 -1248h-192l607 1430h205l610 -1430q-202 -126 -202 -228z" />
    <glyph glyph-name="aogonek" unicode="&#x105;" horiz-adv-x="1135" 
d="M475 0q-375 0 -375 317q0 323 426 323q137 0 274 -20v99q0 181 -283 181q-162 0 -332 -50v150q170 50 332 50q468 0 468 -326v-724q-202 -126 -202 -228q0 -68 85 -68t137 20v-130q-61 -20 -149 -20q-231 0 -231 173q0 131 192 253v104q-157 -104 -342 -104zM526 490
q-241 0 -241 -170t191 -170t324 102v218q-137 20 -274 20z" />
    <glyph glyph-name="Cacute" unicode="&#x106;" horiz-adv-x="1385" 
d="M850 -10q-750 0 -750 745q0 705 750 705q215 0 400 -60v-160q-185 70 -380 70q-585 0 -585 -555q0 -595 585 -595q195 0 380 70v-160q-185 -60 -400 -60zM705 1810h239l-239 -239h-164z" />
    <glyph glyph-name="cacute" unicode="&#x107;" horiz-adv-x="1025" 
d="M660 0q-560 0 -560 545q0 505 560 505q150 0 280 -30v-150q-130 30 -290 30q-365 0 -365 -355q0 -395 365 -395q160 0 290 30v-150q-130 -30 -280 -30zM555 1430h239l-239 -239h-164z" />
    <glyph glyph-name="Ccircumflex" unicode="&#x108;" horiz-adv-x="1385" 
d="M850 -10q-750 0 -750 745q0 705 750 705q215 0 400 -60v-160q-185 70 -380 70q-585 0 -585 -555q0 -595 585 -595q195 0 380 70v-160q-185 -60 -400 -60zM730 1810h150l175 -260h-150l-100 160l-100 -160h-150z" />
    <glyph glyph-name="ccircumflex" unicode="&#x109;" horiz-adv-x="1025" 
d="M660 0q-560 0 -560 545q0 505 560 505q150 0 280 -30v-150q-130 30 -290 30q-365 0 -365 -355q0 -395 365 -395q160 0 290 30v-150q-130 -30 -280 -30zM540 1430h150l175 -260h-150l-100 160l-100 -160h-150z" />
    <glyph glyph-name="Cdotaccent" unicode="&#x10a;" horiz-adv-x="1385" 
d="M850 -10q-750 0 -750 745q0 705 750 705q215 0 400 -60v-160q-185 70 -380 70q-585 0 -585 -555q0 -595 585 -595q195 0 380 70v-160q-185 -60 -400 -60zM938 1810v-190h-205v190h205z" />
    <glyph glyph-name="cdotaccent" unicode="&#x10b;" horiz-adv-x="1025" 
d="M660 0q-560 0 -560 545q0 505 560 505q150 0 280 -30v-150q-130 30 -290 30q-365 0 -365 -355q0 -395 365 -395q160 0 290 30v-150q-130 -30 -280 -30zM748 1430v-190h-205v190h205z" />
    <glyph glyph-name="Ccaron" unicode="&#x10c;" horiz-adv-x="1385" 
d="M850 -10q-750 0 -750 745q0 705 750 705q215 0 400 -60v-160q-185 70 -380 70q-585 0 -585 -555q0 -595 585 -595q195 0 380 70v-160q-185 -60 -400 -60zM516 1810h150l100 -160l100 160h150l-175 -260h-150z" />
    <glyph glyph-name="ccaron" unicode="&#x10d;" horiz-adv-x="1025" 
d="M660 0q-560 0 -560 545q0 505 560 505q150 0 280 -30v-150q-130 30 -290 30q-365 0 -365 -355q0 -395 365 -395q160 0 290 30v-150q-130 -30 -280 -30zM338 1430h150l100 -160l100 160h150l-175 -260h-150z" />
    <glyph glyph-name="Dcaron" unicode="&#x10e;" horiz-adv-x="1500" 
d="M170 0v1430h520q710 0 710 -676q0 -754 -710 -754h-520zM690 150q525 0 525 604q0 526 -525 526h-335v-1130h335zM475 1810h150l100 -160l100 160h150l-175 -260h-150z" />
    <glyph glyph-name="dcaron" unicode="&#x10f;" horiz-adv-x="1190" 
d="M1475 1430l-150 -435h-185l150 435h185zM569 0q-469 0 -469 546q0 504 498 504q136 0 257 -50v430h185v-1367q-191 -63 -471 -63zM599 890q-317 0 -317 -337q0 -399 317 -399q144 0 256 39v643q-112 54 -256 54z" />
    <glyph glyph-name="Dcroat" unicode="&#x110;" horiz-adv-x="1500" 
d="M335 800h365v-150h-365v-500h335q525 0 525 604q0 526 -525 526h-335v-480zM150 800v630h520q710 0 710 -676q0 -754 -710 -754h-520v650h-200v150h200z" />
    <glyph glyph-name="dcroat" unicode="&#x111;" horiz-adv-x="1190" 
d="M569 0q-469 0 -469 546q0 504 498 504q136 0 257 -50v140h-735v150h735v140h185v-1367q-191 -63 -471 -63zM599 890q-317 0 -317 -337q0 -399 317 -399q144 0 256 39v643q-112 54 -256 54z" />
    <glyph glyph-name="Emacron" unicode="&#x112;" horiz-adv-x="1230" 
d="M1105 1430v-150h-750v-480h715v-150h-715v-500h765v-150h-950v1430h935zM895 1810v-150h-500v150h500z" />
    <glyph glyph-name="emacron" unicode="&#x113;" horiz-adv-x="1130" 
d="M575 902q-272 0 -290 -276h568q-6 276 -278 276zM583 1050q448 0 448 -443q0 -63 -9 -135h-737q0 -322 376 -322q179 0 318 40v-150q-139 -40 -338 -40q-541 0 -541 537q0 513 483 513zM816 1430v-150h-500v150h500z" />
    <glyph glyph-name="Ebreve" unicode="&#x114;" horiz-adv-x="1230" 
d="M1105 1430v-150h-750v-480h715v-150h-715v-500h765v-150h-950v1430h935zM380 1810h135q0 -150 130 -150t130 150h135q0 -260 -265 -260t-265 260z" />
    <glyph glyph-name="ebreve" unicode="&#x115;" horiz-adv-x="1130" 
d="M575 902q-272 0 -290 -276h568q-6 276 -278 276zM583 1050q448 0 448 -443q0 -63 -9 -135h-737q0 -322 376 -322q179 0 318 40v-150q-139 -40 -338 -40q-541 0 -541 537q0 513 483 513zM301 1430h135q0 -150 130 -150t130 150h135q0 -260 -265 -260t-265 260z" />
    <glyph glyph-name="Edotaccent" unicode="&#x116;" horiz-adv-x="1230" 
d="M1105 1430v-150h-750v-480h715v-150h-715v-500h765v-150h-950v1430h935zM748 1810v-190h-205v190h205z" />
    <glyph glyph-name="edotaccent" unicode="&#x117;" horiz-adv-x="1130" 
d="M575 902q-272 0 -290 -276h568q-6 276 -278 276zM583 1050q448 0 448 -443q0 -63 -9 -135h-737q0 -322 376 -322q179 0 318 40v-150q-139 -40 -338 -40q-541 0 -541 537q0 513 483 513zM688 1430v-190h-205v190h205z" />
    <glyph glyph-name="Eogonek" unicode="&#x118;" horiz-adv-x="1230" 
d="M170 0v1430h935v-150h-750v-480h715v-150h-715v-500h765v-150q-202 -126 -202 -228q0 -68 85 -68t137 20v-130q-61 -20 -149 -20q-231 0 -231 173q0 131 165 253h-755z" />
    <glyph glyph-name="eogonek" unicode="&#x119;" horiz-adv-x="1130" 
d="M641 0q-541 0 -541 537q0 513 473 513q458 0 458 -445q0 -62 -9 -133h-737q0 -322 376 -322q179 0 318 40v-150q-202 -166 -202 -268q0 -68 85 -68t137 20v-130q-61 -20 -149 -20q-231 0 -231 173q0 123 155 267q-63 -14 -133 -14zM575 902q-272 0 -290 -276h568
q-6 276 -278 276z" />
    <glyph glyph-name="Ecaron" unicode="&#x11a;" horiz-adv-x="1230" 
d="M1105 1430v-150h-750v-480h715v-150h-715v-500h765v-150h-950v1430h935zM395 1810h150l100 -160l100 160h150l-175 -260h-150z" />
    <glyph glyph-name="ecaron" unicode="&#x11b;" horiz-adv-x="1130" 
d="M575 902q-272 0 -290 -276h568q-6 276 -278 276zM583 1050q448 0 448 -443q0 -63 -9 -135h-737q0 -322 376 -322q179 0 318 40v-150q-139 -40 -338 -40q-541 0 -541 537q0 513 483 513zM335 1430h150l100 -160l100 160h150l-175 -260h-150z" />
    <glyph glyph-name="Gcircumflex" unicode="&#x11c;" horiz-adv-x="1385" 
d="M877 -10q-777 0 -777 745q0 705 750 705q215 0 400 -60v-160q-185 70 -380 70q-585 0 -585 -555q0 -595 576 -595q92 0 204 24v486h185v-594q-173 -66 -373 -66zM710 1810h150l175 -260h-150l-100 160l-100 -160h-150z" />
    <glyph glyph-name="gcircumflex" unicode="&#x11d;" horiz-adv-x="1187" 
d="M1037 0q0 -380 -483 -380q-194 0 -344 50v150q153 -50 346 -50q296 0 296 230v50q-118 -50 -254 -50q-498 0 -498 525t525 525q213 0 412 -43v-1007zM617 896q-335 0 -335 -368t317 -368q144 0 253 54v658q-95 24 -235 24zM544 1430h150l175 -260h-150l-100 160
l-100 -160h-150z" />
    <glyph glyph-name="Gbreve" unicode="&#x11e;" horiz-adv-x="1385" 
d="M877 -10q-777 0 -777 745q0 705 750 705q215 0 400 -60v-160q-185 70 -380 70q-585 0 -585 -555q0 -595 576 -595q92 0 204 24v486h185v-594q-173 -66 -373 -66zM520 1810h135q0 -150 130 -150t130 150h135q0 -260 -265 -260t-265 260z" />
    <glyph glyph-name="gbreve" unicode="&#x11f;" horiz-adv-x="1187" 
d="M1037 0q0 -380 -483 -380q-194 0 -344 50v150q153 -50 346 -50q296 0 296 230v50q-118 -50 -254 -50q-498 0 -498 525t525 525q213 0 412 -43v-1007zM617 896q-335 0 -335 -368t317 -368q144 0 253 54v658q-95 24 -235 24zM344 1430h135q0 -150 130 -150t130 150h135
q0 -260 -265 -260t-265 260z" />
    <glyph glyph-name="Gdotaccent" unicode="&#x120;" horiz-adv-x="1385" 
d="M877 -10q-777 0 -777 745q0 705 750 705q215 0 400 -60v-160q-185 70 -380 70q-585 0 -585 -555q0 -595 576 -595q92 0 204 24v486h185v-594q-173 -66 -373 -66zM938 1810v-190h-205v190h205z" />
    <glyph glyph-name="gdotaccent" unicode="&#x121;" horiz-adv-x="1187" 
d="M1037 0q0 -380 -483 -380q-194 0 -344 50v150q153 -50 346 -50q296 0 296 230v50q-118 -50 -254 -50q-498 0 -498 525t525 525q213 0 412 -43v-1007zM617 896q-335 0 -335 -368t317 -368q144 0 253 54v658q-95 24 -235 24zM731 1430v-190h-205v190h205z" />
    <glyph glyph-name="Gcommaaccent" unicode="&#x122;" horiz-adv-x="1385" 
d="M877 -10q-777 0 -777 745q0 705 750 705q215 0 400 -60v-160q-185 70 -380 70q-585 0 -585 -555q0 -595 576 -595q92 0 204 24v486h185v-594q-173 -66 -373 -66zM843 -100l-150 -280h-185l150 280h185z" />
    <glyph glyph-name="gcommaaccent" unicode="&#x123;" horiz-adv-x="1187" 
d="M807 1430l-150 -280h-185l150 280h185zM1037 0q0 -380 -483 -380q-194 0 -344 50v150q153 -50 346 -50q296 0 296 230v50q-118 -50 -254 -50q-498 0 -498 525t525 525q213 0 412 -43v-1007zM617 896q-335 0 -335 -368t317 -368q144 0 253 54v658q-95 24 -235 24z" />
    <glyph glyph-name="Hcircumflex" unicode="&#x124;" horiz-adv-x="1555" 
d="M170 0v1430h185v-630h845v630h185v-1430h-185v650h-845v-650h-185zM703 1810h150l175 -260h-150l-100 160l-100 -160h-150z" />
    <glyph glyph-name="hcircumflex" unicode="&#x125;" 
d="M150 0v1430h185v-494q134 114 327 114q393 0 393 -391v-659h-185v662q0 234 -233 234q-159 0 -302 -133v-763h-185zM178 1835h150l175 -260h-150l-100 160l-100 -160h-150z" />
    <glyph glyph-name="Hbar" unicode="&#x126;" horiz-adv-x="1555" 
d="M355 1050v-250h845v250h-845zM1200 1200v230h185v-1430h-185v650h-845v-650h-185v1430h185v-230h845z" />
    <glyph glyph-name="hbar" unicode="&#x127;" 
d="M335 1140v-204q134 114 327 114q393 0 393 -391v-659h-185v662q0 234 -233 234q-159 0 -302 -133v-763h-185v1430h185v-140h720v-150h-720z" />
    <glyph glyph-name="Itilde" unicode="&#x128;" horiz-adv-x="585" 
d="M386 1430v-1430h-185v1430h185zM164 1810q61 0 119 -26q57 -26 123 -26t137 46v-150q-60 -46 -121 -46t-119 26q-57 26 -123 26t-137 -46v150q60 46 121 46z" />
    <glyph glyph-name="itilde" unicode="&#x129;" horiz-adv-x="525" 
d="M356 1050v-1050h-185v1050h185zM134 1430q61 0 119 -26q57 -26 123 -26t137 46v-150q-60 -46 -121 -46t-119 26q-57 26 -123 26t-137 -46v150q60 46 121 46z" />
    <glyph glyph-name="Imacron" unicode="&#x12a;" horiz-adv-x="585" 
d="M386 1430v-1430h-185v1430h185zM543 1810v-150h-500v150h500z" />
    <glyph glyph-name="imacron" unicode="&#x12b;" horiz-adv-x="525" 
d="M356 1050v-1050h-185v1050h185zM513 1430v-150h-500v150h500z" />
    <glyph glyph-name="Ibreve" unicode="&#x12c;" horiz-adv-x="585" 
d="M386 1430v-1430h-185v1430h185zM28 1810h135q0 -150 130 -150t130 150h135q0 -260 -265 -260t-265 260z" />
    <glyph glyph-name="ibreve" unicode="&#x12d;" horiz-adv-x="525" 
d="M356 1050v-1050h-185v1050h185zM-2 1430h135q0 -150 130 -150t130 150h135q0 -260 -265 -260t-265 260z" />
    <glyph glyph-name="Iogonek" unicode="&#x12e;" horiz-adv-x="585" 
d="M200 1430h185v-1430q-192 -126 -192 -228q0 -68 85 -68t137 20v-130q-61 -20 -149 -20q-231 0 -231 173q0 131 165 253v1430z" />
    <glyph glyph-name="iogonek" unicode="&#x12f;" horiz-adv-x="525" 
d="M170 1050h185v-1050q-192 -126 -192 -228q0 -68 85 -68t137 20v-130q-61 -20 -149 -20q-231 0 -231 173q0 131 165 253v1050zM355 1430v-175h-185v175h185z" />
    <glyph glyph-name="Idotaccent" unicode="&#x130;" horiz-adv-x="585" 
d="M385 1430v-1430h-185v1430h185zM395 1810v-190h-205v190h205z" />
    <glyph glyph-name="dotlessi" unicode="&#x131;" horiz-adv-x="525" 
d="M355 1050v-1050h-185v1050h185z" />
    <glyph glyph-name="IJ" unicode="&#x132;" horiz-adv-x="1245" 
d="M385 1430v-1430h-185v1430h185zM1095 1430v-1018q0 -412 -485 -412v150q300 0 300 262v1018h185z" />
    <glyph glyph-name="ij" unicode="&#x133;" horiz-adv-x="1050" 
d="M355 1430v-175h-185v175h185zM355 1050v-1050h-185v1050h185zM880 1430v-175h-185v175h185zM880 1050v-970q0 -318 -155 -478l-155 105q125 135 125 373v970h185z" />
    <glyph glyph-name="Jcircumflex" unicode="&#x134;" horiz-adv-x="690" 
d="M510 1430v-1018q0 -412 -485 -412v150q300 0 300 262v1018h185zM343 1810h150l175 -260h-150l-100 160l-100 -160h-150z" />
    <glyph glyph-name="jcircumflex" unicode="&#x135;" horiz-adv-x="525" 
d="M185 1430h150l175 -260h-150l-100 160l-100 -160h-150zM355 1050v-970q0 -318 -155 -478l-155 105q125 135 125 373v970h185z" />
    <glyph glyph-name="Kcommaaccent" unicode="&#x136;" horiz-adv-x="1400" 
d="M1361 1430l-644 -675l658 -755h-257l-583 688v112l592 630h234zM355 1430v-1430h-185v1430h185zM840 -100l-150 -280h-185l150 280h185z" />
    <glyph glyph-name="kcommaaccent" unicode="&#x137;" horiz-adv-x="1181" 
d="M150 0v1430h185v-462q153 82 353 82q392 0 392 -303q0 -220 -300 -304l336 -443h-234l-334 445v83q347 31 347 220q0 152 -220 152q-173 0 -340 -94v-806h-185zM701 -100l-150 -280h-185l150 280h185z" />
    <glyph glyph-name="kgreenlandic" unicode="&#x138;" horiz-adv-x="1082" 
d="M150 0v1050h185v-1050h-185zM1076 1050l-456 -489l462 -561h-237l-394 505v103l397 442h228z" />
    <glyph glyph-name="Lacute" unicode="&#x139;" horiz-adv-x="1153" 
d="M355 1430v-1280h748v-150h-933v1430h185zM336 1810h239l-239 -239h-164z" />
    <glyph glyph-name="lacute" unicode="&#x13a;" horiz-adv-x="505" 
d="M345 1430v-1430h-185v1430h185zM215 1835h239l-239 -239h-164z" />
    <glyph glyph-name="Lcommaaccent" unicode="&#x13b;" horiz-adv-x="1153" 
d="M355 1430v-1280h748v-150h-933v1430h185zM754 -100l-150 -280h-185l150 280h185z" />
    <glyph glyph-name="lcommaaccent" unicode="&#x13c;" horiz-adv-x="505" 
d="M345 1430v-1430h-185v1430h185zM340 -100l-150 -280h-185l150 280h185z" />
    <glyph glyph-name="Lcaron" unicode="&#x13d;" horiz-adv-x="1153" 
d="M880 1430l-150 -435h-185l150 435h185zM355 1430v-1280h748v-150h-933v1430h185z" />
    <glyph glyph-name="lcaron" unicode="&#x13e;" horiz-adv-x="505" 
d="M780 1430l-150 -435h-185l150 435h185zM345 1430v-1430h-185v1430h185z" />
    <glyph glyph-name="Ldot" unicode="&#x13f;" horiz-adv-x="1153" 
d="M355 1430v-1280h748v-150h-933v1430h185zM578 715q0 125 125 125t125 -125t-125 -125t-125 125z" />
    <glyph glyph-name="ldot" unicode="&#x140;" horiz-adv-x="505" 
d="M345 1430v-1430h-185v1430h185zM485 585q0 125 125 125t125 -125t-125 -125t-125 125z" />
    <glyph glyph-name="Lslash" unicode="&#x141;" horiz-adv-x="1133" 
d="M150 1430h185v-582l323 238v-180l-323 -238v-518h748v-150h-933v532l-150 -110v180l150 110v718z" />
    <glyph glyph-name="lslash" unicode="&#x142;" horiz-adv-x="505" 
d="M160 1430h185v-579l150 111v-180l-150 -111v-671h-185v533l-150 -111v180l150 111v717z" />
    <glyph glyph-name="Nacute" unicode="&#x143;" horiz-adv-x="1575" 
d="M170 0v1430h185l875 -1152v1152h175v-1430h-185l-875 1162v-1162h-175zM817 1810h239l-239 -239h-164z" />
    <glyph glyph-name="nacute" unicode="&#x144;" 
d="M150 0v1050h125l33 -134q161 134 354 134q393 0 393 -391v-659h-185v662q0 234 -233 234q-159 0 -302 -133v-763h-185zM632 1430h239l-239 -239h-164z" />
    <glyph glyph-name="Ncommaaccent" unicode="&#x145;" horiz-adv-x="1575" 
d="M170 0v1430h185l875 -1152v1152h175v-1430h-185l-875 1162v-1162h-175zM905 -100l-150 -280h-185l150 280h185z" />
    <glyph glyph-name="ncommaaccent" unicode="&#x146;" 
d="M150 0v1050h125l33 -134q161 134 354 134q393 0 393 -391v-659h-185v662q0 234 -233 234q-159 0 -302 -133v-763h-185zM720 -100l-150 -280h-185l150 280h185z" />
    <glyph glyph-name="Ncaron" unicode="&#x147;" horiz-adv-x="1575" 
d="M170 0v1430h185l875 -1152v1152h175v-1430h-185l-875 1162v-1162h-175zM538 1810h150l100 -160l100 160h150l-175 -260h-150z" />
    <glyph glyph-name="ncaron" unicode="&#x148;" 
d="M150 0v1050h125l33 -134q161 134 354 134q393 0 393 -391v-659h-185v662q0 234 -233 234q-159 0 -302 -133v-763h-185zM353 1430h150l100 -160l100 160h150l-175 -260h-150z" />
    <glyph glyph-name="napostrophe" unicode="&#x149;" horiz-adv-x="1305" 
d="M185 1430l-150 -435h-185l150 435h185zM250 0v1050h125l33 -134q161 134 354 134q393 0 393 -391v-659h-185v662q0 234 -233 234q-159 0 -302 -133v-763h-185z" />
    <glyph glyph-name="Eng" unicode="&#x14a;" horiz-adv-x="1575" 
d="M345 0h-175v1430h185l875 -1152v1152h175v-1350q0 -318 -155 -478l-155 105q104 113 122 297l-872 1158v-1162z" />
    <glyph glyph-name="eng" unicode="&#x14b;" 
d="M870 662q0 234 -233 234q-159 0 -302 -133v-763h-185v1050h125l33 -134q161 134 354 134q393 0 393 -391v-579q0 -318 -155 -478l-155 105q125 135 125 373v582z" />
    <glyph glyph-name="Omacron" unicode="&#x14c;" horiz-adv-x="1665" 
d="M838 -10q-718 0 -718 725t718 725q707 0 707 -725t-707 -725zM838 140q512 0 512 575t-512 575q-523 0 -523 -575t523 -575zM1083 1810v-150h-500v150h500z" />
    <glyph glyph-name="omacron" unicode="&#x14d;" horiz-adv-x="1200" 
d="M600 1050q500 0 500 -524t-499 -525q-499 1 -500 525t499 524zM600 150q315 0 315 375t-315 375t-315 -375t315 -375zM850 1430v-150h-500v150h500z" />
    <glyph glyph-name="Obreve" unicode="&#x14e;" horiz-adv-x="1665" 
d="M838 -10q-718 0 -718 725t718 725q707 0 707 -725t-707 -725zM838 140q512 0 512 575t-512 575q-523 0 -523 -575t523 -575zM568 1810h135q0 -150 130 -150t130 150h135q0 -260 -265 -260t-265 260z" />
    <glyph glyph-name="obreve" unicode="&#x14f;" horiz-adv-x="1200" 
d="M600 1050q500 0 500 -524t-499 -525q-499 1 -500 525t499 524zM600 150q315 0 315 375t-315 375t-315 -375t315 -375zM335 1430h135q0 -150 130 -150t130 150h135q0 -260 -265 -260t-265 260z" />
    <glyph glyph-name="Ohungarumlaut" unicode="&#x150;" horiz-adv-x="1665" 
d="M838 -10q-718 0 -718 725t718 725q707 0 707 -725t-707 -725zM838 140q512 0 512 575t-512 575q-523 0 -523 -575t523 -575zM1043 1810h239l-239 -239h-164zM667 1810h239l-239 -239h-164z" />
    <glyph glyph-name="ohungarumlaut" unicode="&#x151;" horiz-adv-x="1200" 
d="M600 1050q500 0 500 -524t-499 -525q-499 1 -500 525t499 524zM600 150q315 0 315 375t-315 375t-315 -375t315 -375zM811 1430h239l-239 -239h-164zM435 1430h239l-239 -239h-164z" />
    <glyph glyph-name="OE" unicode="&#x152;" horiz-adv-x="2215" 
d="M818 0q-718 0 -718 715t718 715h1257v-150h-775q195 -148 225 -480h515v-150h-515q-30 -357 -225 -500h790v-150h-1272zM818 150q512 0 512 565t-512 565q-523 0 -523 -565t523 -565z" />
    <glyph glyph-name="oe" unicode="&#x153;" horiz-adv-x="1949" 
d="M600 1q-498 1 -499 525t499 524q284 0 407 -199q118 199 395 199q448 0 448 -443q0 -63 -9 -135h-737q0 -322 376 -322q179 0 318 40v-150q-139 -40 -338 -40q-317 0 -447 210q-121 -209 -413 -209zM1394 902q-272 0 -290 -276h568q-6 276 -278 276zM600 150
q315 0 315 375t-315 375t-315 -375t315 -375z" />
    <glyph glyph-name="Racute" unicode="&#x154;" horiz-adv-x="1305" 
d="M170 0v1430h610q408 0 408 -343q0 -279 -399 -413l491 -674h-244l-455 643v121q410 65 410 315q0 198 -228 198h-408v-1277h-185zM655 1810h239l-239 -239h-164z" />
    <glyph glyph-name="racute" unicode="&#x155;" horiz-adv-x="675" 
d="M150 0v1050h125l33 -134q138 134 332 134v-154q-188 0 -305 -133v-763h-185zM425 1430h239l-239 -239h-164z" />
    <glyph glyph-name="Rcommaaccent" unicode="&#x156;" horiz-adv-x="1305" 
d="M170 0v1430h610q408 0 408 -343q0 -279 -399 -413l491 -674h-244l-455 643v121q410 65 410 315q0 198 -228 198h-408v-1277h-185zM803 -100l-150 -280h-185l150 280h185z" />
    <glyph glyph-name="rcommaaccent" unicode="&#x157;" horiz-adv-x="675" 
d="M150 0v1050h125l33 -134q138 134 332 134v-154q-188 0 -305 -133v-763h-185zM333 -100l-150 -280h-185l150 280h185z" />
    <glyph glyph-name="Rcaron" unicode="&#x158;" horiz-adv-x="1305" 
d="M170 0v1430h610q408 0 408 -343q0 -279 -399 -413l491 -674h-244l-455 643v121q410 65 410 315q0 198 -228 198h-408v-1277h-185zM365 1810h150l100 -160l100 160h150l-175 -260h-150z" />
    <glyph glyph-name="rcaron" unicode="&#x159;" horiz-adv-x="675" 
d="M150 0v1050h125l33 -134q138 134 332 134v-154q-188 0 -305 -133v-763h-185zM145 1430h150l100 -160l100 160h150l-175 -260h-150z" />
    <glyph glyph-name="Sacute" unicode="&#x15a;" horiz-adv-x="1290" 
d="M636 140q369 0 369 270q0 230 -272 230h-184q-449 0 -449 390q0 410 575 410q250 0 465 -60v-170q-215 80 -465 80q-390 0 -390 -260q0 -230 264 -230h184q457 0 457 -390q0 -420 -554 -420q-261 0 -486 60v170q225 -80 486 -80zM675 1810h239l-239 -239h-164z" />
    <glyph glyph-name="sacute" unicode="&#x15b;" horiz-adv-x="1050" 
d="M514 150q251 0 251 150q0 140 -175 140h-150q-340 0 -340 310q0 300 437 300q188 0 373 -50v-160q-185 60 -373 60q-262 0 -262 -150q0 -140 165 -140h150q360 0 360 -310q0 -300 -436 -300q-189 0 -374 50v160q185 -60 374 -60zM555 1430h239l-239 -239h-164z" />
    <glyph glyph-name="Scircumflex" unicode="&#x15c;" horiz-adv-x="1290" 
d="M636 140q369 0 369 270q0 230 -272 230h-184q-449 0 -449 390q0 410 575 410q250 0 465 -60v-170q-215 80 -465 80q-390 0 -390 -260q0 -230 264 -230h184q457 0 457 -390q0 -420 -554 -420q-261 0 -486 60v170q225 -80 486 -80zM570 1810h150l175 -260h-150l-100 160
l-100 -160h-150z" />
    <glyph glyph-name="scircumflex" unicode="&#x15d;" horiz-adv-x="1050" 
d="M514 150q251 0 251 150q0 140 -175 140h-150q-340 0 -340 310q0 300 437 300q188 0 373 -50v-160q-185 60 -373 60q-262 0 -262 -150q0 -140 165 -140h150q360 0 360 -310q0 -300 -436 -300q-189 0 -374 50v160q185 -60 374 -60zM450 1430h150l175 -260h-150l-100 160
l-100 -160h-150z" />
    <glyph glyph-name="Scedilla" unicode="&#x15e;" horiz-adv-x="1290" 
d="M636 140q369 0 369 270q0 230 -272 230h-184q-449 0 -449 390q0 410 575 410q250 0 465 -60v-170q-215 80 -465 80q-390 0 -390 -260q0 -230 264 -230h184q457 0 457 -390q0 -420 -554 -420h-10l-36 -67q214 -1 214 -173t-241 -172q-108 0 -216 50v108q108 -50 216 -50
t108 64t-83 65h-183l90 180q-182 11 -345 55v170q225 -80 486 -80z" />
    <glyph glyph-name="scedilla" unicode="&#x15f;" horiz-adv-x="1050" 
d="M514 150q251 0 251 150q0 140 -175 140h-150q-340 0 -340 310q0 300 437 300q188 0 373 -50v-160q-185 60 -373 60q-262 0 -262 -150q0 -140 165 -140h150q360 0 360 -310q0 -287 -399 -299l-41 -78q214 -1 214 -173t-241 -172q-108 0 -216 50v108q108 -50 216 -50
t108 64t-83 65h-183l95 188q-141 9 -280 47v160q185 -60 374 -60z" />
    <glyph glyph-name="Scaron" unicode="&#x160;" horiz-adv-x="1290" 
d="M636 140q369 0 369 270q0 230 -272 230h-184q-449 0 -449 390q0 410 575 410q250 0 465 -60v-170q-215 80 -465 80q-390 0 -390 -260q0 -230 264 -230h184q457 0 457 -390q0 -420 -554 -420q-261 0 -486 60v170q225 -80 486 -80zM395 1810h150l100 -160l100 160h150
l-175 -260h-150z" />
    <glyph glyph-name="scaron" unicode="&#x161;" horiz-adv-x="1050" 
d="M514 150q251 0 251 150q0 140 -175 140h-150q-340 0 -340 310q0 300 437 300q188 0 373 -50v-160q-185 60 -373 60q-262 0 -262 -150q0 -140 165 -140h150q360 0 360 -310q0 -300 -436 -300q-189 0 -374 50v160q185 -60 374 -60zM275 1430h150l100 -160l100 160h150
l-175 -260h-150z" />
    <glyph glyph-name="Tcommaaccent" unicode="&#x162;" horiz-adv-x="1185" 
d="M1135 1430v-150h-450v-1280h-185v1280h-450v150h1085zM678 -100l-150 -280h-185l150 280h185z" />
    <glyph glyph-name="Tcommaaccent" unicode="&#x21a;" horiz-adv-x="1185" 
d="M1135 1430v-150h-450v-1280h-185v1280h-450v150h1085zM678 -100l-150 -280h-185l150 280h185z" />
    <glyph glyph-name="tcommaaccent" unicode="&#x163;" horiz-adv-x="675" 
d="M150 1220h116l40 -170h284v-150h-255v-603q0 -147 127 -147h128v-150h-176q-264 0 -264 283v937zM460 -100l-150 -280h-185l150 280h185z" />
    <glyph glyph-name="tcommaaccent" unicode="&#x21b;" horiz-adv-x="675" 
d="M150 1220h116l40 -170h284v-150h-255v-603q0 -147 127 -147h128v-150h-176q-264 0 -264 283v937zM460 -100l-150 -280h-185l150 280h185z" />
    <glyph glyph-name="Tcaron" unicode="&#x164;" horiz-adv-x="1185" 
d="M1135 1430v-150h-450v-1280h-185v1280h-450v150h1085zM343 1810h150l100 -160l100 160h150l-175 -260h-150z" />
    <glyph glyph-name="tcaron" unicode="&#x165;" horiz-adv-x="675" 
d="M975 1430l-150 -435h-185l150 435h185zM150 1220h116l40 -170h284v-150h-255v-603q0 -147 127 -147h128v-150h-176q-264 0 -264 283v937z" />
    <glyph glyph-name="Tbar" unicode="&#x166;" horiz-adv-x="1185" 
d="M500 790v490h-450v150h1085v-150h-450v-490h450v-150h-450v-640h-185v640h-450v150h450z" />
    <glyph glyph-name="tbar" unicode="&#x167;" horiz-adv-x="675" 
d="M150 633v587h116l40 -170h284v-150h-255v-267h255v-150h-255v-186q0 -147 127 -147h128v-150h-176q-264 0 -264 283v200h-150v150h150z" />
    <glyph glyph-name="Utilde" unicode="&#x168;" horiz-adv-x="1510" 
d="M160 552v878h185v-878q0 -412 410 -412t410 412v878h185v-878q0 -562 -595 -562t-595 562zM626 1810q61 0 119 -26q57 -26 123 -26t137 46v-150q-60 -46 -121 -46t-119 26q-57 26 -123 26t-137 -46v150q60 46 121 46z" />
    <glyph glyph-name="utilde" unicode="&#x169;" 
d="M1055 1050v-1050h-127l-32 134q-191 -134 -384 -134q-362 0 -362 391v659h185v-662q0 -234 232 -234q159 0 303 133v763h185zM474 1430q61 0 119 -26q57 -26 123 -26t137 46v-150q-60 -46 -121 -46t-119 26q-57 26 -123 26t-137 -46v150q60 46 121 46z" />
    <glyph glyph-name="Umacron" unicode="&#x16a;" horiz-adv-x="1510" 
d="M160 552v878h185v-878q0 -412 410 -412t410 412v878h185v-878q0 -562 -595 -562t-595 562zM1005 1810v-150h-500v150h500z" />
    <glyph glyph-name="umacron" unicode="&#x16b;" 
d="M1055 1050v-1050h-127l-32 134q-191 -134 -384 -134q-362 0 -362 391v659h185v-662q0 -234 232 -234q159 0 303 133v763h185zM853 1430v-150h-500v150h500z" />
    <glyph glyph-name="Ubreve" unicode="&#x16c;" horiz-adv-x="1510" 
d="M160 552v878h185v-878q0 -412 410 -412t410 412v878h185v-878q0 -562 -595 -562t-595 562zM490 1810h135q0 -150 130 -150t130 150h135q0 -260 -265 -260t-265 260z" />
    <glyph glyph-name="ubreve" unicode="&#x16d;" 
d="M1055 1050v-1050h-127l-32 134q-191 -134 -384 -134q-362 0 -362 391v659h185v-662q0 -234 232 -234q159 0 303 133v763h185zM338 1430h135q0 -150 130 -150t130 150h135q0 -260 -265 -260t-265 260z" />
    <glyph glyph-name="Uring" unicode="&#x16e;" horiz-adv-x="1510" 
d="M160 552v878h185v-878q0 -412 410 -412t410 412v878h185v-878q0 -562 -595 -562t-595 562zM529 1640q0 210 226 209q226 1 226 -209t-226 -210t-226 210zM755 1504q136 0 136 136t-136 135q-136 1 -136 -135t136 -136z" />
    <glyph glyph-name="uring" unicode="&#x16f;" 
d="M1055 1050v-1050h-127l-32 134q-191 -134 -384 -134q-362 0 -362 391v659h185v-662q0 -234 232 -234q159 0 303 133v763h185zM377 1362q0 210 226 209q226 1 226 -209t-226 -210t-226 210zM603 1226q136 0 136 136t-136 135q-136 1 -136 -135t136 -136z" />
    <glyph glyph-name="Uhungarumlaut" unicode="&#x170;" horiz-adv-x="1510" 
d="M160 552v878h185v-878q0 -412 410 -412t410 412v878h185v-878q0 -562 -595 -562t-595 562zM956 1810h239l-239 -239h-164zM580 1810h239l-239 -239h-164z" />
    <glyph glyph-name="uhungarumlaut" unicode="&#x171;" 
d="M1055 1050v-1050h-127l-32 134q-191 -134 -384 -134q-362 0 -362 391v659h185v-662q0 -234 232 -234q159 0 303 133v763h185zM803 1430h239l-239 -239h-164zM427 1430h239l-239 -239h-164z" />
    <glyph glyph-name="Uogonek" unicode="&#x172;" horiz-adv-x="1510" 
d="M160 552v878h185v-878q0 -412 410 -412t410 412v878h185v-878q0 -487 -447 -552q-193 -126 -193 -228q0 -68 85 -68t137 20v-130q-61 -20 -149 -20q-231 0 -231 173q0 126 153 244q-545 23 -545 561z" />
    <glyph glyph-name="uogonek" unicode="&#x173;" 
d="M512 0q-362 0 -362 391v659h185v-662q0 -234 232 -234q159 0 303 133v763h185v-1050q-202 -126 -202 -228q0 -68 85 -68t137 20v-130q-61 -20 -149 -20q-231 0 -231 173q0 131 175 253v134q-165 -134 -358 -134z" />
    <glyph glyph-name="Wcircumflex" unicode="&#x174;" horiz-adv-x="1900" 
d="M50 1430h179l201 -1244l404 1244h185l433 -1244l227 1244h171l-269 -1430h-252l-404 1198l-391 -1198h-249zM875 1810h150l175 -260h-150l-100 160l-100 -160h-150z" />
    <glyph glyph-name="wcircumflex" unicode="&#x175;" horiz-adv-x="1539" 
d="M35 1050h187l186 -823l273 823h167l292 -823l168 823h196l-274 -1050h-169l-301 785l-286 -785h-173zM695 1430h150l175 -260h-150l-100 160l-100 -160h-150z" />
    <glyph glyph-name="Ycircumflex" unicode="&#x176;" horiz-adv-x="1300" 
d="M729 0h-185v500l-519 930h205l412 -747l418 747h215l-546 -930v-500zM575 1810h150l175 -260h-150l-100 160l-100 -160h-150z" />
    <glyph glyph-name="ycircumflex" unicode="&#x177;" horiz-adv-x="1050" 
d="M25 1050h201l297 -820l307 820h196l-436 -1081q-116 -286 -348 -357l-71 131q176 77 256 251zM451 1430h150l175 -260h-150l-100 160l-100 -160h-150z" />
    <glyph glyph-name="Ydieresis" unicode="&#x178;" horiz-adv-x="1300" 
d="M729 0h-185v500l-519 930h205l412 -747l418 747h215l-546 -930v-500zM558 1810v-170h-185v170h185zM928 1810v-170h-185v170h185z" />
    <glyph glyph-name="Zacute" unicode="&#x179;" horiz-adv-x="1330" 
d="M1205 1430v-150l-857 -1130h837v-150h-1060v150l884 1130h-864v150h1060zM695 1810h239l-239 -239h-164z" />
    <glyph glyph-name="zacute" unicode="&#x17a;" horiz-adv-x="1040" 
d="M120 1050h820v-150l-627 -760h607v-140h-820v140l635 760h-615v150zM550 1430h239l-239 -239h-164z" />
    <glyph glyph-name="Zdot" unicode="&#x17b;" horiz-adv-x="1330" 
d="M1205 1430v-150l-857 -1130h837v-150h-1060v150l884 1130h-864v150h1060zM768 1810v-190h-205v190h205z" />
    <glyph glyph-name="zdot" unicode="&#x17c;" horiz-adv-x="1040" 
d="M120 1050h820v-150l-627 -760h607v-140h-820v140l635 760h-615v150zM623 1430v-190h-205v190h205z" />
    <glyph glyph-name="Zcaron" unicode="&#x17d;" horiz-adv-x="1330" 
d="M1205 1430v-150l-857 -1130h837v-150h-1060v150l884 1130h-864v150h1060zM415 1810h150l100 -160l100 160h150l-175 -260h-150z" />
    <glyph glyph-name="zcaron" unicode="&#x17e;" horiz-adv-x="1040" 
d="M120 1050h820v-150l-627 -760h607v-140h-820v140l635 760h-615v150zM270 1430h150l100 -160l100 160h150l-175 -260h-150z" />
    <glyph glyph-name="longs" unicode="&#x17f;" horiz-adv-x="506" 
d="M150 0v1101q0 381 412 381q129 0 244 -40v-150q-109 40 -245 40q-226 0 -226 -223v-1109h-185z" />
    <glyph glyph-name="florin" unicode="&#x192;" horiz-adv-x="1047" 
d="M939 1286q-171 0 -214 -216l-24 -120h210l-30 -150h-210l-164 -820q-73 -364 -391 -364q-32 0 -66 4v150q31 -6 58 -6q171 0 214 216l164 820h-190l30 150h190l24 120q73 364 391 364q32 0 66 -4v-150q-31 6 -58 6z" />
    <glyph glyph-name="Scommaaccent" unicode="&#x218;" horiz-adv-x="1290" 
d="M636 140q369 0 369 270q0 230 -272 230h-184q-449 0 -449 390q0 410 575 410q250 0 465 -60v-170q-215 80 -465 80q-390 0 -390 -260q0 -230 264 -230h184q457 0 457 -390q0 -420 -554 -420q-261 0 -486 60v170q225 -80 486 -80zM763 -100l-150 -280h-185l150 280h185z
" />
    <glyph glyph-name="scommaaccent" unicode="&#x219;" horiz-adv-x="1050" 
d="M514 150q251 0 251 150q0 140 -175 140h-150q-340 0 -340 310q0 300 437 300q188 0 373 -50v-160q-185 60 -373 60q-262 0 -262 -150q0 -140 165 -140h150q360 0 360 -310q0 -300 -436 -300q-189 0 -374 50v160q185 -60 374 -60zM643 -100l-150 -280h-185l150 280h185z
" />
    <glyph glyph-name="circumflex" unicode="&#x2c6;" horiz-adv-x="700" 
d="M275 1430h150l175 -260h-150l-100 160l-100 -160h-150z" />
    <glyph glyph-name="caron" unicode="&#x2c7;" horiz-adv-x="700" 
d="M100 1430h150l100 -160l100 160h150l-175 -260h-150z" />
    <glyph glyph-name="breve" unicode="&#x2d8;" horiz-adv-x="730" 
d="M100 1430h135q0 -150 130 -150t130 150h135q0 -260 -265 -260t-265 260z" />
    <glyph glyph-name="dotaccent" unicode="&#x2d9;" horiz-adv-x="405" 
d="M305 1430v-190h-205v190h205z" />
    <glyph glyph-name="ring" unicode="&#x2da;" horiz-adv-x="652" 
d="M100 1362q0 210 226 209q226 1 226 -209t-226 -210t-226 210zM326 1226q136 0 136 136t-136 135q-136 1 -136 -135t136 -136z" />
    <glyph glyph-name="ogonek" unicode="&#x2db;" horiz-adv-x="580" 
d="M258 -228q0 -68 85 -68t137 20v-130q-61 -20 -149 -20q-231 0 -231 173q0 131 165 253h195q-202 -126 -202 -228z" />
    <glyph glyph-name="tilde" unicode="&#x2dc;" horiz-adv-x="700" 
d="M221 1430q61 0 119 -26t124 -26t136 46v-150q-60 -46 -121 -46t-119 26t-124 26t-136 -46v150q60 46 121 46z" />
    <glyph glyph-name="hungarumlaut" unicode="&#x2dd;" horiz-adv-x="979" 
d="M640 1430h239l-239 -239h-164zM264 1430h239l-239 -239h-164z" />
    <glyph glyph-name="commaccent" unicode="&#x326;" horiz-adv-x="385" 
d="M360 -100l-150 -280h-185l150 280h185z" />
    <glyph glyph-name="uni037E" unicode="&#x37e;" horiz-adv-x="535" 
d="M435 185l-150 -435h-185l150 435h185zM435 1050v-185h-185v185h185z" />
    <glyph glyph-name="tonos" unicode="&#x384;" horiz-adv-x="603" 
d="M264 1430h239l-239 -239h-164z" />
    <glyph glyph-name="dieresistonos" unicode="&#x385;" horiz-adv-x="1045" 
d="M464 1430h239l-239 -239h-164zM285 1430v-170h-185v170h185zM945 1430v-170h-185v170h185z" />
    <glyph glyph-name="Alphatonos" unicode="&#x386;" horiz-adv-x="1472" 
d="M264 1430h239l-239 -239h-164zM217 0h-192l607 1430h205l610 -1430h-205l-185 450h-473l51 150h360l-267 648z" />
    <glyph glyph-name="anoteleia" unicode="&#x387;" horiz-adv-x="385" 
d="M285 1050v-185h-185v185h185z" />
    <glyph glyph-name="Epsilontonos" unicode="&#x388;" horiz-adv-x="1483" 
d="M1358 1430v-150h-750v-480h715v-150h-715v-500h765v-150h-950v1430h935zM114 1430h239l-239 -239h-164z" />
    <glyph glyph-name="Etatonos" unicode="&#x389;" horiz-adv-x="1808" 
d="M423 0v1430h185v-630h845v630h185v-1430h-185v650h-845v-650h-185zM114 1430h239l-239 -239h-164z" />
    <glyph glyph-name="Iotatonos" unicode="&#x38a;" horiz-adv-x="838" 
d="M638 1430v-1430h-185v1430h185zM114 1430h239l-239 -239h-164z" />
    <glyph glyph-name="Omicrontonos" unicode="&#x38c;" horiz-adv-x="1768" 
d="M941 -10q-718 0 -718 725t718 725q707 0 707 -725t-707 -725zM941 140q512 0 512 575t-512 575q-523 0 -523 -575t523 -575zM114 1430h239l-239 -239h-164z" />
    <glyph glyph-name="Upsilontonos" unicode="&#x38e;" horiz-adv-x="1653" 
d="M1082 0h-185v500l-519 930h205l412 -747l418 747h215l-546 -930v-500zM114 1430h239l-239 -239h-164z" />
    <glyph glyph-name="Omegatonos" unicode="&#x38f;" horiz-adv-x="1713" 
d="M238 0v150h305q-320 270 -320 650q0 650 685 650t685 -650q0 -380 -320 -650h305v-150h-550v150q380 270 380 650q0 500 -500 500t-500 -500q0 -380 380 -650v-150h-550zM114 1430h239l-239 -239h-164z" />
    <glyph glyph-name="iotadieresistonos" unicode="&#x390;" horiz-adv-x="525" 
d="M355 1050v-1050h-185v1050h185zM204 1430h239l-239 -239h-164zM25 1430v-170h-185v170h185zM685 1430v-170h-185v170h185z" />
    <glyph glyph-name="Alpha" unicode="&#x391;" horiz-adv-x="1472" 
d="M217 0h-192l607 1430h205l610 -1430h-205l-185 450h-473l51 150h360l-267 648z" />
    <glyph glyph-name="Beta" unicode="&#x392;" horiz-adv-x="1330" 
d="M748 150q256 0 256 260q0 253 -343 253h-80v121q410 55 410 296q0 200 -228 200h-408v-1130h393zM170 0v1430h610q408 0 408 -333q0 -244 -266 -349q284 -53 284 -325q0 -423 -447 -423h-589z" />
    <glyph glyph-name="Gamma" unicode="&#x393;" horiz-adv-x="1103" 
d="M170 0v1430h933v-150h-748v-1280h-185z" />
    <glyph glyph-name="Delta" unicode="&#x394;" horiz-adv-x="1472" 
d="M1181 150l-453 1088l-449 -1088h902zM25 0l607 1430h206l609 -1430h-1422z" />
    <glyph glyph-name="Delta" unicode="&#x2206;" horiz-adv-x="1472" 
d="M1181 150l-453 1088l-449 -1088h902zM25 0l607 1430h206l609 -1430h-1422z" />
    <glyph glyph-name="Epsilon" unicode="&#x395;" horiz-adv-x="1230" 
d="M1105 1430v-150h-750v-480h715v-150h-715v-500h765v-150h-950v1430h935z" />
    <glyph glyph-name="Zeta" unicode="&#x396;" horiz-adv-x="1330" 
d="M1205 1430v-150l-857 -1130h837v-150h-1060v150l884 1130h-864v150h1060z" />
    <glyph glyph-name="Eta" unicode="&#x397;" horiz-adv-x="1555" 
d="M170 0v1430h185v-630h845v630h185v-1430h-185v650h-845v-650h-185z" />
    <glyph glyph-name="Theta" unicode="&#x398;" horiz-adv-x="1665" 
d="M493 813h675v-150h-675v150zM838 -10q-718 0 -718 725t718 725q707 0 707 -725t-707 -725zM838 140q512 0 512 575t-512 575q-523 0 -523 -575t523 -575z" />
    <glyph glyph-name="Iota" unicode="&#x399;" horiz-adv-x="585" 
d="M385 1430v-1430h-185v1430h185z" />
    <glyph glyph-name="Kappa" unicode="&#x39a;" horiz-adv-x="1400" 
d="M1361 1430l-644 -675l658 -755h-257l-583 688v112l592 630h234zM355 1430v-1430h-185v1430h185z" />
    <glyph glyph-name="Lambda" unicode="&#x39b;" horiz-adv-x="1472" 
d="M25 0l607 1430h205l610 -1430h-205l-514 1238l-511 -1238h-192z" />
    <glyph glyph-name="Mu" unicode="&#x39c;" horiz-adv-x="1840" 
d="M170 0v1430h235l525 -1193l515 1193h225v-1430h-165v1173l-508 -1173h-146l-516 1173v-1173h-165z" />
    <glyph glyph-name="Nu" unicode="&#x39d;" horiz-adv-x="1575" 
d="M170 0v1430h185l875 -1152v1152h175v-1430h-185l-875 1162v-1162h-175z" />
    <glyph glyph-name="Xi" unicode="&#x39e;" horiz-adv-x="1196" 
d="M160 813h876v-160h-876v160zM100 1430h996v-160h-996v160zM100 160h996v-160h-996v160z" />
    <glyph glyph-name="Omicron" unicode="&#x39f;" horiz-adv-x="1665" 
d="M838 -10q-718 0 -718 725t718 725q707 0 707 -725t-707 -725zM838 140q512 0 512 575t-512 575q-523 0 -523 -575t523 -575z" />
    <glyph glyph-name="Pi" unicode="&#x3a0;" horiz-adv-x="1525" 
d="M170 0v1430h1185v-1430h-185v1280h-815v-1280h-185z" />
    <glyph glyph-name="Rho" unicode="&#x3a1;" horiz-adv-x="1263" 
d="M170 0v1430h580q438 0 438 -383q0 -417 -599 -509l-38 156q440 65 440 345q0 238 -258 238h-378v-1277h-185z" />
    <glyph glyph-name="Sigma" unicode="&#x3a3;" horiz-adv-x="1180" 
d="M100 1430h980v-150h-770l410 -530l-410 -600h770v-150h-980v150l405 600l-405 530v150z" />
    <glyph glyph-name="Tau" unicode="&#x3a4;" horiz-adv-x="1185" 
d="M1135 1430v-150h-450v-1280h-185v1280h-450v150h1085z" />
    <glyph glyph-name="Upsilon" unicode="&#x3a5;" horiz-adv-x="1300" 
d="M729 0h-185v500l-519 930h205l412 -747l418 747h215l-546 -930v-500z" />
    <glyph glyph-name="Phi" unicode="&#x3a6;" horiz-adv-x="1724" 
d="M1430 719q0 415 -476 448v-904q476 34 476 456zM294 719q0 -418 476 -455v902q-476 -36 -476 -447zM100 715q0 565 670 602v113h184v-112q670 -34 670 -604t-670 -602v-112h-184v113q-670 37 -670 602z" />
    <glyph glyph-name="Chi" unicode="&#x3a7;" horiz-adv-x="1410" 
d="M588 715l-563 715h225l450 -572l450 572h225l-562 -715l562 -715h-225l-450 572l-450 -572h-225z" />
    <glyph glyph-name="Psi" unicode="&#x3a8;" horiz-adv-x="1690" 
d="M753 1430h184v-857q448 34 448 415v442h185v-442q0 -531 -633 -566v-422h-184v422q-633 35 -633 566v442h185v-442q0 -381 448 -415v857z" />
    <glyph glyph-name="Omega" unicode="&#x3a9;" horiz-adv-x="1610" 
d="M135 0v150h305q-320 270 -320 650q0 650 685 650t685 -650q0 -380 -320 -650h305v-150h-550v150q380 270 380 650q0 500 -500 500t-500 -500q0 -380 380 -650v-150h-550z" />
    <glyph glyph-name="Omega" unicode="&#x2126;" horiz-adv-x="1610" 
d="M135 0v150h305q-320 270 -320 650q0 650 685 650t685 -650q0 -380 -320 -650h305v-150h-550v150q380 270 380 650q0 500 -500 500t-500 -500q0 -380 380 -650v-150h-550z" />
    <glyph glyph-name="Iotadieresis" unicode="&#x3aa;" horiz-adv-x="585" 
d="M385 1430v-1430h-185v1430h185zM200 1810v-170h-185v170h185zM570 1810v-170h-185v170h185z" />
    <glyph glyph-name="Upsilondieresis" unicode="&#x3ab;" horiz-adv-x="1300" 
d="M729 0h-185v500l-519 930h205l412 -747l418 747h215l-546 -930v-500zM558 1810v-170h-185v170h185zM928 1810v-170h-185v170h185z" />
    <glyph glyph-name="alphatonos" unicode="&#x3ac;" horiz-adv-x="1369" 
d="M550 150q235 0 355 379q-120 371 -355 371q-265 0 -265 -375t265 -375zM550 1050q331 0 444 -324l108 324h187l-198 -528l184 -522h-190l-106 330q-126 -330 -429 -330q-448 0 -450 525q0 525 450 525zM684 1430h239l-239 -239h-164z" />
    <glyph glyph-name="epsilontonos" unicode="&#x3ad;" horiz-adv-x="925" 
d="M505 910q-210 0 -210 -132q0 -158 245 -158h195v-150h-198q-252 0 -252 -180q0 -150 220 -150q170 0 320 60v-160q-150 -50 -320 -50q-405 0 -405 300q0 200 218 255q-208 59 -208 233q0 282 405 282q160 0 310 -50v-160q-150 60 -320 60zM492 1430h239l-239 -239h-164z
" />
    <glyph glyph-name="etatonos" unicode="&#x3ae;" 
d="M150 0v1050h125l33 -134q191 134 384 134q363 0 363 -391v-1039h-185v1042q0 234 -233 234q-159 0 -302 -133v-763h-185zM632 1430h239l-239 -239h-164z" />
    <glyph glyph-name="iotatonos" unicode="&#x3af;" horiz-adv-x="525" 
d="M355 1050v-1050h-185v1050h185zM292 1430h239l-239 -239h-164z" />
    <glyph glyph-name="upsilondieresistonos" unicode="&#x3b0;" horiz-adv-x="1210" 
d="M150 428v622h185v-622q0 -298 270 -298t270 298v622h185v-622q0 -448 -455 -448t-455 448zM547 1430h239l-239 -239h-164zM368 1430v-170h-185v170h185zM1028 1430v-170h-185v170h185z" />
    <glyph glyph-name="alpha" unicode="&#x3b1;" horiz-adv-x="1369" 
d="M550 150q235 0 355 379q-120 371 -355 371q-265 0 -265 -375t265 -375zM550 1050q331 0 444 -324l108 324h187l-198 -528l184 -522h-190l-106 330q-126 -330 -429 -330q-448 0 -450 525q0 525 450 525z" />
    <glyph glyph-name="beta" unicode="&#x3b2;" horiz-adv-x="1196" 
d="M150 -362v1233q0 559 494 559q410 0 410 -336q0 -262 -251 -325q318 -37 318 -388q0 -383 -414 -383q-136 0 -242 60v150q107 -60 244 -60q227 0 227 233q0 308 -371 309v118q318 54 318 286q0 186 -246 186q-302 0 -302 -412v-1230h-185z" />
    <glyph glyph-name="gamma" unicode="&#x3b3;" horiz-adv-x="1080" 
d="M619 -380h-185v380l-399 1050h195l302 -847l308 847h195l-416 -1050v-380z" />
    <glyph glyph-name="delta" unicode="&#x3b4;" horiz-adv-x="1200" 
d="M915 536q0 364 -322 364q-312 0 -312 -370q0 -390 313 -390q321 0 321 396zM593 -10q-493 0 -493 540q0 510 515 510q-165 123 -401 240v150h785v-150h-497q585 -315 598 -740q0 -550 -507 -550z" />
    <glyph glyph-name="epsilon" unicode="&#x3b5;" horiz-adv-x="925" 
d="M505 910q-210 0 -210 -132q0 -158 245 -158h195v-150h-198q-252 0 -252 -180q0 -150 220 -150q170 0 320 60v-160q-150 -50 -320 -50q-405 0 -405 300q0 200 218 255q-208 59 -208 233q0 282 405 282q160 0 310 -50v-160q-150 60 -320 60z" />
    <glyph glyph-name="zeta" unicode="&#x3b6;" horiz-adv-x="1003" 
d="M303 1430h650v-150q-673 -433 -673 -859q0 -271 218 -271h181q264 0 264 -223q0 -206 -319 -327l-70 138q216 69 216 187q0 75 -86 75h-181q-403 0 -403 417q0 449 611 863h-408v150z" />
    <glyph glyph-name="eta" unicode="&#x3b7;" 
d="M150 0v1050h125l33 -134q191 134 384 134q363 0 363 -391v-1039h-185v1042q0 234 -233 234q-159 0 -302 -133v-763h-185z" />
    <glyph glyph-name="theta" unicode="&#x3b8;" horiz-adv-x="1245" 
d="M628 -10q-508 0 -508 725t508 725q497 0 497 -725t-497 -725zM628 1290q-284 0 -310 -470h609q-25 470 -299 470zM628 140q289 0 301 530h-613q13 -530 312 -530z" />
    <glyph glyph-name="iota" unicode="&#x3b9;" horiz-adv-x="525" 
d="M355 1050v-1050h-185v1050h185z" />
    <glyph glyph-name="kappa" unicode="&#x3ba;" horiz-adv-x="1082" 
d="M150 0v1050h185v-1050h-185zM1076 1050l-456 -489l462 -561h-237l-394 505v103l397 442h228z" />
    <glyph glyph-name="lambda" unicode="&#x3bb;" horiz-adv-x="1121" 
d="M462 1036q-90 194 -256 261l71 141q242 -71 358 -357l436 -1081h-206l-313 830l-311 -830h-201z" />
    <glyph glyph-name="nu" unicode="&#x3bd;" horiz-adv-x="1080" 
d="M40 1050h200l301 -823l299 823h200l-427 -1050h-172z" />
    <glyph glyph-name="xi" unicode="&#x3be;" horiz-adv-x="1018" 
d="M621 1430h244v-150h-243q-222 0 -222 -164q0 -194 223 -194h232v-150h-222q-328 0 -328 -351q0 -271 218 -271h181q264 0 264 -223q0 -206 -319 -327l-70 138q216 69 216 187q0 75 -86 75h-181q-403 0 -403 417q0 332 269 431q-179 54 -179 274q0 308 406 308z" />
    <glyph glyph-name="omicron" unicode="&#x3bf;" horiz-adv-x="1200" 
d="M600 1050q500 0 500 -524t-499 -525q-499 1 -500 525t499 524zM600 150q315 0 315 375t-315 375t-315 -375t315 -375z" />
    <glyph glyph-name="pi" unicode="&#x3c0;" horiz-adv-x="1465" 
d="M315 1050h1050v-150h-245v-580q0 -171 175 -171q15 0 30 1v-150q-41 -5 -78 -5q-312 0 -312 325v580h-435v-901h-185v901q-150 0 -290 -60v150q140 60 290 60z" />
    <glyph glyph-name="rho" unicode="&#x3c1;" horiz-adv-x="1212" 
d="M617 1050q495 0 495 -500q0 -550 -528 -550q-146 0 -264 60v-440h-185v930q0 500 482 500zM583 160q347 0 347 390q0 346 -315 346q-295 0 -295 -346v-326q109 -64 263 -64z" />
    <glyph glyph-name="sigma1" unicode="&#x3c2;" horiz-adv-x="993" 
d="M669 900q-389 0 -389 -359q0 -233 206 -297l157 -45q300 -74 300 -304q0 -275 -440 -275v150q257 0 257 121q0 96 -141 140l-199 61q-320 79 -320 445q0 513 569 513q133 0 245 -50v-150q-112 50 -245 50z" />
    <glyph glyph-name="sigma" unicode="&#x3c3;" horiz-adv-x="1277" 
d="M610 1050h617v-150h-261q134 -129 134 -375q0 -524 -499 -524q-499 1 -500 525t509 524zM600 150q315 0 315 375t-305 375q-325 0 -325 -375t315 -375z" />
    <glyph glyph-name="tau" unicode="&#x3c4;" horiz-adv-x="849" 
d="M0 1050h774v-150h-315v-530q0 -221 216 -221q14 0 29 1v-150q-41 -4 -77 -4q-353 0 -353 374v530h-274v150z" />
    <glyph glyph-name="upsilon" unicode="&#x3c5;" horiz-adv-x="1210" 
d="M150 428v622h185v-622q0 -298 270 -298t270 298v622h185v-622q0 -448 -455 -448t-455 448z" />
    <glyph glyph-name="phi" unicode="&#x3c6;" horiz-adv-x="1505" 
d="M1220 550q0 350 -203 350q-182 0 -182 -245v-525q385 20 385 420zM285 550q0 -400 365 -420v525q0 395 364 395q391 0 391 -500q0 -550 -570 -570v-360h-185v360q-550 20 -550 570q0 275 180 500h205q-200 -225 -200 -500z" />
    <glyph glyph-name="chi" unicode="&#x3c7;" horiz-adv-x="1130" 
d="M463 335l-423 715h205l320 -542l320 542h205l-422 -715l422 -715h-205l-320 542l-320 -542h-205z" />
    <glyph glyph-name="psi" unicode="&#x3c8;" horiz-adv-x="1610" 
d="M712 1050h186v-906q377 38 377 394v512h185v-512q0 -508 -562 -545v-373h-186v373q-562 37 -562 545v512h185v-512q0 -356 377 -394v906z" />
    <glyph glyph-name="omega" unicode="&#x3c9;" horiz-adv-x="1675" 
d="M305 550q0 -400 215 -400q225 0 225 675h185q0 -675 225 -675q215 0 215 400q0 275 -130 500h185q130 -225 130 -500q0 -550 -400 -550q-235 0 -320 319q-80 -319 -315 -319q-400 0 -400 550q0 275 130 500h185q-130 -225 -130 -500z" />
    <glyph glyph-name="iotadieresis" unicode="&#x3ca;" horiz-adv-x="525" 
d="M355 1050v-1050h-185v1050h185zM170 1430v-170h-185v170h185zM540 1430v-170h-185v170h185z" />
    <glyph glyph-name="upsilondieresis" unicode="&#x3cb;" horiz-adv-x="1210" 
d="M150 428v622h185v-622q0 -298 270 -298t270 298v622h185v-622q0 -448 -455 -448t-455 448zM513 1430v-170h-185v170h185zM883 1430v-170h-185v170h185z" />
    <glyph glyph-name="omicrontonos" unicode="&#x3cc;" horiz-adv-x="1200" 
d="M600 1050q500 0 500 -524t-499 -525q-499 1 -500 525t499 524zM600 150q315 0 315 375t-315 375t-315 -375t315 -375zM630 1430h239l-239 -239h-164z" />
    <glyph glyph-name="upsilontonos" unicode="&#x3cd;" horiz-adv-x="1210" 
d="M150 428v622h185v-622q0 -298 270 -298t270 298v622h185v-622q0 -448 -455 -448t-455 448zM635 1430h239l-239 -239h-164z" />
    <glyph glyph-name="omegatonos" unicode="&#x3ce;" horiz-adv-x="1675" 
d="M305 550q0 -400 215 -400q225 0 225 675h185q0 -675 225 -675q215 0 215 400q0 275 -130 500h185q130 -225 130 -500q0 -550 -400 -550q-235 0 -320 319q-80 -319 -315 -319q-400 0 -400 550q0 275 130 500h185q-130 -225 -130 -500zM867 1430h239l-239 -239h-164z" />
    <glyph glyph-name="afii10023" unicode="&#x401;" horiz-adv-x="1230" 
d="M1105 1430v-150h-750v-480h715v-150h-715v-500h765v-150h-950v1430h935zM553 1810v-170h-185v170h185zM923 1810v-170h-185v170h185z" />
    <glyph glyph-name="afii10017" unicode="&#x410;" horiz-adv-x="1472" 
d="M217 0h-192l607 1430h205l610 -1430h-205l-185 450h-473l51 150h360l-267 648z" />
    <glyph glyph-name="afii10018" unicode="&#x411;" horiz-adv-x="1311" 
d="M1171 1430v-150h-815v-1127h407q238 0 238 249q0 268 -292 268h-188v150h197q468 0 468 -407q0 -413 -406 -413h-610v1430h1001z" />
    <glyph glyph-name="afii10019" unicode="&#x412;" horiz-adv-x="1330" 
d="M748 150q256 0 256 260q0 253 -343 253h-80v121q410 55 410 296q0 200 -228 200h-408v-1130h393zM170 0v1430h610q408 0 408 -333q0 -244 -266 -349q284 -53 284 -325q0 -423 -447 -423h-589z" />
    <glyph glyph-name="afii10020" unicode="&#x413;" horiz-adv-x="1103" 
d="M170 0v1430h933v-150h-748v-1280h-185z" />
    <glyph glyph-name="afii10021" unicode="&#x414;" horiz-adv-x="1699" 
d="M0 -380v530h184q415 0 415 1130v150h840v-1280h185v-530h-185v380h-1255v-380h-184zM1254 150v1130h-470q0 -939 -286 -1130h756z" />
    <glyph glyph-name="afii10022" unicode="&#x415;" horiz-adv-x="1230" 
d="M1105 1430v-150h-750v-480h715v-150h-715v-500h765v-150h-950v1430h935z" />
    <glyph glyph-name="afii10024" unicode="&#x416;" horiz-adv-x="2109" 
d="M139 1270h-79v160h107q187 0 351 -302t324 -302v-133q-78 -1 -166 -77t-427 -616h-224q350 546 440 646t165 112q-115 40 -249 276t-242 236zM1147 1430v-1430h-185v1430h185zM1267 693v133q159 0 323 302t352 302h107v-160h-79q-108 0 -242 -236t-249 -276
q75 -12 165 -112t440 -646h-224q-339 540 -427 616t-166 77z" />
    <glyph glyph-name="afii10025" unicode="&#x417;" horiz-adv-x="1115" 
d="M500 1440q515 0 515 -390q0 -236 -188 -325q188 -85 188 -325q0 -410 -515 -410q-200 0 -400 60v160q200 -70 400 -70q330 0 330 260q0 250 -252 250h-328v150h325q255 0 255 250q0 240 -330 240q-200 0 -400 -70v160q200 60 400 60z" />
    <glyph glyph-name="afii10026" unicode="&#x418;" horiz-adv-x="1525" 
d="M1180 0v1182l-825 -1182h-185v1430h175v-1182l825 1182h185v-1430h-175z" />
    <glyph glyph-name="afii10027" unicode="&#x419;" horiz-adv-x="1525" 
d="M490 1784h135q0 -160 140 -160t140 160h135q0 -270 -275 -270t-275 270zM1180 0v1182l-825 -1182h-185v1430h175v-1182l825 1182h185v-1430h-175z" />
    <glyph glyph-name="afii10028" unicode="&#x41a;" horiz-adv-x="1317" 
d="M355 1430v-1430h-185v1430h185zM475 693v133q159 0 323 302t352 302h107v-160h-79q-108 0 -242 -236t-249 -276q75 -12 165 -112t440 -646h-224q-339 540 -427 616t-166 77z" />
    <glyph glyph-name="afii10029" unicode="&#x41b;" horiz-adv-x="1524" 
d="M0 150q414 0 414 650v630h940v-1430h-185v1280h-570v-480q0 -800 -599 -800v150z" />
    <glyph glyph-name="afii10030" unicode="&#x41c;" horiz-adv-x="1840" 
d="M170 0v1430h235l525 -1193l515 1193h225v-1430h-165v1173l-508 -1173h-146l-516 1173v-1173h-165z" />
    <glyph glyph-name="afii10031" unicode="&#x41d;" horiz-adv-x="1525" 
d="M170 0v1430h185v-620h815v620h185v-1430h-185v660h-815v-660h-185z" />
    <glyph glyph-name="afii10032" unicode="&#x41e;" horiz-adv-x="1665" 
d="M838 -10q-718 0 -718 725t718 725q707 0 707 -725t-707 -725zM838 140q512 0 512 575t-512 575q-523 0 -523 -575t523 -575z" />
    <glyph glyph-name="afii10033" unicode="&#x41f;" horiz-adv-x="1525" 
d="M170 0v1430h1185v-1430h-185v1280h-815v-1280h-185z" />
    <glyph glyph-name="afii10034" unicode="&#x420;" horiz-adv-x="1263" 
d="M170 0v1430h580q438 0 438 -383q0 -417 -599 -509l-38 156q440 65 440 345q0 238 -258 238h-378v-1277h-185z" />
    <glyph glyph-name="afii10035" unicode="&#x421;" horiz-adv-x="1385" 
d="M850 -10q-750 0 -750 745q0 705 750 705q215 0 400 -60v-160q-185 70 -380 70q-585 0 -585 -555q0 -595 585 -595q195 0 380 70v-160q-185 -60 -400 -60z" />
    <glyph glyph-name="afii10036" unicode="&#x422;" horiz-adv-x="1185" 
d="M1135 1430v-150h-450v-1280h-185v1280h-450v150h1085z" />
    <glyph glyph-name="afii10037" unicode="&#x423;" horiz-adv-x="1307" 
d="M400 0q-128 0 -236 70v150q106 -70 233 -70q154 0 217 121l-564 1159h195l463 -981l382 981h192l-493 -1162q-114 -268 -389 -268z" />
    <glyph glyph-name="afii10038" unicode="&#x424;" horiz-adv-x="1724" 
d="M1430 719q0 415 -476 448v-904q476 34 476 456zM294 719q0 -418 476 -455v902q-476 -36 -476 -447zM100 715q0 565 670 602v113h184v-112q670 -34 670 -604t-670 -602v-112h-184v113q-670 37 -670 602z" />
    <glyph glyph-name="afii10039" unicode="&#x425;" horiz-adv-x="1400" 
d="M250 0h-225l562 715l-562 715h225l450 -572l450 572h225l-562 -715l562 -715h-225l-450 572z" />
    <glyph glyph-name="afii10040" unicode="&#x426;" horiz-adv-x="1567" 
d="M170 0v1430h185v-1280h742v1280h185v-1280h185v-530h-185v380h-1112z" />
    <glyph glyph-name="afii10041" unicode="&#x427;" horiz-adv-x="1408" 
d="M1238 1430v-1430h-185v634q-196 -114 -429 -114q-499 0 -499 481v429h185v-432q0 -324 339 -324q229 0 404 133v623h185z" />
    <glyph glyph-name="afii10042" unicode="&#x428;" horiz-adv-x="1875" 
d="M170 0v1430h185v-1280h490v1280h185v-1280h490v1280h185v-1430h-1535z" />
    <glyph glyph-name="afii10043" unicode="&#x429;" horiz-adv-x="1990" 
d="M170 0v1430h185v-1280h490v1280h185v-1280h490v1280h185v-1280h185v-530h-185v380h-1535z" />
    <glyph glyph-name="afii10044" unicode="&#x42a;" horiz-adv-x="1710" 
d="M767 1430v-1277h408q238 0 238 249q0 268 -292 268h-188v150h198q479 0 479 -407q0 -413 -418 -413h-610v1280h-582v150h767z" />
    <glyph glyph-name="afii10045" unicode="&#x42b;" horiz-adv-x="1755" 
d="M1400 0v1430h185v-1430h-185zM355 1430v-1277h408q238 0 238 249q0 268 -292 268h-188v150h198q479 0 479 -407q0 -413 -418 -413h-610v1430h185z" />
    <glyph glyph-name="afii10046" unicode="&#x42c;" horiz-adv-x="1298" 
d="M355 1430v-1277h408q238 0 238 249q0 268 -292 268h-188v150h197q480 0 480 -407q0 -413 -418 -413h-610v1430h185z" />
    <glyph glyph-name="afii10047" unicode="&#x42d;" horiz-adv-x="1375" 
d="M505 140q542 0 582 510h-890v150h891q-33 490 -583 490q-195 0 -380 -70v160q185 60 400 60q750 0 750 -705q0 -745 -750 -745q-215 0 -400 60v160q185 -70 380 -70z" />
    <glyph glyph-name="afii10048" unicode="&#x42e;" horiz-adv-x="2022" 
d="M1345 140q382 0 382 575t-382 575q-393 0 -393 -575t393 -575zM170 0v1430h184v-630h405q34 640 586 640q577 0 577 -725t-577 -725q-562 0 -587 660h-404v-650h-184z" />
    <glyph glyph-name="afii10049" unicode="&#x42f;" horiz-adv-x="1305" 
d="M950 0v1277h-408q-228 0 -228 -198q0 -250 410 -315v-131l-465 -633h-234l496 649q-404 139 -404 418q0 363 428 363h590v-1430h-185z" />
    <glyph glyph-name="afii10065" unicode="&#x430;" horiz-adv-x="1135" 
d="M526 490q-241 0 -241 -170t191 -170t324 102v218q-137 20 -274 20zM100 317q0 323 426 323q137 0 274 -20v99q0 181 -283 181q-162 0 -332 -50v150q170 50 332 50q468 0 468 -326v-724h-104l-64 104q-157 -104 -342 -104q-375 0 -375 317z" />
    <glyph glyph-name="afii10066" unicode="&#x431;" horiz-adv-x="1277" 
d="M658 894q-343 0 -343 -377q1 -377 333 -377t332 377t-322 377zM1166 520q0 -530 -518 -530q-523 0 -523 530v325q0 585 544 585q292 0 463 109v-163q-153 -96 -466 -96q-351 0 -351 -425q129 195 343 195q508 0 508 -508v-22z" />
    <glyph glyph-name="afii10067" unicode="&#x432;" horiz-adv-x="1166" 
d="M150 0v1050h590q308 0 308 -263q0 -163 -196 -242q214 -53 214 -232q0 -313 -347 -313h-569zM708 150q156 0 156 160q0 150 -243 150h-80v121q310 35 310 209q0 110 -128 110h-388v-750h373z" />
    <glyph glyph-name="afii10068" unicode="&#x433;" horiz-adv-x="848" 
d="M150 0v1050h698v-150h-513v-900h-185z" />
    <glyph glyph-name="afii10069" unicode="&#x434;" horiz-adv-x="1428" 
d="M0 -380v530h184q244 0 244 750v150h740v-900h185v-530h-185v380h-984v-380h-184zM983 150v750h-370q0 -559 -159 -750h529z" />
    <glyph glyph-name="afii10070" unicode="&#x435;" horiz-adv-x="1130" 
d="M575 902q-272 0 -290 -276h568q-6 276 -278 276zM583 1050q448 0 448 -443q0 -63 -9 -135h-737q0 -322 376 -322q179 0 318 40v-150q-139 -40 -338 -40q-541 0 -541 537q0 513 483 513z" />
    <glyph glyph-name="afii10072" unicode="&#x436;" horiz-adv-x="1720" 
d="M139 889h-79v166h107q189 1 267 -219t238 -220v-123q-138 0 -286 -247l-147 -246h-214l166 264q165 263 283 284q-125 49 -176 195t-159 146zM951 1057v-1057h-185v1057h185zM1048 493v123q160 0 238 220t267 219h107v-166h-79q-108 0 -159 -146t-176 -195
q118 -21 283 -284l166 -264h-214l-147 246q-148 247 -286 247z" />
    <glyph glyph-name="afii10073" unicode="&#x437;" horiz-adv-x="965" 
d="M450 1060q415 0 415 -292q0 -154 -138 -233q138 -75 138 -225q0 -320 -415 -320q-150 0 -350 60v160q200 -70 350 -70q230 0 230 170q0 150 -152 150h-328v150h325q155 0 155 158q0 142 -230 142q-150 0 -350 -70v160q200 60 350 60z" />
    <glyph glyph-name="afii10074" unicode="&#x438;" horiz-adv-x="1225" 
d="M900 0v812l-565 -812h-185v1050h175v-812l565 812h185v-1050h-175z" />
    <glyph glyph-name="afii10075" unicode="&#x439;" horiz-adv-x="1225" 
d="M900 0v812l-565 -812h-185v1050h175v-812l565 812h185v-1050h-175zM348 1430h135q0 -150 130 -150t130 150h135q0 -260 -265 -260t-265 260z" />
    <glyph glyph-name="afii10076" unicode="&#x43a;" horiz-adv-x="1104" 
d="M335 1050v-1050h-185v1050h185zM432 493v123q160 0 238 217t267 217h107v-160h-79q-108 0 -159 -146t-176 -196q118 -21 283 -284l166 -264h-214l-147 246q-148 247 -286 247z" />
    <glyph glyph-name="afii10077" unicode="&#x43b;" horiz-adv-x="1187" 
d="M0 150q237 0 237 270v630h800v-1050h-185v900h-430v-480q0 -420 -422 -420v150z" />
    <glyph glyph-name="afii10078" unicode="&#x43c;" horiz-adv-x="1460" 
d="M150 0v1050h235l355 -833l345 833h225v-1050h-165v803l-338 -803h-146l-346 803v-803h-165z" />
    <glyph glyph-name="afii10079" unicode="&#x43d;" horiz-adv-x="1225" 
d="M150 0v1050h185v-440h555v440h185v-1050h-185v460h-555v-460h-185z" />
    <glyph glyph-name="afii10080" unicode="&#x43e;" horiz-adv-x="1240" 
d="M620 140q335 0 335 385t-335 385t-335 -385t335 -385zM620 1060q520 0 520 -535t-519 -535t-521 535q0 535 520 535z" />
    <glyph glyph-name="afii10081" unicode="&#x43f;" horiz-adv-x="1225" 
d="M150 0v1050h925v-1050h-185v900h-555v-900h-185z" />
    <glyph glyph-name="afii10082" unicode="&#x440;" horiz-adv-x="1217" 
d="M582 1050q535 0 535 -499q0 -551 -538 -551q-126 0 -244 50v-430h-185v1387q209 43 432 43zM578 160q357 0 357 393q0 343 -355 343q-140 0 -245 -24v-658q109 -54 243 -54z" />
    <glyph glyph-name="afii10083" unicode="&#x441;" horiz-adv-x="1025" 
d="M660 0q-560 0 -560 545q0 505 560 505q150 0 280 -30v-150q-130 30 -290 30q-365 0 -365 -355q0 -395 365 -395q160 0 290 30v-150q-130 -30 -280 -30z" />
    <glyph glyph-name="afii10084" unicode="&#x442;" horiz-adv-x="925" 
d="M925 1050v-150h-370v-900h-185v900h-370v150h925z" />
    <glyph glyph-name="afii10085" unicode="&#x443;" horiz-adv-x="1050" 
d="M25 1050h201l297 -820l307 820h196l-436 -1081q-116 -286 -348 -357l-71 131q176 77 256 251z" />
    <glyph glyph-name="afii10086" unicode="&#x444;" horiz-adv-x="1644" 
d="M1350 529q0 348 -436 378v-764q436 30 436 386zM294 529q0 -351 436 -385v762q-436 -33 -436 -377zM100 525q0 498 630 532v373h184v-372q630 -31 630 -533t-630 -533v-372h-184v373q-630 34 -630 532z" />
    <glyph glyph-name="afii10087" unicode="&#x445;" horiz-adv-x="1100" 
d="M240 0h-215l418 525l-418 525h215l310 -390l310 390h215l-418 -525l418 -525h-215l-310 390z" />
    <glyph glyph-name="afii10088" unicode="&#x446;" horiz-adv-x="1386" 
d="M150 0v1050h185v-900h581v900h185v-900h185v-530h-185v380h-951z" />
    <glyph glyph-name="afii10089" unicode="&#x447;" horiz-adv-x="1218" 
d="M1068 1050v-1050h-185v414q-146 -114 -349 -114q-409 0 -409 411v339h185v-342q0 -254 249 -254q199 0 324 133v463h185z" />
    <glyph glyph-name="afii10090" unicode="&#x448;" horiz-adv-x="1635" 
d="M150 0v1050h185v-900h390v900h185v-900h390v900h185v-1050h-1335z" />
    <glyph glyph-name="afii10091" unicode="&#x449;" horiz-adv-x="1770" 
d="M150 0v1050h185v-900h390v900h185v-900h390v900h185v-900h185v-530h-185v380h-1335z" />
    <glyph glyph-name="afii10092" unicode="&#x44a;" horiz-adv-x="1352" 
d="M569 1050v-897h298q198 0 198 169q0 137 -182 137h-178v150h188q359 0 359 -296q0 -313 -368 -313h-500v900h-384v150h569z" />
    <glyph glyph-name="afii10093" unicode="&#x44b;" horiz-adv-x="1510" 
d="M335 1050v-897h318q178 0 178 169q0 137 -182 137h-178v150h187q360 0 360 -296q0 -313 -348 -313h-520v1050h185zM1175 0v1050h185v-1050h-185z" />
    <glyph glyph-name="afii10094" unicode="&#x44c;" horiz-adv-x="1168" 
d="M335 1050v-897h318q178 0 178 169q0 137 -182 137h-178v150h187q360 0 360 -296q0 -313 -348 -313h-520v1050h185z" />
    <glyph glyph-name="afii10095" unicode="&#x44d;" horiz-adv-x="1050" 
d="M360 150q359 0 400 311h-596v150h597q-36 289 -401 289q-130 0 -260 -30v150q130 30 280 30q570 0 570 -505q0 -545 -570 -545q-150 0 -280 30v150q130 -30 260 -30z" />
    <glyph glyph-name="afii10096" unicode="&#x44e;" horiz-adv-x="1702" 
d="M150 0v1050h184v-440h346q37 450 465 450q457 0 457 -535t-457 -535q-439 0 -466 470h-345v-460h-184zM1145 140q262 0 262 385t-262 385q-273 0 -273 -385t273 -385z" />
    <glyph glyph-name="afii10097" unicode="&#x44f;" horiz-adv-x="1145" 
d="M810 0v897h-358q-138 0 -138 -118q0 -140 320 -205v-131l-375 -443h-234l406 469q-314 97 -314 308q0 273 338 273h540v-1050h-185z" />
    <glyph glyph-name="afii10071" unicode="&#x451;" horiz-adv-x="1130" 
d="M575 902q-272 0 -290 -276h568q-6 276 -278 276zM583 1050q448 0 448 -443q0 -63 -9 -135h-737q0 -322 376 -322q179 0 318 40v-150q-139 -40 -338 -40q-541 0 -541 537q0 513 483 513zM473 1430v-170h-185v170h185zM843 1430v-170h-185v170h185z" />
    <glyph glyph-name="endash" unicode="&#x2013;" horiz-adv-x="1200" 
d="M1100 600v-150h-1000v150h1000z" />
    <glyph glyph-name="emdash" unicode="&#x2014;" horiz-adv-x="1700" 
d="M1600 600v-150h-1500v150h1500z" />
    <glyph glyph-name="quoteleft" unicode="&#x2018;" horiz-adv-x="410" 
d="M385 1430l-150 -435h-185l150 435h185z" />
    <glyph glyph-name="quoteright" unicode="&#x2019;" horiz-adv-x="435" 
d="M385 1430l-150 -435h-185l150 435h185z" />
    <glyph glyph-name="quotesinglbase" unicode="&#x201a;" horiz-adv-x="410" 
d="M360 185l-150 -435h-185l150 435h185z" />
    <glyph glyph-name="quotedblleft" unicode="&#x201c;" horiz-adv-x="780" 
d="M385 1430l-150 -435h-185l150 435h185zM755 1430l-150 -435h-185l150 435h185z" />
    <glyph glyph-name="quotedblright" unicode="&#x201d;" horiz-adv-x="780" 
d="M385 1430l-150 -435h-185l150 435h185zM755 1430l-150 -435h-185l150 435h185z" />
    <glyph glyph-name="quotedblbase" unicode="&#x201e;" horiz-adv-x="780" 
d="M360 185l-150 -435h-185l150 435h185zM730 185l-150 -435h-185l150 435h185z" />
    <glyph glyph-name="dagger" unicode="&#x2020;" horiz-adv-x="1045" 
d="M615 1430v-380h380v-150h-380v-1280h-185v1280h-380v150h380v380h185z" />
    <glyph glyph-name="daggerdbl" unicode="&#x2021;" horiz-adv-x="1045" 
d="M615 1430v-380h380v-150h-380v-750h380v-150h-380v-380h-185v380h-380v150h380v750h-380v150h380v380h185z" />
    <glyph glyph-name="bullet" unicode="&#x2022;" horiz-adv-x="630" 
d="M100 725q0 215 215 215t215 -215t-215 -215t-215 215z" />
    <glyph glyph-name="ellipsis" unicode="&#x2026;" horiz-adv-x="1185" 
d="M1085 185v-185h-185v185h185zM685 185v-185h-185v185h185zM285 185v-185h-185v185h185z" />
    <glyph glyph-name="perthousand" unicode="&#x2030;" horiz-adv-x="2107" 
d="M770 250q0 260 276 259q276 1 276 -259t-276 -260t-276 260zM1046 104q146 0 146 146t-146 145q-146 1 -146 -145t146 -146zM1455 250q0 260 276 259q276 1 276 -259t-276 -260t-276 260zM1731 104q146 0 146 146t-146 145q-146 1 -146 -145t146 -146zM100 1180
q0 260 276 260t276 -260t-276 -259q-276 -1 -276 259zM376 1035q146 -1 146 145t-146 146t-146 -146t146 -145zM305 0h-205l1017 1430h205z" />
    <glyph glyph-name="guilsinglleft" unicode="&#x2039;" horiz-adv-x="610" 
d="M100 525l258 375h202l-258 -375l258 -375h-202z" />
    <glyph glyph-name="guilsinglright" unicode="&#x203a;" horiz-adv-x="610" 
d="M252 150h-202l258 375l-258 375h202l258 -375z" />
    <glyph glyph-name="fraction" unicode="&#x2044;" horiz-adv-x="1270" 
d="M285 0h-185l885 1430h185z" />
    <glyph glyph-name="Euro" unicode="&#x20ac;" horiz-adv-x="1385" 
d="M850 -10q-750 0 -750 745q0 705 750 705q215 0 400 -60v-160q-185 70 -380 70q-498 0 -585 -348h773v-150h-793v-110h793v-150h-773q77 -392 585 -392q195 0 380 70v-160q-185 -60 -400 -60z" />
    <glyph glyph-name="trademark" unicode="&#x2122;" horiz-adv-x="1606" 
d="M750 757v673h110l248 -561l242 561h106v-673h-78v543l-239 -543h-69l-243 543v-543h-77zM661 1430v-71h-212v-602h-87v602h-212v71h511z" />
    <glyph glyph-name="partialdiff" unicode="&#x2202;" horiz-adv-x="1217" 
d="M764 700q-362 0 -416 -270q-10 -49 -10 -90q0 -200 236 -200q301 0 423 560h-233zM815 1440q400 0 400 -446q0 -129 -33 -294q-142 -710 -642 -710q-391 0 -391 311q0 59 14 129q87 437 633 437h234q15 82 15 148q0 275 -251 275q-257 0 -441 -140v170q218 120 462 120z
" />
    <glyph glyph-name="product" unicode="&#x220f;" horiz-adv-x="1650" 
d="M1500 1430v-1810h-175v1660h-990v-1660h-185v1810h1350z" />
    <glyph glyph-name="summation" unicode="&#x2211;" horiz-adv-x="1350" 
d="M100 1430h1150v-150h-950l540 -720l-540 -790h950v-150h-1150v150l535 790l-535 720v150z" />
    <glyph glyph-name="radical" unicode="&#x221a;" horiz-adv-x="1350" 
d="M75 1050h365l242 -806l488 1610h180l-600 -1861h-165l-280 907h-230v150z" />
    <glyph glyph-name="infinity" unicode="&#x221e;" horiz-adv-x="1520" 
d="M420 380q130 0 250 145q-120 145 -250 145q-155 0 -155 -145t155 -145zM1255 525q0 145 -155 145q-130 0 -250 -145q120 -145 250 -145q155 0 155 145zM100 525q0 295 320 295q200 0 340 -170q140 170 340 170q320 0 320 -295t-320 -295q-200 0 -340 170
q-140 -170 -340 -170q-320 0 -320 295z" />
    <glyph glyph-name="integral" unicode="&#x222b;" horiz-adv-x="589" 
d="M589 1510q-222 0 -222 -326q0 -26 1 -54l38 -750q1 -30 1 -59q0 -471 -407 -471v150q222 0 222 326q0 26 -1 54l-38 750q-1 30 -1 59q0 471 407 471v-150z" />
    <glyph glyph-name="approxequal" unicode="&#x2248;" horiz-adv-x="1050" 
d="M730 550q-109 0 -215 50q-105 50 -209 50t-206 -50v150q112 50 220 50t215 -50q106 -50 210 -50t205 50v-150q-111 -50 -220 -50zM730 250q-109 0 -215 50q-105 50 -209 50t-206 -50v150q112 50 220 50t215 -50q106 -50 210 -50t205 50v-150q-111 -50 -220 -50z" />
    <glyph glyph-name="approxequal" unicode="&#x22f2;" horiz-adv-x="1050" 
d="M730 550q-109 0 -215 50q-105 50 -209 50t-206 -50v150q112 50 220 50t215 -50q106 -50 210 -50t205 50v-150q-111 -50 -220 -50zM730 250q-109 0 -215 50q-105 50 -209 50t-206 -50v150q112 50 220 50t215 -50q106 -50 210 -50t205 50v-150q-111 -50 -220 -50z" />
    <glyph glyph-name="notequal" unicode="&#x2260;" horiz-adv-x="950" 
d="M100 300v150h257l86 150h-343v150h429l171 300h150l-171 -300h171v-150h-257l-86 -150h343v-150h-429l-171 -300h-150l171 300h-171z" />
    <glyph glyph-name="lessequal" unicode="&#x2264;" horiz-adv-x="950" 
d="M100 600v150l750 320v-160l-583 -239l583 -231v-160zM850 150v-150h-750v150h750z" />
    <glyph glyph-name="greaterequal" unicode="&#x2265;" horiz-adv-x="950" 
d="M100 280v160l583 231l-583 239v160l750 -320v-150zM850 150v-150h-750v150h750z" />
    <glyph glyph-name="lozenge" unicode="&#x25ca;" horiz-adv-x="1085" 
d="M235 715l308 -565l307 565l-307 565zM450 1430h185l400 -715l-400 -715h-185l-400 715z" />
    <glyph glyph-name="zero.osf" unicode="&#xe012;" horiz-adv-x="1275" 
d="M643 -10q-528 0 -528 535t528 535q517 0 517 -535t-517 -535zM643 140q322 0 322 385t-322 385q-333 0 -333 -385t333 -385z" />
    <glyph glyph-name="one.osf" unicode="&#xe013;" horiz-adv-x="854" 
d="M365 150v711h-250v99l435 90v-900h239v-150h-674v150h250z" />
    <glyph glyph-name="two.osf" unicode="&#xe014;" horiz-adv-x="1100" 
d="M115 0v150q665 337 665 580q0 180 -270 180q-200 0 -395 -110v160q195 100 395 100q455 0 455 -330q0 -290 -547 -580h597v-150h-900z" />
    <glyph glyph-name="three.osf" unicode="&#xe015;" horiz-adv-x="1110" 
d="M480 1050q485 0 485 -380q0 -186 -188 -275q188 -85 188 -275q0 -400 -485 -400q-180 0 -380 60v160q200 -70 380 -70q300 0 300 250q0 200 -252 200h-278v150h275q255 0 255 200q0 230 -300 230q-180 0 -380 -70v160q200 60 380 60z" />
    <glyph glyph-name="four.osf" unicode="&#xe016;" horiz-adv-x="1165" 
d="M957 -280h-185v309h-712v150l545 870h194l-546 -870h519v478h185v-478l148 -76v-74h-148v-309z" />
    <glyph glyph-name="five.osf" unicode="&#xe017;" horiz-adv-x="1145" 
d="M969 1050v-150h-607l-33 -402q117 22 216 22q500 0 500 -390q0 -420 -560 -420q-180 0 -330 60v160q150 -70 340 -70q365 0 365 270q0 240 -315 240q-195 0 -390 -50l50 730h764z" />
    <glyph glyph-name="six.osf" unicode="&#xe018;" horiz-adv-x="1265" 
d="M636 140q333 0 333 320q0 290 -332 290q-184 0 -314 -48q-28 -40 -28 -176q0 -386 341 -386zM120 520q0 506 658 853l96 -127q-342 -176 -494 -389q111 43 266 43q504 0 504 -440q0 -470 -523 -470q-507 0 -507 530z" />
    <glyph glyph-name="seven.osf" unicode="&#xe019;" horiz-adv-x="1060" 
d="M40 1050h930v-150l-612 -1180h-211l632 1180h-739v150z" />
    <glyph glyph-name="eight.osf" unicode="&#xe020;" horiz-adv-x="1250" 
d="M950 380q0 240 -325 240t-325 -240t325 -240t325 240zM910 1008q0 182 -285 182t-285 -182q0 -238 285 -238t285 238zM115 374q0 223 252 331q-212 95 -212 303q0 336 470 336t470 -336q0 -208 -217 -303q257 -108 257 -331q0 -384 -510 -384t-510 384z" />
    <glyph glyph-name="nine.osf" unicode="&#xe021;" horiz-adv-x="1265" 
d="M629 908q-333 0 -333 -320q0 -290 332 -290q184 0 314 48q28 40 28 176q0 386 -341 386zM1145 528q0 -506 -658 -853l-96 127q342 176 494 389q-111 -43 -266 -43q-504 0 -504 440q0 470 523 470q507 0 507 -530z" />
    <glyph glyph-name="g.alt" unicode="&#xe022;" horiz-adv-x="1130" 
d="M295 685q1 -215 255 -215t254 215t-254 215t-255 -215zM557 1050q133 0 230 -50l146 50h157v-150h-186q84 -79 85 -213q0 -372 -445 -372q-72 0 -184 30q-75 -63 -75 -124q0 -71 89 -71h344q337 0 337 -245q0 -305 -512 -305q-242 0 -453 90v170q214 -110 457 -110
q323 0 323 155q0 95 -149 95h-363q-243 0 -243 184q0 124 120 227q-125 89 -125 267q0 372 447 372z" />
    <glyph glyph-name="gcircumflex.alt" unicode="&#xe023;" horiz-adv-x="1130" 
d="M483 1430h150l175 -260h-150l-100 160l-100 -160h-150zM295 685q1 -215 255 -215t254 215t-254 215t-255 -215zM557 1050q133 0 230 -50l146 50h157v-150h-186q84 -79 85 -213q0 -372 -445 -372q-72 0 -184 30q-75 -63 -75 -124q0 -71 89 -71h344q337 0 337 -245
q0 -305 -512 -305q-242 0 -453 90v170q214 -110 457 -110q323 0 323 155q0 95 -149 95h-363q-243 0 -243 184q0 124 120 227q-125 89 -125 267q0 372 447 372z" />
    <glyph glyph-name="gbreve.alt" unicode="&#xe024;" horiz-adv-x="1130" 
d="M285 1430h135q0 -150 130 -150t130 150h135q0 -260 -265 -260t-265 260zM295 685q1 -215 255 -215t254 215t-254 215t-255 -215zM557 1050q133 0 230 -50l146 50h157v-150h-186q84 -79 85 -213q0 -372 -445 -372q-72 0 -184 30q-75 -63 -75 -124q0 -71 89 -71h344
q337 0 337 -245q0 -305 -512 -305q-242 0 -453 90v170q214 -110 457 -110q323 0 323 155q0 95 -149 95h-363q-243 0 -243 184q0 124 120 227q-125 89 -125 267q0 372 447 372z" />
    <glyph glyph-name="gdotaccent.alt" unicode="&#xe025;" horiz-adv-x="1130" 
d="M647 1430v-190h-205v190h205zM295 685q1 -215 255 -215t254 215t-254 215t-255 -215zM557 1050q133 0 230 -50l146 50h157v-150h-186q84 -79 85 -213q0 -372 -445 -372q-72 0 -184 30q-75 -63 -75 -124q0 -71 89 -71h344q337 0 337 -245q0 -305 -512 -305q-242 0 -453 90
v170q214 -110 457 -110q323 0 323 155q0 95 -149 95h-363q-243 0 -243 184q0 124 120 227q-125 89 -125 267q0 372 447 372z" />
    <glyph glyph-name="gcomma.alt" unicode="&#xe026;" horiz-adv-x="1130" 
d="M764 1430l-150 -280h-185l150 280h185zM295 685q1 -215 255 -215t254 215t-254 215t-255 -215zM557 1050q133 0 230 -50l146 50h157v-150h-186q84 -79 85 -213q0 -372 -445 -372q-72 0 -184 30q-75 -63 -75 -124q0 -71 89 -71h344q337 0 337 -245q0 -305 -512 -305
q-242 0 -453 90v170q214 -110 457 -110q323 0 323 155q0 95 -149 95h-363q-243 0 -243 184q0 124 120 227q-125 89 -125 267q0 372 447 372z" />
    <glyph glyph-name="k.alt" unicode="&#xe027;" horiz-adv-x="1082" 
d="M150 0v1430h185v-1430h-185zM1076 1050l-456 -489l462 -561h-237l-394 505v103l397 442h228z" />
    <glyph glyph-name="kcomma.alt" unicode="&#xe028;" horiz-adv-x="1082" 
d="M1076 1050l-456 -489l462 -561h-237l-394 505v103l397 442h228zM691 -100l-150 -280h-185l150 280h185zM150 0v1430h185v-1430h-185z" />
    <glyph glyph-name="germandbls.cap" unicode="&#xe029;" horiz-adv-x="1541" 
d="M170 0v910q0 540 665 540q233 0 565 -80v-130l-436 -433q477 -5 477 -387q0 -422 -494 -422q-176 0 -332 70v160q157 -80 334 -80q297 0 297 272q0 251 -345 252h-136v128l438 460q-184 40 -368 40q-480 0 -480 -380v-920h-185z" />
    <glyph glyph-name="MT.sign" unicode="&#xf000;" horiz-adv-x="1724" 
d="M1439 715q0 -239 -169 -409t-408 -169q-239 -1 -408 169t-169 409t169 409t408 169q239 1 408 -169t169 -409zM862 1347q-262 0 -447 -185t-185 -447t185 -447t447 -185t447 185t185 447t-185 447t-447 185zM1401 1253v-96l94 -19l-19 -94l89 -37l-36 -90l81 -52l-54 -82
l68 -67l-69 -69l55 -82l-82 -52l37 -90l-89 -37l19 -94l-94 -19v-96h-97l-20 -96l-94 19l-37 -89l-89 37l-53 -80l-81 53l-68 -67l-68 67l-81 -53l-53 80l-89 -37l-37 89l-95 -19l-19 96h-97v96l-95 19l19 94l-90 39l37 88l-80 53l55 81l-69 69l69 67l-55 82l82 54l-37 88
l89 37l-19 94l94 19v96h97l19 96l95 -19l37 89l89 -37l53 80l81 -53l68 67l68 -67l81 53l53 -80l89 37l37 -89l94 19l20 -96h97zM1181 332v102l-253 13v540h135l51 -400h115l-38 511h-249l-80 -43l-79 43h-250l-38 -511h114l51 400h136v-540l-253 -13v-102h638z" />
    </font>
</defs>
</svg>
