<?xml version="1.0" encoding="UTF-8" standalone="no"?>
<!DOCTYPE svg PUBLIC "-//W3C//DTD SVG 1.1//EN"
 "http://www.w3.org/Graphics/SVG/1.1/DTD/svg11.dtd">
<!-- Generated by graphviz version 2.34.0 (20140830.1703)
 -->
<!-- Title: G Pages: 1 -->
<svg width="318pt" height="421pt"
 viewBox="0.00 0.00 318.00 421.00" xmlns="http://www.w3.org/2000/svg" xmlns:xlink="http://www.w3.org/1999/xlink">
<g id="graph0" class="graph" transform="scale(1 1) rotate(0) translate(4 417)">
<title>G</title>
<polygon fill="white" stroke="white" points="-4,4 -4,-417 314,-417 314,4 -4,4"/>
<g id="clust1" class="cluster"><title>cluster_Global</title>
<path fill="none" stroke="gray" d="M182,-8C182,-8 290,-8 290,-8 296,-8 302,-14 302,-20 302,-20 302,-393 302,-393 302,-399 296,-405 290,-405 290,-405 182,-405 182,-405 176,-405 170,-399 170,-393 170,-393 170,-20 170,-20 170,-14 176,-8 182,-8"/>
<text text-anchor="middle" x="236" y="-390" font-family="Times,serif" font-size="11.00" fill="gray">Global</text>
</g>
<!-- \\FachadaBase -->
<g id="node1" class="node"><title>\\FachadaBase</title>
<polygon fill="none" stroke="black" points="280.113,-376 191.887,-376 191.887,-340 280.113,-340 280.113,-376"/>
<text text-anchor="middle" x="236" y="-353.6" font-family="Courier,monospace" font-size="11.00">FachadaBase</text>
</g>
<!-- \\Router -->
<g id="node2" class="node"><title>\\Router</title>
<polygon fill="none" stroke="black" points="263.608,-322 208.392,-322 208.392,-286 263.608,-286 263.608,-322"/>
<text text-anchor="middle" x="236" y="-299.6" font-family="Courier,monospace" font-size="11.00">Router</text>
</g>
<!-- \\DAO -->
<g id="node3" class="node"><title>\\DAO</title>
<polygon fill="none" stroke="black" points="263,-268 209,-268 209,-232 263,-232 263,-268"/>
<text text-anchor="middle" x="236" y="-245.6" font-family="Courier,monospace" font-size="11.00">DAO</text>
</g>
<!-- \\autoloadManager -->
<g id="node4" class="node"><title>\\autoloadManager</title>
<polygon fill="none" stroke="black" points="293.516,-214 178.484,-214 178.484,-178 293.516,-178 293.516,-214"/>
<text text-anchor="middle" x="236" y="-191.6" font-family="Courier,monospace" font-size="11.00">autoloadManager</text>
</g>
<!-- \\Conex -->
<g id="node5" class="node"><title>\\Conex</title>
<polygon fill="none" stroke="black" points="263,-160 209,-160 209,-124 263,-124 263,-160"/>
<text text-anchor="middle" x="236" y="-137.6" font-family="Courier,monospace" font-size="11.00">Conex</text>
</g>
<!-- \\Controller -->
<g id="node6" class="node"><title>\\Controller</title>
<polygon fill="none" stroke="black" points="277.011,-106 194.989,-106 194.989,-70 277.011,-70 277.011,-106"/>
<text text-anchor="middle" x="236" y="-83.6" font-family="Courier,monospace" font-size="11.00">Controller</text>
</g>
<!-- \\Slim\\Slim -->
<g id="node8" class="node"><title>\\Slim\\Slim</title>
<ellipse fill="none" stroke="black" cx="53" cy="-88" rx="52.7982" ry="18"/>
<text text-anchor="middle" x="53" y="-82.4" font-family="Times,serif" font-size="14.00" fill="gray">\Slim\Slim</text>
</g>
<!-- \\Controller&#45;&gt;\\Slim\\Slim -->
<g id="edge1" class="edge"><title>\\Controller&#45;&gt;\\Slim\\Slim</title>
<path fill="none" stroke="black" d="M194.83,-88C171.752,-88 142.272,-88 116.254,-88"/>
<polygon fill="none" stroke="black" points="116.099,-84.5001 106.098,-88 116.098,-91.5001 116.099,-84.5001"/>
</g>
<!-- \\VO -->
<g id="node7" class="node"><title>\\VO</title>
<polygon fill="none" stroke="black" points="263,-52 209,-52 209,-16 263,-16 263,-52"/>
<text text-anchor="middle" x="236" y="-29.6" font-family="Courier,monospace" font-size="11.00">VO</text>
</g>
</g>
</svg>
