<?xml version="1.0" encoding="UTF-8" standalone="no"?>
<!DOCTYPE svg PUBLIC "-//W3C//DTD SVG 1.1//EN"
 "http://www.w3.org/Graphics/SVG/1.1/DTD/svg11.dtd">
<!-- Generated by graphviz version 2.34.0 (20140830.1703)
 -->
<!-- Title: G Pages: 1 -->
<svg width="388pt" height="1123pt"
 viewBox="0.00 0.00 388.00 1123.00" xmlns="http://www.w3.org/2000/svg" xmlns:xlink="http://www.w3.org/1999/xlink">
<g id="graph0" class="graph" transform="scale(1 1) rotate(0) translate(4 1119)">
<title>G</title>
<polygon fill="white" stroke="white" points="-4,4 -4,-1119 384,-1119 384,4 -4,4"/>
<g id="clust1" class="cluster"><title>cluster_Global</title>
<path fill="none" stroke="gray" d="M206,-8C206,-8 360,-8 360,-8 366,-8 372,-14 372,-20 372,-20 372,-1095 372,-1095 372,-1101 366,-1107 360,-1107 360,-1107 206,-1107 206,-1107 200,-1107 194,-1101 194,-1095 194,-1095 194,-20 194,-20 194,-14 200,-8 206,-8"/>
<text text-anchor="middle" x="283" y="-1092" font-family="Times,serif" font-size="11.00" fill="gray">Global</text>
</g>
<!-- \\UsuarioVO -->
<g id="node1" class="node"><title>\\UsuarioVO</title>
<polygon fill="none" stroke="black" points="320.911,-970 245.089,-970 245.089,-934 320.911,-934 320.911,-970"/>
<text text-anchor="middle" x="283" y="-947.6" font-family="Courier,monospace" font-size="11.00">UsuarioVO</text>
</g>
<!-- \\VO -->
<g id="node21" class="node"><title>\\VO</title>
<ellipse fill="none" stroke="black" cx="65" cy="-925" rx="27.8358" ry="18"/>
<text text-anchor="middle" x="65" y="-919.4" font-family="Times,serif" font-size="14.00" fill="gray">\VO</text>
</g>
<!-- \\UsuarioVO&#45;&gt;\\VO -->
<g id="edge1" class="edge"><title>\\UsuarioVO&#45;&gt;\\VO</title>
<path fill="none" stroke="black" d="M244.868,-947.359C205.007,-942.376 142.086,-934.511 102.479,-929.56"/>
<polygon fill="none" stroke="black" points="102.809,-926.074 92.4521,-928.307 101.941,-933.02 102.809,-926.074"/>
</g>
<!-- \\DuvidaDAO -->
<g id="node2" class="node"><title>\\DuvidaDAO</title>
<polygon fill="none" stroke="black" points="320.911,-754 245.089,-754 245.089,-718 320.911,-718 320.911,-754"/>
<text text-anchor="middle" x="283" y="-731.6" font-family="Courier,monospace" font-size="11.00">DuvidaDAO</text>
</g>
<!-- \\DAO -->
<g id="node22" class="node"><title>\\DAO</title>
<ellipse fill="none" stroke="black" cx="65" cy="-628" rx="34.7832" ry="18"/>
<text text-anchor="middle" x="65" y="-622.4" font-family="Times,serif" font-size="14.00" fill="gray">\DAO</text>
</g>
<!-- \\DuvidaDAO&#45;&gt;\\DAO -->
<g id="edge2" class="edge"><title>\\DuvidaDAO&#45;&gt;\\DAO</title>
<path fill="none" stroke="black" d="M245.229,-727.079C229.138,-722.579 210.262,-716.477 194,-709 157.451,-692.196 118.88,-666.554 93.7521,-648.635"/>
<polygon fill="none" stroke="black" points="95.6078,-645.658 85.4501,-642.647 91.5125,-651.336 95.6078,-645.658"/>
</g>
<!-- \\LogGameDAO -->
<g id="node3" class="node"><title>\\LogGameDAO</title>
<polygon fill="none" stroke="black" points="324.011,-700 241.989,-700 241.989,-664 324.011,-664 324.011,-700"/>
<text text-anchor="middle" x="283" y="-677.6" font-family="Courier,monospace" font-size="11.00">LogGameDAO</text>
</g>
<!-- \\LogGameDAO&#45;&gt;\\DAO -->
<g id="edge3" class="edge"><title>\\LogGameDAO&#45;&gt;\\DAO</title>
<path fill="none" stroke="black" d="M241.878,-671.97C203.24,-662.31 145.109,-647.777 106.383,-638.096"/>
<polygon fill="none" stroke="black" points="107.044,-634.653 96.4939,-635.623 105.346,-641.444 107.044,-634.653"/>
</g>
<!-- \\MainController -->
<g id="node4" class="node"><title>\\MainController</title>
<polygon fill="none" stroke="black" points="337.416,-268 228.584,-268 228.584,-232 337.416,-232 337.416,-268"/>
<text text-anchor="middle" x="283" y="-245.6" font-family="Courier,monospace" font-size="11.00">MainController</text>
</g>
<!-- \\Controller -->
<g id="node23" class="node"><title>\\Controller</title>
<ellipse fill="none" stroke="black" cx="65" cy="-277" rx="53.326" ry="18"/>
<text text-anchor="middle" x="65" y="-271.4" font-family="Times,serif" font-size="14.00" fill="gray">\Controller</text>
</g>
<!-- \\MainController&#45;&gt;\\Controller -->
<g id="edge4" class="edge"><title>\\MainController&#45;&gt;\\Controller</title>
<path fill="none" stroke="black" d="M228.607,-256.674C197.381,-260.577 157.89,-265.514 125.646,-269.544"/>
<polygon fill="none" stroke="black" points="124.94,-266.105 115.451,-270.819 125.808,-273.051 124.94,-266.105"/>
</g>
<!-- \\ProblemaDAO -->
<g id="node5" class="node"><title>\\ProblemaDAO</title>
<polygon fill="none" stroke="black" points="327.113,-646 238.887,-646 238.887,-610 327.113,-610 327.113,-646"/>
<text text-anchor="middle" x="283" y="-623.6" font-family="Courier,monospace" font-size="11.00">ProblemaDAO</text>
</g>
<!-- \\ProblemaDAO&#45;&gt;\\DAO -->
<g id="edge5" class="edge"><title>\\ProblemaDAO&#45;&gt;\\DAO</title>
<path fill="none" stroke="black" d="M238.808,-628C201.447,-628 147.666,-628 110.055,-628"/>
<polygon fill="none" stroke="black" points="109.902,-624.5 99.9022,-628 109.902,-631.5 109.902,-624.5"/>
</g>
<!-- \\SentimentoDAO -->
<g id="node6" class="node"><title>\\SentimentoDAO</title>
<polygon fill="none" stroke="black" points="333.814,-592 232.186,-592 232.186,-556 333.814,-556 333.814,-592"/>
<text text-anchor="middle" x="283" y="-569.6" font-family="Courier,monospace" font-size="11.00">SentimentoDAO</text>
</g>
<!-- \\SentimentoDAO&#45;&gt;\\DAO -->
<g id="edge6" class="edge"><title>\\SentimentoDAO&#45;&gt;\\DAO</title>
<path fill="none" stroke="black" d="M232.174,-586.456C194.073,-595.982 142.203,-608.949 106.605,-617.849"/>
<polygon fill="none" stroke="black" points="105.42,-614.537 96.568,-620.358 107.118,-621.328 105.42,-614.537"/>
</g>
<!-- \\EsqueciSenhaController -->
<g id="node7" class="node"><title>\\EsqueciSenhaController</title>
<polygon fill="none" stroke="black" points="363.724,-106 202.276,-106 202.276,-70 363.724,-70 363.724,-106"/>
<text text-anchor="middle" x="283" y="-83.6" font-family="Courier,monospace" font-size="11.00">EsqueciSenhaController</text>
</g>
<!-- \\EsqueciSenhaController&#45;&gt;\\Controller -->
<g id="edge7" class="edge"><title>\\EsqueciSenhaController&#45;&gt;\\Controller</title>
<path fill="none" stroke="black" d="M209.698,-106.142C204.188,-108.725 198.88,-111.662 194,-115 141.719,-150.76 100.626,-214.34 80.1853,-250.295"/>
<polygon fill="none" stroke="black" points="77.0154,-248.794 75.207,-259.233 83.1308,-252.2 77.0154,-248.794"/>
</g>
<!-- \\CadastroController -->
<g id="node8" class="node"><title>\\CadastroController</title>
<polygon fill="none" stroke="black" points="350.319,-484 215.681,-484 215.681,-448 350.319,-448 350.319,-484"/>
<text text-anchor="middle" x="283" y="-461.6" font-family="Courier,monospace" font-size="11.00">CadastroController</text>
</g>
<!-- \\CadastroController&#45;&gt;\\Controller -->
<g id="edge8" class="edge"><title>\\CadastroController&#45;&gt;\\Controller</title>
<path fill="none" stroke="black" d="M215.571,-450.451C207.971,-447.29 200.595,-443.511 194,-439 141.719,-403.24 100.626,-339.66 80.1853,-303.705"/>
<polygon fill="none" stroke="black" points="83.1308,-301.8 75.207,-294.767 77.0154,-305.206 83.1308,-301.8"/>
</g>
<!-- \\SentimentoVO -->
<g id="node9" class="node"><title>\\SentimentoVO</title>
<polygon fill="none" stroke="black" points="330.713,-916 235.287,-916 235.287,-880 330.713,-880 330.713,-916"/>
<text text-anchor="middle" x="283" y="-893.6" font-family="Courier,monospace" font-size="11.00">SentimentoVO</text>
</g>
<!-- \\SentimentoVO&#45;&gt;\\VO -->
<g id="edge9" class="edge"><title>\\SentimentoVO&#45;&gt;\\VO</title>
<path fill="none" stroke="black" d="M235.131,-903.859C195.38,-908.827 139.154,-915.856 102.635,-920.421"/>
<polygon fill="none" stroke="black" points="101.92,-916.983 92.4318,-921.696 102.789,-923.929 101.92,-916.983"/>
</g>
<!-- \\CalendarioController -->
<g id="node10" class="node"><title>\\CalendarioController</title>
<polygon fill="none" stroke="black" points="357.021,-376 208.979,-376 208.979,-340 357.021,-340 357.021,-376"/>
<text text-anchor="middle" x="283" y="-353.6" font-family="Courier,monospace" font-size="11.00">CalendarioController</text>
</g>
<!-- \\CalendarioController&#45;&gt;\\Controller -->
<g id="edge10" class="edge"><title>\\CalendarioController&#45;&gt;\\Controller</title>
<path fill="none" stroke="black" d="M220.192,-339.906C211.354,-337.067 202.411,-334.056 194,-331 164.351,-320.229 131.586,-306.369 106.629,-295.387"/>
<polygon fill="none" stroke="black" points="108.03,-292.18 97.4692,-291.332 105.196,-298.58 108.03,-292.18"/>
</g>
<!-- \\Fachada -->
<g id="node11" class="node"><title>\\Fachada</title>
<polygon fill="none" stroke="black" points="314.208,-52 251.792,-52 251.792,-16 314.208,-16 314.208,-52"/>
<text text-anchor="middle" x="283" y="-29.6" font-family="Courier,monospace" font-size="11.00">Fachada</text>
</g>
<!-- \\FachadaBase -->
<g id="node24" class="node"><title>\\FachadaBase</title>
<ellipse fill="none" stroke="black" cx="65" cy="-34" rx="64.8278" ry="18"/>
<text text-anchor="middle" x="65" y="-28.4" font-family="Times,serif" font-size="14.00" fill="gray">\FachadaBase</text>
</g>
<!-- \\Fachada&#45;&gt;\\FachadaBase -->
<g id="edge11" class="edge"><title>\\Fachada&#45;&gt;\\FachadaBase</title>
<path fill="none" stroke="black" d="M251.511,-34C222.581,-34 177.969,-34 139.744,-34"/>
<polygon fill="none" stroke="black" points="139.665,-30.5001 129.665,-34 139.665,-37.5001 139.665,-30.5001"/>
</g>
<!-- \\DuvidaController -->
<g id="node12" class="node"><title>\\DuvidaController</title>
<polygon fill="none" stroke="black" points="343.618,-322 222.382,-322 222.382,-286 343.618,-286 343.618,-322"/>
<text text-anchor="middle" x="283" y="-299.6" font-family="Courier,monospace" font-size="11.00">DuvidaController</text>
</g>
<!-- \\DuvidaController&#45;&gt;\\Controller -->
<g id="edge12" class="edge"><title>\\DuvidaController&#45;&gt;\\Controller</title>
<path fill="none" stroke="black" d="M222.119,-296.515C191.945,-292.743 155.471,-288.184 125.369,-284.421"/>
<polygon fill="none" stroke="black" points="125.78,-280.945 115.423,-283.178 124.912,-287.891 125.78,-280.945"/>
</g>
<!-- \\UsuarioDAO -->
<g id="node13" class="node"><title>\\UsuarioDAO</title>
<polygon fill="none" stroke="black" points="324.011,-538 241.989,-538 241.989,-502 324.011,-502 324.011,-538"/>
<text text-anchor="middle" x="283" y="-515.6" font-family="Courier,monospace" font-size="11.00">UsuarioDAO</text>
</g>
<!-- \\UsuarioDAO&#45;&gt;\\DAO -->
<g id="edge13" class="edge"><title>\\UsuarioDAO&#45;&gt;\\DAO</title>
<path fill="none" stroke="black" d="M241.74,-529.91C226.455,-534.299 209.1,-540.057 194,-547 157.451,-563.804 118.88,-589.446 93.7521,-607.365"/>
<polygon fill="none" stroke="black" points="91.5125,-604.664 85.4501,-613.353 95.6078,-610.342 91.5125,-604.664"/>
</g>
<!-- \\DuvidaVO -->
<g id="node14" class="node"><title>\\DuvidaVO</title>
<polygon fill="none" stroke="black" points="317.309,-862 248.691,-862 248.691,-826 317.309,-826 317.309,-862"/>
<text text-anchor="middle" x="283" y="-839.6" font-family="Courier,monospace" font-size="11.00">DuvidaVO</text>
</g>
<!-- \\DuvidaVO&#45;&gt;\\VO -->
<g id="edge14" class="edge"><title>\\DuvidaVO&#45;&gt;\\VO</title>
<path fill="none" stroke="black" d="M248.305,-853.466C231.805,-858.322 211.724,-864.561 194,-871 160.632,-883.122 123.319,-899.157 97.6285,-910.597"/>
<polygon fill="none" stroke="black" points="96.0789,-907.456 88.3841,-914.739 98.9411,-913.844 96.0789,-907.456"/>
</g>
<!-- \\CalendarioVO -->
<g id="node15" class="node"><title>\\CalendarioVO</title>
<polygon fill="none" stroke="black" points="330.713,-808 235.287,-808 235.287,-772 330.713,-772 330.713,-808"/>
<text text-anchor="middle" x="283" y="-785.6" font-family="Courier,monospace" font-size="11.00">CalendarioVO</text>
</g>
<!-- \\CalendarioVO&#45;&gt;\\VO -->
<g id="edge15" class="edge"><title>\\CalendarioVO&#45;&gt;\\VO</title>
<path fill="none" stroke="black" d="M235.365,-800.513C221.577,-804.613 206.767,-810.037 194,-817 152.079,-839.862 111.267,-877.838 87.3931,-902.127"/>
<polygon fill="none" stroke="black" points="84.6995,-899.877 80.2571,-909.496 89.7281,-904.747 84.6995,-899.877"/>
</g>
<!-- \\ProblemaController -->
<g id="node16" class="node"><title>\\ProblemaController</title>
<polygon fill="none" stroke="black" points="350.319,-214 215.681,-214 215.681,-178 350.319,-178 350.319,-214"/>
<text text-anchor="middle" x="283" y="-191.6" font-family="Courier,monospace" font-size="11.00">ProblemaController</text>
</g>
<!-- \\ProblemaController&#45;&gt;\\Controller -->
<g id="edge16" class="edge"><title>\\ProblemaController&#45;&gt;\\Controller</title>
<path fill="none" stroke="black" d="M220.192,-214.094C211.354,-216.933 202.411,-219.944 194,-223 164.351,-233.771 131.586,-247.631 106.629,-258.613"/>
<polygon fill="none" stroke="black" points="105.196,-255.42 97.4692,-262.668 108.03,-261.82 105.196,-255.42"/>
</g>
<!-- \\SentimentoController -->
<g id="node17" class="node"><title>\\SentimentoController</title>
<polygon fill="none" stroke="black" points="357.021,-160 208.979,-160 208.979,-124 357.021,-124 357.021,-160"/>
<text text-anchor="middle" x="283" y="-137.6" font-family="Courier,monospace" font-size="11.00">SentimentoController</text>
</g>
<!-- \\SentimentoController&#45;&gt;\\Controller -->
<g id="edge17" class="edge"><title>\\SentimentoController&#45;&gt;\\Controller</title>
<path fill="none" stroke="black" d="M213.144,-160.138C206.522,-162.763 200.033,-165.71 194,-169 153.231,-191.234 113.51,-227.762 89.3987,-252.095"/>
<polygon fill="none" stroke="black" points="86.6185,-249.932 82.1373,-259.533 91.6274,-254.822 86.6185,-249.932"/>
</g>
<!-- \\LogGameVO -->
<g id="node18" class="node"><title>\\LogGameVO</title>
<polygon fill="none" stroke="black" points="320.911,-1078 245.089,-1078 245.089,-1042 320.911,-1042 320.911,-1078"/>
<text text-anchor="middle" x="283" y="-1055.6" font-family="Courier,monospace" font-size="11.00">LogGameVO</text>
</g>
<!-- \\LogGameVO&#45;&gt;\\VO -->
<g id="edge18" class="edge"><title>\\LogGameVO&#45;&gt;\\VO</title>
<path fill="none" stroke="black" d="M245.141,-1052.23C228.858,-1047.92 209.854,-1041.65 194,-1033 152.079,-1010.14 111.267,-972.162 87.3931,-947.873"/>
<polygon fill="none" stroke="black" points="89.7281,-945.253 80.2571,-940.504 84.6995,-950.123 89.7281,-945.253"/>
</g>
<!-- \\ProblemaVO -->
<g id="node19" class="node"><title>\\ProblemaVO</title>
<polygon fill="none" stroke="black" points="324.011,-1024 241.989,-1024 241.989,-988 324.011,-988 324.011,-1024"/>
<text text-anchor="middle" x="283" y="-1001.6" font-family="Courier,monospace" font-size="11.00">ProblemaVO</text>
</g>
<!-- \\ProblemaVO&#45;&gt;\\VO -->
<g id="edge19" class="edge"><title>\\ProblemaVO&#45;&gt;\\VO</title>
<path fill="none" stroke="black" d="M241.852,-994.618C226.738,-990.089 209.471,-984.62 194,-979 160.632,-966.878 123.319,-950.843 97.6285,-939.403"/>
<polygon fill="none" stroke="black" points="98.9411,-936.156 88.3841,-935.261 96.0789,-942.544 98.9411,-936.156"/>
</g>
<!-- \\LoginController -->
<g id="node20" class="node"><title>\\LoginController</title>
<polygon fill="none" stroke="black" points="340.516,-430 225.484,-430 225.484,-394 340.516,-394 340.516,-430"/>
<text text-anchor="middle" x="283" y="-407.6" font-family="Courier,monospace" font-size="11.00">LoginController</text>
</g>
<!-- \\LoginController&#45;&gt;\\Controller -->
<g id="edge20" class="edge"><title>\\LoginController&#45;&gt;\\Controller</title>
<path fill="none" stroke="black" d="M225.229,-398.278C214.536,-394.674 203.681,-390.279 194,-385 153.231,-362.766 113.51,-326.238 89.3987,-301.905"/>
<polygon fill="none" stroke="black" points="91.6274,-299.178 82.1373,-294.467 86.6185,-304.068 91.6274,-299.178"/>
</g>
</g>
</svg>
